<mxfile host="Electron" agent="Mozilla/5.0 (Windows NT 10.0; Win64; x64) AppleWebKit/537.36 (KHTML, like Gecko) draw.io/21.5.0 Chrome/112.0.5615.204 Electron/24.5.1 Safari/537.36" modified="2025-01-27T23:33:58.339Z" etag="hkeG8I-fgvfSidyVrn6z" version="21.5.0" type="device" pages="5">
  <diagram name="fgt-single-vm" id="VOJnvQhmk6kvTq0DFbzb">
    <mxGraphModel dx="780" dy="496" grid="1" gridSize="10" guides="1" tooltips="1" connect="1" arrows="1" fold="1" page="1" pageScale="1" pageWidth="1169" pageHeight="827" math="0" shadow="0">
      <root>
        <mxCell id="igetMSzc9jm7YL5A2QUc-0" />
        <mxCell id="igetMSzc9jm7YL5A2QUc-1" parent="igetMSzc9jm7YL5A2QUc-0" />
        <mxCell id="igetMSzc9jm7YL5A2QUc-3" value="" style="rounded=1;whiteSpace=wrap;html=1;sketch=0;fontSize=10;strokeColor=#007fff;fillColor=#FFFFFF;gradientColor=none;gradientDirection=south;absoluteArcSize=1;arcSize=4;fontFamily=Helvetica;" parent="igetMSzc9jm7YL5A2QUc-1" vertex="1">
          <mxGeometry x="20" y="99" width="1100" height="661" as="geometry" />
        </mxCell>
        <mxCell id="kwQ4lod3LPj0MxNfvOPQ-33" value="" style="rounded=1;whiteSpace=wrap;html=1;fillColor=#f5f5f5;fontColor=#333333;strokeColor=#666666;" parent="igetMSzc9jm7YL5A2QUc-1" vertex="1">
          <mxGeometry x="830" y="190" width="210" height="460" as="geometry" />
        </mxCell>
        <mxCell id="igetMSzc9jm7YL5A2QUc-94" style="vsdxID=7;fillColor=#ffffff;gradientColor=none;fillOpacity=0;strokeOpacity=0;shape=stencil(pZPRDoIgFIafhlt35Cy1y2b2Hi4xWSYOteztg7EMNXVMrg7w/4fv3zgE46ZIa0YoNK0Ud/biWVsQPBNKeVUwyVtVEUwIxrmQ7CZFV2VmX6daqauHeOoOvfGBdlB427uLEZa8soToReGy9tpJ09Uf1MHRXl+vP3q2pxtyOpbjjAVnMHDaZj94QbQHX/lD+xrd4izZF+ONef8kBKd44JQGnOBhF/nqp5pgwyomrGJN/4uqfxOS87I0AzagqGI6UerITCMmHw==);spacingTop=-3;spacingBottom=-3;spacingLeft=-3;spacingRight=-3;labelBackgroundColor=none;rounded=0;html=1;whiteSpace=wrap;" parent="igetMSzc9jm7YL5A2QUc-1" vertex="1">
          <mxGeometry x="133.5" y="70" width="918" height="626" as="geometry" />
        </mxCell>
        <mxCell id="kwQ4lod3LPj0MxNfvOPQ-19" style="edgeStyle=orthogonalEdgeStyle;rounded=0;orthogonalLoop=1;jettySize=auto;html=1;exitX=1;exitY=0.5;exitDx=0;exitDy=0;entryX=0;entryY=0.5;entryDx=0;entryDy=0;strokeColor=#3333FF;" parent="igetMSzc9jm7YL5A2QUc-1" source="igetMSzc9jm7YL5A2QUc-100" target="kwQ4lod3LPj0MxNfvOPQ-5" edge="1">
          <mxGeometry relative="1" as="geometry" />
        </mxCell>
        <mxCell id="igetMSzc9jm7YL5A2QUc-100" style="vsdxID=46;fillColor=none;gradientColor=none;image;aspect=fixed;image=data:image/png,iVBORw0KGgoAAAANSUhEUgAAAZAAAAGNCAYAAAA/9yeJAAAABGdBTUEAALGPC/xhBQAAACBjSFJNAAB6JgAAgIQAAPoAAACA6AAAdTAAAOpgAAA6mAAAF3CculE8AAAABmJLR0QA/wD/AP+gvaeTAAAACXBIWXMAAA7DAAAOwwHHb6hkAAAAB3RJTUUH5AQDBxsK6pjOGwAALOxJREFUeNrt3Xd4VFX+BvD3zkx6gZAOBAihJARCLwGpAQSUahd3dV1ddV37Ij8BV1FBURB3EURdEAuK0kRApAcChBJKQosEEtIhpJGeTGbu7w+BpTNzMjNnJnk/z8MTkrlzzvdcwn3n3nvuvQrk0nbv3l1TVVWlVLdooTSvrFQk10NE5DCy3NzURnl5Ri8vLzU2NrbW1v3baoOtxIwZ00nV6YZAVftCRXdVQYgCxcnWAyYiqp9UFSouqKoxSdFo9hlVdUtWdXX86Q0bqq3VozUDRIkZO/Yuo6I8oSjKA4DideUF7mcQEVmNql76ClWvAlsVVf1vXkrK2uPHj9dYsh+Lb8qjhg/38Hd3f1YFJkHRBAIMDCIiWS6HiaKgXAUW6oE5catW5VqibYtt2qOGD/fw9/R8STUap0DReDA0iIjsyx9hotaqqvpFrUbzXl2DxCKb+Zhx48YZgcWKovFhcBAR2TdVBRSoNVDV17f+/POnAAwi7dRpc99/5Eh/nYvrMkVRhjA4iIgci6oCqoLT0OvHbV+79ri57xfe7A8aP/4ujaKsg4pGDA8iIsd0+bAWVPXpbT//vMSc9wpt+gePHfuiotF8oiiMDiKi+kBVAVU1/qAWF//Z1GtKzA6AmLFjP1Q12kmMDiKi+uXS3sjuynPnhsXHx1feaXmzYmDg+PFfa6H8meFBRFQ/qSqgQk1Wi4p6xsbGlt1uWY2pjQ4YN24uw4OIqH5TFECBEq5p7LMnMjLS+XbLak1pMGbcuJc0iuZtS4bH5YtbiIjIMiy1jf6jHSXQ3df3rrPJyd8CuOkW+47dDRw/PloL7LbECfOrQ4N7MkRElnX9B/O6bmcvHc76z/bVq1+62eu3bf6ue+7xcXZxyVQAD0sMiKFBRGQbltr2qqqqAhi6bfXqbde/dttzIE7Ozr9CrXt4KArDg4jIlq7e7tbllMGlo0+/9ho/3vf6124ZIP0mTBijQOkjsuH/Yz4xg4OISLbL2+HL22XBVlw8gBXX//SmJ9HbjBzp4uvktF9R4Hznhq919V4HERHZh6u3yeZuny8t3zKkXbvt6b//nn755zfdAwlxcZ0pcuiK4UFEZL/qckhLURRFp9X+fPXPbgiQyMhIZ0VRXjA3BBgeRET27+pDWgLv9hkwZszEy9/dECB+YWHTAJj1qFmGBxGR4zE3RBQF0Gm08y5/f0OAaLXa18wJAoYHEZHjET6cpSg+g0aNGgFcFyCDRo/uAyjuooUQEZHjEAkRRQE0zi5zgOsCRNHp5orsfRARkWMS2QFQNEp499Gj3a8NEKCHLTonIiL7Ys4OgapC46nTPX8lQHrFxLQDFJ01OiMiIvslcl2IFnjqSoB4eHm9LnhxCRER1QNm7RgoSqjmf39X7rZKJ0REZPfM3iFQ4fS/AAH8rdoZERHVG4py1SwsFebf94qIiOoXc44wXQ4Q3jeXiKiBMzcFNKJvJCKihu1ygJj0bHTgf8/5ICKihu2qQ1hERESm01z3lYiIyCQMDiIiEsIAISIiIQwQIiISwgAhIiIhDBAiIhLCACEiIiEMECIiEsIAISIiIQwQIiISwgAhIiIhDBAiIhLCACEiIiEMECIiEsIAISIiIQwQIiISwgAhIiIhDBAiIhLCACEiIiEMECIiEsIAISIiIQwQIiISwgAhIiIhDBAiIhLCACEiIiEMECIiEsIAISIiIQwQIiISwgAhIiIhDBAiIhLCACEiIiEMECIiEsIAISIiITrZBZB1ebi7I9DfH+5ublABlJWXI/f8edTU1MguzS45OzsjKCAAnh4e0Gg0qKysxLm8PJRXVMguzS5pNBoEBQTA28sLzk5OqKyqwoX8fBSXlMgujWyAAVLPaLVa9OzaFQOjo9G5Y0cE+PndsIzRaMTZjAwcOHIEW3buRFp6uuyypYoMD8fgfv3QNSoKLZo1g6IoNyyTe/48DiUlYfuuXThy7JjskqUKadYMMf37o0eXLmjbujW0Wu0NyxRfvIgjx45hx5492JuQAH1treyyyQou/09xiZkwocqUN6gqcJP/XySZRqPBPcOG4ZEJE24aGrdzKCkJi7//HskpKbKHYVN9evTAEw8/jDahoWa972xGBr7+8UfE7d0rewg21SY0FE8++ih6detm1vsKioqwbNUqrPntNxiNRtnDoDswZxvPAKkHmgcHY+qrr6Jt69bCbaiqijUbNuDzr7+u958WvTw98c+//x39eveuUzv7Dx3Ch59+iuKLF2UPyaq0Wi2emjgR940eDY1G/LRpano63v/kE6RlZMgeEt2GOdv4y/ueutYREdNM7YABYj+6RUXho+nTERQQUKd2FEVBeNu26NWtG3bv24eq6mrZQ7OK5sHB+GTGDHRo377ObTULDkbMgAE4nJSEouJi2UOzCg93d3zw5psY3L//TQ/tmcOncWPcPXgwMrKykJGdLXtodBsMkAagW1QUZkyZAlcXF4u16dukCaJ79cKO3bvrXYgEBwbi3zNnwt/X12Jturu5YUj//jiYmIjCoiLZQ7QoV1dXzJk+3SJhe5lOp8OA6Ghk5ebiLPdE7Jap23hO43VQTYOC8NakSXBycrJ42yFNm+K9qVOh09WfORaurq6YOW0afBo1snjbHu7umDltGvyaNJE9TIua8vLLaBcWZvF2NRoNJr/wAjpGRMgeItURA8QBKYqCN156CR7u7lbrI7xNGzz9pz/JHqrF/P0vf0FI06ZWa9+nUSNMfeUV2cO0mHuGDUPfnj2t1r5Op8O0V16x6u8wWR8DxAHdPXgwItq1s3o/40eNMnuGkj1qFxaGkTExVu+nU4cONunH2jw9PPDXiROt3o+fr69N+iHrYYA4GEVR8Oh999mkL41Gg7888ojsIdfZxPvvr/MJYFP9+aGHHP7Q37iRI+Ht5WWTvu4ZNqzOE0BIHgaIg+nRuTOaBgXZrL/e3bujeXCw7GEL823SxKqHYq7n7+uLAdHRsoddJ/cOH26zvrRaLcaOGCF7yCSIAeJgBvTta/M+YwYMkD1sYQP69LHZ3sdlQx14fUWGh8PPgrPUTOHIv18NHQPEwXSOjLR5n927dJE9bGGdO3a0eZ9RkZEOexiri4T11cTHB6EtW8oeOglggDgQN1dXmx6+uqxNaKjNP8VbSlirVjbv09XFBS2aNZM9dCEy1hcAtLfCdGGyPgaIA5F1stHZycmiF9/ZiqIoZt8XzFKaOeh5o0B/fyn9yvhgRHXHAHEg7hLnzHt4eMgevtlcXFxueqdYW3DE9QVA2nUZjrq+GjoGiAOReVzdyQGP6cus2RHXFyDvd8zZQddXQ8cAISIiIQwQIiISwgAhIiIhDBAiIhLCACEiIiEMECIiEsIAISIiIQwQIiISwgAhIiIhDBAiIhLCACEiIiEMECIiEsIAISIiIQwQIiISwgAhIiIhDBAiIhLCACEiIiEMECIiEsIAISIiIQwQIiISwgAhIiIhDBAiIhLCACEiIiEMECIiEsIAISIiIQwQIiISwgAhIiIhDBAiIhLCACEiIiEMECIiEsIAISIiIQwQIiISwgAhIiIhDBAiIhLCACEiIiEMECIiEsIAISIiIQwQIiISwgAhIiIhDBAiIhLCACEiIiEMECIiEsIAISIiIQwQIiISwgAhIiIhDBAiIhLCACEiIiEMECIiEsIAISIiIQwQIiISwgAhIiIhDBAiIhLCACEiIiEMECIiEsIAISIiIQwQIiISwgAhIiIhDBAiIhLCACEiIiEMECIiEsIAISIiIQwQIiISwgAhIiIhDBAiIhLCACEiIiEMECIiEsIAISIiIQwQIiISwgAhIiIhDBAiIhLCACEiIiEMECIiEsIAISIiIQwQIiISwgAhIiIhDBAiIhLCACEiIiEMECIiEsIAISIiIQwQIiISwgAhIiIhDBAiIhLCACEiIiEMECIiEsIAISIiIQwQIiISwgAhIiIhDBAiIhLCACEiIiEMECIiEsIAISIiIQwQIiISwgAhIiIhDBAiIhLCACEiIiEMECIiEsIAISIiIQwQIiISwgAhIiIhDBAiIhLCACEiIiEMECIiEsIAISIiIQwQIiISwgAhIiIhDBAiIhLCACEiIiEMECIiEsIAISIiIQwQIiISwgAhIiIhDBAiIhLCACEiIiEMECIiEsIAISIiIQwQIiISwgAhIiIhDBAiIhLCACEiIiEMECIiEsIAISIiIQwQIiISwgAhIiIhDBAiIhLCACEiIiEMECIiEsIAISIiIQwQIiISwgAhIiIhDBAiIhLCACEiIiEMECIiEsIAISIiIQwQIiISwgAhIiIhDBAiIhLCACEiIiEMECIiEsIAISIiIQwQIiISwgAhIiIhDBAiIhLCACEiIiEMECIiEsIAISIiIQwQIiISwgAhIiIhDBAiIhLCACEiIiEMECIiEsIAISIiIQwQIiISwgAhIiIhDBAiIhLCACEiIiEMECIiEsIAISIiIQwQIiISwgAhIiIhDBAiIhLCACEiIiEMECIiEsIAISIiIQwQIiISwgAhIiIhDBAiIhLCACEiIiEMECIiEsIAISIiIQwQIiISwgAhIiIhDBAiIhLCACEiIiEMECIiEsIAISIiIQwQIiISwgBxJKoqsWt5fTtizY64vmTi2nJMDBAHUl1TI6/v6mrZwze/Zq4vh6m7qqpK9tBJAAPEgVwsKZHWd/HFi7KHbza9Xo9KSRsmR1xfAFBSWiql32KJv9skjgHiQM5fuIDa2lqb93uxpAQlZWWyhy8kOzdXSr8Z2dmyhy4kS9b6ysqSPXQSwABxIEajEadSU23e79GTJ2UPXVhySorN+7xQUIDzFy7IHrqQk6dOSen3WHKy7KGTAAaIg0k4fNjmfcYfOCB72MIOcH2ZJSEx0eYTAE6eOuWwh/waOgaIg9kWF2fT/+AVlZXYGR8ve9jC9h86hFIbH377bds22cMWlnfhgs33Bhx5fTV0DBAHk5Wbi32HDtmsvzUbNkg7EW0J+tparN240Wb9HUpKwqkzZ2QPu05Wrl1rs74KioqwKTZW9pBJEAPEAS1euhRGo9Hq/RQWFWHZ6tWyh1tnP61Zg4s2mF1kMBiwcMkS2cOts1379tnsXMiX334LvV4ve8gkiAHigFLT07HCBp8SP164EOUVFbKHW2dl5eVYsGiR1fv5fuVKpKanyx6uRcxduBA1Vt6wxx84gC07dsgeKtUBA8RBLf7+exyz4uyo75Yvx96EBNnDtJitcXFYv3mz1drfe/AgvvnpJ9nDtJjU9HTMt2LoZmRlYda8ebKHSXWkvfRV1zoiYpqpb1IU2WWT0WjEnv370aNrVzRp3Niiba/+9Vd8+e23sodocfsPHUJoy5Zo0by5Rds9fPQo3p41C7UGg+whWlRKaiqMqoouHTtatN3s3Fy8Pn06Z17ZMVO38QwQB1ZdU4Ptu3ahbevWaBoUVOf2DAYD/rt0KZb88IPsoVmFqqrYGR8Pby8vhLdta5E2N27bhhlz51r9cI8sSSdOoPjiRXTv3BkaTd0PWCQdP4433n0XhcXFsodGt8EAaSD0ej22xsWhoqICke3bw8nJSaidtIwMvP3hh4jdvVv2kKxKVVXsP3QIqenp6BgeDnd3d6F2ioqL8fFnn2HpypU2mdAg0+9nzmD/4cNoFxYGXx8foTaqq6vx9Y8/Yu7ChQ49q6+hMHUbf3kxl5gJE0z6V1VVBoi9atyoER4YPRp3DxmCxo0amfSeM2fPYsUvv2BrXFy93xBez9XFBfcMG4axI0eavAeXl5+PX377zeGnN4tQFAUD+/bF/WPGILxNG5PeU1Zejo3bt+Onn39GQVGR7CGQCczZxjNA6iGNRoMuHTuic2QkQlu2RJC/P9zc3KCqKsorKpCdm4vk06eRcPgwzmZmyi7XLrQPC0PXqCi0CQ1F06AgeHp4QKvRoLyyEufy8nA6NRWHkpJw/Pffeat2AM2Cg9G9c2eEt22LZsHB8PbygrOTE6qqqnChoABp6ek4cuwYDiUlQS/h/m0kjgFCRERCzNnGcxovEREJYYAQEZEQBggREQlhgBARkRAGCBERCWGAEBGREAYIEREJYYAQEZEQBggREQlhgBARkRAGCBERCWGAEBGREAYIEREJYYAQEZEQBggREQlhgBARkRAGCBERCWGAEBGREAYIEREJYYAQEZEQnewCiByZk5MTXF1coNVq4aTTQafTQVEUqKoKo9EIFYBer0dNTQ2qa2pQW1sru2Qii2GAEF1Fo9EgwM8P/n5+8Pf1hZ+vL/x8fNDI2xuNGzWCt5cXvL284O7mBnc3N2i1WrPaNxgMqKisRFl5OcrKy1FeUYHyS38vq6hAQVERLuTn//GnoAD5hYUwGAyyVwvRTTFAqEHy9PBAy5AQtAoJQcuQEDRv2hTNgoIQ6O8Pnc56/y20Wi28PD3h5elp0vKqqqKwuBgX8vORlZOD9KwspGdlISMzEznnz8NoNMpeldSAMUCo3vP08EBEu3ZoFxaGtq1bo23r1gj095ddlkkURYGvjw98fXwQ3rbtNa/V6PV/hEpmJk6dOYOTp07hVGoqampqZJdNDYRy6atLzIQJVaa8QVUBRTFlSSI5Avz80KVTJ3QKD0eH8HC0aNYMSgP5pTUYDEhNT8fJU6eu/MnKzZVdFjkQc7bxDBByeB7u7ugWFYUeXbqga6dOaBoUJLsku5KXn4+DiYk4mJiIQ0lJKCktlV0S2TEGCNV7wYGB6B8djT7duiEyPNzsk9kNlaqqOJ2WhoOJidh/6BCOJSfzPApdgwFC9VJQQAAG9O2LQX37ol1YmOxy6oWiixexe98+7IyPx5FjxxgmxACh+iPQ3x8D+/XDwOhotG/TRnY59VpJaSl279+PuL17kXDkCMOkgWKAkEPT6XTo16sXRg0dim5RUQ3mBLg9KSouxqbYWPy2bRsys7Nll0M2xAAhh9QsOBijhg7F3YMHo3GjRrLLoUuOJydjw9atiN2zB1VVJm0myIExQMhhaDQaDIiOxr3Dh6NLx46yy6HbqKysxLZdu7By3TpkZGXJLoeshAFCds/Z2RkjhgzBA2PGIDgwUHY5ZAZVVXHg8GGsWLsWh5KSZJdDFsYAIbvl5emJsSNGYPw996CRt7fscqiOUs+exYq1a7Ft1y7eKLKeYICQ3fFr0gQPjh2LkUOHws3VVXY5ZGEFRUX4YeVKrN+8GXoGiUNjgJDd8Pb0xCMTJmDsyJFwdnaWXQ5Z2YWCAixdsQIbtm7lXYQdFAOEpHN1ccGEe+/Fg2PHwtPDQ3Y5ZGPn8vLw3fLl2BQby+tJHAwDhKTRarW4Z+hQPPbAA2ji4yO7HJIsOzcXn3/zDfbs3y+7FDIRA4Sk6NO9O/7+5JO8mSHd4FBSEhYsXoyzmZmyS6E7YICQTQX6++P5v/4VfXv2lF0K2TGDwYB1mzZhybJlKC0rk10O3QIDhGxCp9PhwbFjMfG+++Di4iK7HHIQJaWlWLJsGdZu3AhVVWWXQ9dhgJDVdYuKwgtPP42Qpk1ll0IO6sSpU5g9fz6varczDBCyGg93d7zw1FMYOnCg7FKkKCktRWFREYovXkRJWRnKystRWlaG6upqVNXUoLq6GrW1tTAajVBVFaqqQqfTQafTwUmng6ur65Vnont5eFz5eyNv7wZ5/68avR7fLV+OZatXc7aWnWCAkFV079wZ/3z+efj7+souxWqMRiNyz59HWkYG0jMzkZuXh3Pnz+NcXh4KCgutepGci7MzAv39ERQYiKDLXwMC0DIkBM2Dg+v1Q7NOp6Vh9vz5OJ2WJruUBo8BQhbl6uKCp//8Z4wdMUJ2KRZVVV2N5JQUnE5Lw9mMDKSlp+NsZiaqa2pkl3YDZ2dnhIaEICw0FGGtWiGsVSu0ad0arvXo3JPBYMCPP/+MJcuWcW9EIgYIWUyH9u0x+YUX0Cw4WHYpdVZSWopjyck4euIEjp08iVOpqQ59tbRWq0X7sDBERUYiqkMHdIyIgLubm+yy6uzkqVOYMXcuzuXlyS6lQWKAUJ1pNBo8/tBDeGTCBGg0GtnlCDEYDDiWnIz4Awdw4MgRpNfzaxA0Gg3ahIaia6dO6NuzJyLatXPYf7uy8nLMXbgQO/bskV1Kg8MAoTpp7O2Nqa++iq6dOskuxWxl5eU4cPgw9iYkYN+hQygrL5ddkjSNvb3Rp2dP9O3ZE92johxyqvWvW7Zg/qJFdnlYsb5igJCwjuHhmPbaa/Br0kR2KSarrq7Grn37sHnHDhw+etShD0tZi7OzM3p17Yphgwahd7du0Ol0sksyWXpmJqbPns3pvjbCACEh948Zg6cfe8whZvuoqoqjJ05gU2wsdsbHo6KyUnZJDsPbywsx/ftj+ODBaNu6texyTFJRWYn3P/kE8QkJskup9xggZBZ3NzdM+sc/0L9PH9ml3FFhURHWbdqETbGxPMlqAa1CQjBy6FCMGDIEHu7ussu5LVVV8dUPP+D7lStll1KvMUDIZIH+/pg5bRpaNm8uu5TbSklNxap167B9924++c4K3FxdMWLIEIy/5x67vxlm7O7d+OjTT3lexEoYIGSS8LZt8e4bb8DHTq+ANhqNiD9wACvXrUPSiROyy2kQFEVBn+7dcd+996KLHU+iSElNxVuzZiEvP192KfUOA4TuqH+fPvi/F1+0y5k5BoMBW+Pi8N3y5cg5d052OQ1W+zZt8PjDD6NX166yS7mpwqIi/N+77yI1PV12KfUKA4Ru66Fx4/DUY49BsbN/SKPRiB179uDrH39EVk6O7HLokg7t2uHxhx9G986dZZdyg7Lycrz5wQc4yj1Ui2GA0E1pNBq8/MwzGDV0qOxSrqGqKuL27sU3P/7IBw7ZsY7h4Xji4Yft7tBWTU0N3ps7l089tBAGCN1Ap9PhzVdfRb/evWWXco3jycn4dNEipKSmyi6FTBTdowee+8tf7Opku8FgwCeff44NW7fKLsXhmbONvzzhX9c6ImKaqR0wQByLs7Mz3pk8GX169JBdyhUFRUX49xdfYMFXX6GwqEh2OWSGrJwcrN20CZVVVejQrh2cnJxklwSNRoO+PXtCX1uLYydPyi7H4TFACADg6uqKmVOnoltUlOxSAAB6vR4r1q7FO7Nn49SZM7LLIUFGoxHHk5Oxcds2eHt7I6xVK7s4p9YtKgq1BgOOMkTqhAFC8HB3x4f/+hc6RkTILgUAcDAxEdNmzkQsr+WoNyqrqrBn/34cPnoUHcPD4e3lJbskdO3UCTV6PY4lJ8suxWExQBq4Rt7e+Ojtt9G+TRvZpaCyshKfLlqEBV99hZKyMtnlkBXk5efj161b4ezsjIi2baXvjXSLikJlVRVO/P677FXjkHgSvQHz9PDA3PfeQ2iLFrJLweGjRzF7/nycv3BBdilkIxFt2+Kf//iHXdzdYMHixVi1fr1V+9BoNPD39UVQYCCCAwLg7+eHRl5e8L70x9PDA05OTlcea6woCi6WlqKoqAiFxcUoLCpCVm4usrKzkZWbi/KKCqnrjLOwrMDTwwMBfn5o3KgRvDw94e3lBTdXV7i4uMDVxQW6S78YGkWBCqBWr4e+thbVNTUoKCxEfmHhla+lVvwU7urqio/eegsR7dpJXV+VVVX48ptv8MvGjVLrIDmcdDo88cgjeHDsWOl7I//58kv88ttvFmnL1cUFEe3aISw0FG1atULrVq3Qsnlzi96ANL+wEKfOnEFySgp+P30aySkpNg0VBogg3yZNENaqFVq1aIEgf38EXvoT4O9v0Se91dTUIL+wENm5ucjKzUV2Ts4fX3Nzcf7CBeHHeTrpdJg5bZr053gknz6NGR9/jNzz56XWQfL17NIFk198EY0l3i5HVVW8O2cOdsbHm/1enU6HqA4d0LVTJ3Tu2BHtWre2+a3wDQYDTp05g4OJiTiYlITjyclWfeQvA8QEQQEBiAwPR5tWra48Z7qRt7fssqDX65GRnY3Tqak4ffYszqSl4czZs3f8BKLRaPDWpEno16uX1Pp//vVXLPz6a54kpyt8fXww5ZVX0DkyUloNNXo9Xp8+3aQpvq6urujdrRv69eqF3t27291diktKS7F7/37s3LMHh6zw/BsGyE0E+vujc8eO6BwZiS4dOyLQ3192SWY5l5eH30+fxrHkZBxPTsbptLRrPoX834svYujAgdLqq6isxOz584U+5VH9p9Fo8KcHHsDE+++X9pjd0rIyvDRlCjKys2/6esfwcIyIicHAvn3h5uoqc3WZrKS0FFvj4vDr5s1Iy8iwSJsMEPzxC9spIgJ39emD6B49EBQQILski6qqrkZySgpO/P47/Hx9MXzQIGm1nDl7Fu/Mno3s3FzZq4XsXLeoKLz52mvw8vSU0v/5vDy88MYbKCwuBgC4ODtjZEwMxo4ciZBmzWSvnjpJTknBL7/9hq1xcXXaK2mwAeLk5ITuUVFXQsMeDknVd1t27sScBQug1+tll0IOonlwMN6bMgXNmzaV0n9Kaiqmf/QRhg8ahLGjRqGRHVy7Ykn5BQVYuW4d1m/eLPSkzgYXIO3DwjBy6FAMvusuuzteWZ8tWbYM3y1fLrsMckCeHh54a9Ik6RM+6rOy8nL8tGYNVq1bh6rqapPf1yACxNvTE0MHDsSImBi0btlSdjkNSo1ej9nz52NbXJzsUsiBaTQavPDUUxh9992yS6nXioqLsXTFCqzdtMmkQ1v1OkBat2yJB8eNw8DoaLu4iVtDc7GkBP+aNQvHeZsIspD7R4/GM48/Lv16kfouIysL8/77Xxw+evS2y9XLAOkWFYWHxo2zy4faNBSZ2dmYMmMGr+8gi7t78GC8+txzFr0gj24udvdufPbVVyi4xV2w602AKIqCwXfdhQfHjkWb0FDbdEo3lXr2LF6fPh3FJSWyS6F6qn+fPpjy8ss8smADZeXl+HTRImzZseOG1+pFgET36IEnJ060i/s5NXTJp0/jjXffteotWIgAoEeXLnj79dfh6uIiu5QGYfe+fZi7cOE1HwwdOkCiOnTAXx97DJHt21uvEzLZ0RMnMHXmTKHpgEQiIsPDMXPqVM6otJGCoiK89/HHV54r75BPJGzRrBkmv/QSnnz0UQT4+Vl7nZEJDiYmYurMmWZNASSqqwv5+Th28iQG3XWXze871RC5u7lh2MCB0Ov1VybHOEyAuLq44IlHHsHkF190+CtB65P9hw/jX++/jxpeIEgS5OXnIzklBQP79eOJdRvQaDTo3rkzQlu2xK59+6Gqpt2sUWqA9OvVCzOmTkXv7t2l3R+HbnT05Em8OXMmw4Okyj1/Hmnp6RgQHc3tg420bN4cWo32jlN9L5PyrxLg74+ZU6di+uTJPFxlZ06npWHazJmorqmRXQoR9hw4gFnz5ln19uV0rWbBQSYva/MDjMMHD8bzTz7JE2R2KDMnB//3zjvSn4hGdLVtcXHwdHfHi3/7m+xS6Do2C5DG3t545bnnpD+vgm4uLz8fk3mdB9mpXzZuRLOmTXHfvffKLoWuYpMA6durF1599lmpTyWjWystK8Pkd95BXn6+7FKIbmnhkiVoGhSE6B49ZJdCl1j1HIhWq8U//vpXvDN5MsPDThkMBrwzezYyb/GQHSJ7oaoqZsydi9SzZ2WXQpdYbQ/Er0kT/GvSJHRo1072GOk25i9aZPKMCyLZqqqqMHXmTMyfNQtNfHxkl3OD6upqnM3MxPkLF5CXn4/8ggIUXbyImpoaVFVXo0avh5uLC7y9vdHIywtNGjdGi+bN0SokBAH+/g53Q0mrBEjXTp0w9ZVX6u1eh6qqKK+oQElpKUrLylBaVobyigoYjUYYjUaoqgqjqgL449yPn68v/H19pT2F7VbWbNiAXzZulF0GkVkuFBTgrVmzMPe996RfaHguLw8JR47g6IkTSElLQ1ZOjvCMMVdXV0S0bYsuHTuiS6dOCG/Txu6vgbH42n9o3Dg8+eijdj/wOzEajcjMycHZjAzknDuHnHPnkHv+PHLOn0d+QYHQL4mLszP8fH3h16QJgoOCENK0KUKaNUOrkBAEBwba9NPHwcREzF+82JarlMhiTqak4ItvvsHfn3zS5n2npKZiy44diE9IQM65cxZrt6qqCoePHv3jiMAPP8Db0xP9o6MxpH9/dIqIsMtrYSwWIBqNBq8+9xxGDBkie0xC8vLzkXTiBE6dPo1Tqak4nZaGqiqTbg9msuqaGmTn5iI7NxeJx49f85q7mxvCQkPRPiwMkeHh6BgeDp/Gja0y1szsbLwzezbn1pNDW7V+PTpHRqJf795W76u0rAzrN2/Gpu3bkWGj84Ull/pcv3kzAvz8MH7UKIwcOhSeHh426d8UFrmZorubG96aNMmhntVRVl6OxGPHcDApCYcSE5GVmyu7pBs0Dw5Gjy5d0KNrV3SOjISbq2ud2ywqLsYLb7yBc3l5sodHVGce7u74fM4cBAUEWKX9c3l5WLl2LTZs3WoX94Rzc3XFPcOG4ZEJE9DI29sqfezYswfvzplj0rJ1DhB/X1/MmDrVIR4rW1Jail379iF2924cOXbMoT6BOzs7o2eXLhgQHY3onj3h7uZmdhuVlZV45c03cTotTfZwiCymfVgYPpkxw6LPEblYWorvfvoJv2zcaNJjYG3Nw90dD40bh/vuvRcuFr71vc0CJLRFC7z/5pvwa9LEZivOXNXV1Yjdswexu3bhYFKSQ4XGrTg7O6N/nz4YGRODzpGRJp07MRgMmDpzJhKOHJFdPpHFjRkxAi8+/XSd2zEYDFi1bh2+W7HCIe7IEODvj9eee86iR3+279qFGXPnmrTs5S2Pc8yECSbtn10OkDahoZj11lto5OVl85VmioysLKzdtAmbtm93iF8EUcGBgYgZMADDBg5Es+DgWy734bx52BQbK7tcIqt5+ZlncO/w4cLvT8/MxIfz5uH3M2dkD8VsI2Ni8Mzjj1vk/MiGLVsw57PPTFr2coBoYyZMqDXlDaoKRLRriw/efNOuTub8UZuK+IQErFy79oaT1A1BRNu2GDpoEAb163dNsC9auhQ/rFoluzwiq9JoNPjwX/9Cl06dzHqf0WjET2vW4Otly6CvNWkzaJeCAwPx9uuvI6xVqzq1s2LtWixcssSkZS8HiBIzYYLJx3aWffmlXR22MhqN2LFnD75fuRJpGRmyy5FOq9WiV9euGDZoEPILC7GA03WpgfDy9MSnH3xw273xq+WcO4dZ8+ZdeZCSo3N2dsbLzzyD4YMGCbcxf9EirP71V5OWvTyNV1VVVVVMvBChsKjILgLEaDRi686dWLpihV3OopLFYDAgPiEB8QkJskshsqnSsjJMe/99zHv//TseIVm/eTM+W7LE4tP1ZaqpqcGH8+YhKycHTz76qFAb6VlZJi975ToQRVFU/G+P5LZOnTmDdmFhUlfUkWPHsHDJEs4oIqJrZGZn472PP8aMKVNuekFzUXEx5ixYgL0HD8ou1Wq+X7kSF0tK8NLf/mbWBYhGoxEpqakmL39l7bYOD58MRTFpHpybmxsGREdLWTGZOTmYM38+Fi1disLiYik1EJF9yzl3DuXl5ejVrds1P4/buxdvvPcezjSAGzKmpKYiMycHd/XubfJdLlJSU7F6/XqT+7iyB6ICWQpg0p0PDyYmora21qb3odHr9Vi6ciV+WLXKLudlE5F9Wf3rr2gZEoJ7hw9HeUUFPv3vf7F5xw7ZZdlU7O7d8HB3xyvPPmvS8nv27ze5bScnJ/XKHkiriIhgRVH6m/LG6poatG/bFiFNm9pkJZw4dQpTZsxA3N69UC/dpJCI6E4OHDkCV2dnfPjppzh68qTscqRISU1FdU3NHa8VUVUVH82fb/JlD21atTJeCRCf0NCjrjrdP009kV5ZVYUh/U3KG2HV1dX4/Jtv8MnChbjIJ+URkZlUVcXBxMR6fS2YKY4nJyMwIABtQkNvuczehASs27TJ5DbDQkPPXzm7cnjDhgsAakx9896EBKtOmU3PzMTzkydj9fr13OsgIqqjTz7/HL+fPn3L179dvtys9pycnD6/5vS8Amwxp4HFS5daZaAbtm7F319/HWczM63SPhFRQ6PX6/H2hx+irLz8hte279qFU2ZcgR8cGKi+M3ny9GsCpMJgeBmAyR/34xMSLDoVrqq6GjM/+QRzFixAdY3JO0NERGSCCwUFmPfll9f8rKy8HAu++sqsdkKaNs0Ernsm+p41a8717t7drONFcy10fiK/oACvTJuGbXFxVlp1RES0NS4OO+Pjr3w/Z8ECFJlxSYRWq1UNRuNTwHUBoihK2d2DB5t1TX9BYSE++Pe/6zS19tSZM3h+8mSzLmAhIiIx//niC5SVl2P5L78gbu9es94b1aFD5YdvvbUZuC5AAGBAdPSTUR06mNXggSNH8J/rdotMtTM+Hi9Pm4aCoiKbrTwiooasuKQEM+bOxedff23W+zQajRrStOkrV76/fgFFUfYNHTjwmLkFrd+8GfMXLzZrxtSGrVvx7pw5qOH5DiIim1FV4MDhw2a/LyqiQ8VLzzzzxeXvb3qTlFFDh97Tt3dvs+fOrl6/HjPmzkW1CY9+XLV+PeYsWMApukRENnSzx5KbwtPDQ23RvNnoq3920wBRFCVj1ODB81wFHpUYu3s3np88Gem3mYK7dMUK3mKciMiGVFU8PACgb69eJ1565pntV//slk2pqqpd9N13uT+sXu0v0plOp8MDY8Zg4v334+og+n7lSiz+/nspK5CIqKG5+iCPaHh0aN++9j8zZ3ooinLN+YZb3g1RURSDqqpdUjMyMvcdPGj6/YAvqa2txQ+rVmHDli24b/RojL77bmyLi2N4EBHZgCWCAwB8fXzU7lFR464PD8CE53/E7dv3yMKvvlp6Li+vDiX88ZQ8g8FwZVB1GRAREd3o+lPKdd3OXjqS9P1Tjz028Wavm9T8qvXr3/9u+fLJF0tKLLbZ57lzIiLLs9SHc0VR8MCYMQefefzxHrdcxtTGlq1evfTb5csfrU+PfyQiopu7f/TojGefeKLVpafV3pTJ5zYeHj9+4vhRo7739PDgvgMRUT2lKAoeGjcu+9knnmh/u/AAzNgDuWzp8uUfrdm48bWCwkKexSAiqkecnJzUPz3wwLFH77uvm6IotXda3uzZVRMfeGDSsIEDJ7Zv08Yoe7BERGQhKmofHDv2q0fvu6+zKeEBCOyBXJaYmBjwy5Ytx2J37xa6ToSIiOyDqqo5peXlfQ5s2mTWQ5jqfBhq7mefLUw6efJvGVlZPKRFRORYDEaDOn/7mtUvibzZIhv9zZs3N9qblLT7YGJih9KyMgYJEZEdU/+4CeEBpaRkzNatW8+LtmPRjf3bH3zQYse+fXM1ijIWgFb2SiIiov9RVVVVgH1VtbVP7V679nhd2/t/+E3n30LBQTEAAAAldEVYdGRhdGU6Y3JlYXRlADIwMjAtMDQtMDNUMDc6Mjc6MTArMDA6MDDHVXucAAAAJXRFWHRkYXRlOm1vZGlmeQAyMDIwLTA0LTAzVDA3OjI3OjEwKzAwOjAwtgjDIAAAAABJRU5ErkJggg==;strokeWidth=102;spacingTop=-3;spacingBottom=-3;spacingLeft=-3;spacingRight=-3;labelBackgroundColor=none;rounded=0;html=1;whiteSpace=wrap;movable=1;resizable=1;rotatable=1;deletable=1;editable=1;connectable=1;direction=east;container=0;" parent="igetMSzc9jm7YL5A2QUc-1" vertex="1">
          <mxGeometry x="90" y="377" width="95" height="95" as="geometry" />
        </mxCell>
        <mxCell id="NgNpdInfa0BptzFKrMyR-0" value="" style="image;aspect=fixed;html=1;points=[];align=center;fontSize=12;image=img/lib/azure2/security/Azure_Sentinel.svg;" parent="igetMSzc9jm7YL5A2QUc-1" vertex="1">
          <mxGeometry x="850" y="569" width="56.00000000000001" height="68" as="geometry" />
        </mxCell>
        <mxCell id="kwQ4lod3LPj0MxNfvOPQ-2" value="" style="image;aspect=fixed;html=1;points=[];align=center;fontSize=12;image=img/lib/azure2/management_governance/Log_Analytics_Workspaces.svg;" parent="igetMSzc9jm7YL5A2QUc-1" vertex="1">
          <mxGeometry x="848" y="405.25" width="43" height="43" as="geometry" />
        </mxCell>
        <mxCell id="kwQ4lod3LPj0MxNfvOPQ-4" value="" style="shape=image;verticalLabelPosition=bottom;labelBackgroundColor=default;verticalAlign=top;aspect=fixed;imageAspect=0;image=data:image/png,iVBORw0KGgoAAAANSUhEUgAAADcAAAAxCAYAAAB+gjFbAAAAAXNSR0IArs4c6QAAAARnQU1BAACxjwv8YQUAAAAJcEhZcwAAFiUAABYlAUlSJPAAAAepSURBVGhD7Znbb1TXFcZ/+5w548G3sXGMbWzjS8TNwQIBIm0EEaUpvaiqEGmplD5VVV+q9h/o3xGpT5X60lakagJqUjUpJa2pEFRFQaGYGNsY4xgwvs/YczmXvfpwZs6cudr0qYP4pPXgPec7a39nr73W2ttqenpaeEGhwuI2HUjYgquhnhQbQKMFLVGFZRTGA3EpF8bmPG4/0yTs+hIXUdDfqjjdbzIcV0RyAgNxtxY0vxxzeLCu0fWkLAdDwc+OWLwzYtLVqPyx/I/3VzRrWalLYQBaYH5Dk8gWxgJxGc9/oJ5ha/BCGkLb78XDS3H1ipfi6hUvxdUrXmhxQft1eQo+nNYk7fqt5Cd6DM7vVQzG/b8Dcde+jHLtkcWmU8KoIxzq9Di9x6anWUNY3I3HMa492kHK8ZvOesRrnTan+tN0NXnwou+5F1pczbCMGNDeaNDYoKgVrFkXljc0dq4lb4gouloNjFokIG0La2kh6/o8Q0FLTNG2w0DV4GqBxaQm4woSyn+lYVlTXFeLwbEBi91xs7ozgfWMcHPGZnbFwzRguCPCqb1RzC3iYm7V47M5h4WEnwBaY4pDuy1GeiLV/QFaw40Zh/vPXJzQGee5xI32Wpw9GGVPuxmMVcJaWvh4PMv1BzaWqfja/ijfGWmoOUGA8acun9zLMrPkT6a3zeStA1GO9lulj5bhyhc2f5vIkgqVrlJxhW9bobwZyretoAAjtEr5O4znhaHYcrXzCPurhuARAUT8a4a8CeKPb9O0gH5OTsAT0BV+q2U6zBWK9l+xOAFXpMg8XU6oBEHwdJ7j87YDEQJenqu3ydW64DPgi/9h8witnASEvG1kNOtpTSKjSdawREZIZrTvzBNWU96WnGRGs5nVOF7BX9rRrG3Ln2YtU8z1tCAi/pLmUGi/5qJcfdjAZiihxCKKvbssOptrp+aNrHD3ic1GVlBAc8zgWP/W2XJ502Nm2WM97S+XZSp2x01efWWLbCnw+bzNaqr4GvLwLoczgzY9zSXZcuxRlCsl4uoNR3Y5vDVUEBd8W42g8eM2bIKAqm1SgafFA5yaJrho0c/NA6eM54k///CuC1bu01mLj2eibNiFlWuMKka6LXrjJkaVOBFgLe0X4/VMrhtHcyj+L0Zab2Iqt5QS4HF6mLuJEyxmewFoMNIMN99lNH6diKp+PLGlgetL32Uh048nhRp8tNvlm0M2vS0lp4KrsxZ/eWCRDIk73Bvl3Ggjwx2Rqu2XACspzaXPU/xjOgOAqTx+0P8uF/reJWqEroBL8O/VM7w393PGE8cBGGz6gu/3/YrTnZdyb64GxcW5X/DB/E/ZcHOHN+B4t8e3hgviCmEZpPGCWQZETYVlKiJVzAp+99N63gw8LMOuaaZyEPGzrM+xiRkbWEa27NliyxI1Un5ohnzqqqVAKIvh5ynHUhr/2yiQIrmPGnDyLcDWENFF3Eo+izoUr0xgqYTqpilw3VynsxXKE5H/ru1A8JuOUnFhfcVhKcVhaXuCu41ZivjPhrnbWYFg5XIcRxs4euumGcDWETxdvBX8j1PwGySUPz8wuXTfJGEXXtDdYnJyaAcDO2sUVfETytXJNA9X/QxnoHmz8xNO7fprzaw3mRxhbPEsj1LDALRZq7zeMcZXOz5Fqep9mBaTDx9f4M76UWzdEIy/sVtzbp/HnlZfYCDuo2mD9yeKxUUM/+DYaBl+618JAo4nLKe84LAK0G6tEI+uYNRYwZTXxJq9k4yOAWAqTUtknfboUlV3AIJiIdND2mvE74l8vNGrOb9fM1Aq7k9TBn+cUKxna732/xsn+4S392sG4yXiLk8q/jBhFP1nssHMMNT0gFcaFjGqhImgSDotTCb3s+k2A6CU0N84y57G2ao8gOVsB3OpARKOX6sihkN37CkDTTOYym+hKsGVCPcSr7Fut6Gl0MCe7BMuHJBycZfuKy5OKNZD4g623uPt/vc40DpedZIiioVsNxdn3+Hm8lcgF17f6/2Ac33vYxmhOC/B7dWjXP7yPBPJ/QD0xJ7w7d0fcabrCkYNcZ5E+P3sj/j7wtdJeTuC8Tf7hB8eFIZydT2S/0GTzzyFsOyOzXG47RajbXeCsUpYyHRzY/F1ri/64lCartg8R9pv0VCjQ0k4zewwk8H5r8Va4VD8Nsd33ix9tAyfrRxhbOEkni6IKz2wFp3n/BqlA1O4VVesGAJ4IW55Qa2EfOOQ54l4GDV60TAUbtl8S32G6lxJzci3M1vPESq0byI5zTUg+cL/P/kDr6T98qq3X6Xdgl9Udc2k7EMEXG0Ucbc1ScldF+Q4rlZ4oQRRC54YuLq4o/LvfQooWjlXwNV+V+Jq4Wmmg6nkIFPJYaaSQ9VtY4j59K6A52hYstuY3hgsfzZk8+kuNr1YwFtzmplKDjK5hb/J5DAzG31kPbNovl61a4bf3dP85o5mNbT/myIpDrf/h77GJ1WLsQBrdis3l46xlkvpCmEkPsFI/D5mjT37ON3F+Po+lrIdAEQNm1ebH3Ko7R6mquyP3Kr9c/EEzzKdRee5bwwofjxqsLfdj7ZA3G/HNb++4xWJqzecHTT4yajBvpy4ssY5vMz1Zrpk0xXtXk/7G7xerTSQ/wuuJ2bTGQ190AAAAABJRU5ErkJggg==;" parent="igetMSzc9jm7YL5A2QUc-1" vertex="1">
          <mxGeometry x="842" y="462.25" width="55" height="49" as="geometry" />
        </mxCell>
        <mxCell id="v-rwaHu9YMq9_R5s2i5p-1" style="edgeStyle=orthogonalEdgeStyle;rounded=0;orthogonalLoop=1;jettySize=auto;html=1;exitX=1;exitY=0.5;exitDx=0;exitDy=0;strokeColor=#3333FF;" parent="igetMSzc9jm7YL5A2QUc-1" source="kwQ4lod3LPj0MxNfvOPQ-5" edge="1">
          <mxGeometry relative="1" as="geometry">
            <mxPoint x="840" y="425.5454545454545" as="targetPoint" />
            <Array as="points">
              <mxPoint x="765" y="425" />
            </Array>
          </mxGeometry>
        </mxCell>
        <mxCell id="kwQ4lod3LPj0MxNfvOPQ-5" value="" style="rounded=1;whiteSpace=wrap;html=1;strokeColor=#666666;fillColor=#f5f5f5;fontColor=#333333;" parent="igetMSzc9jm7YL5A2QUc-1" vertex="1">
          <mxGeometry x="380" y="190" width="310" height="470" as="geometry" />
        </mxCell>
        <mxCell id="kwQ4lod3LPj0MxNfvOPQ-6" value="" style="rounded=1;whiteSpace=wrap;html=1;strokeColor=#3333FF;" parent="igetMSzc9jm7YL5A2QUc-1" vertex="1">
          <mxGeometry x="430" y="239.5" width="210" height="111" as="geometry" />
        </mxCell>
        <mxCell id="kwQ4lod3LPj0MxNfvOPQ-7" value="" style="rounded=1;whiteSpace=wrap;html=1;strokeColor=#3333FF;" parent="igetMSzc9jm7YL5A2QUc-1" vertex="1">
          <mxGeometry x="430" y="458" width="210" height="111" as="geometry" />
        </mxCell>
        <mxCell id="igetMSzc9jm7YL5A2QUc-98" value="&lt;font style=&quot;font-size: 18px;&quot;&gt;Azure Monitor Agent (AMA)&lt;/font&gt;" style="text;html=1;strokeColor=none;fillColor=none;align=center;verticalAlign=middle;whiteSpace=wrap;rounded=0;fontSize=13;movable=1;resizable=1;rotatable=1;deletable=1;editable=1;connectable=1;direction=east;container=0;" parent="igetMSzc9jm7YL5A2QUc-1" vertex="1">
          <mxGeometry x="450" y="478.5" width="170" height="70" as="geometry" />
        </mxCell>
        <mxCell id="kwQ4lod3LPj0MxNfvOPQ-8" value="" style="image;sketch=0;aspect=fixed;html=1;points=[];align=center;fontSize=12;image=img/lib/mscae/VM_Linux.svg;" parent="igetMSzc9jm7YL5A2QUc-1" vertex="1">
          <mxGeometry x="410" y="600" width="50" height="46" as="geometry" />
        </mxCell>
        <mxCell id="kwQ4lod3LPj0MxNfvOPQ-9" value="&lt;font style=&quot;font-size: 18px;&quot;&gt;Log Forwarder (Linux VM)&lt;/font&gt;" style="text;html=1;strokeColor=none;fillColor=none;align=center;verticalAlign=middle;whiteSpace=wrap;rounded=0;fontSize=13;movable=1;resizable=1;rotatable=1;deletable=1;editable=1;connectable=1;direction=east;container=0;" parent="igetMSzc9jm7YL5A2QUc-1" vertex="1">
          <mxGeometry x="470" y="590" width="170" height="70" as="geometry" />
        </mxCell>
        <mxCell id="kwQ4lod3LPj0MxNfvOPQ-10" value="&lt;font style=&quot;font-size: 18px;&quot;&gt;Fortigate VM&lt;/font&gt;" style="text;html=1;strokeColor=none;fillColor=none;align=center;verticalAlign=middle;whiteSpace=wrap;rounded=0;fontSize=13;movable=1;resizable=1;rotatable=1;deletable=1;editable=1;connectable=1;direction=east;container=0;" parent="igetMSzc9jm7YL5A2QUc-1" vertex="1">
          <mxGeometry x="52.5" y="451" width="170" height="70" as="geometry" />
        </mxCell>
        <mxCell id="kwQ4lod3LPj0MxNfvOPQ-12" style="edgeStyle=orthogonalEdgeStyle;rounded=0;orthogonalLoop=1;jettySize=auto;html=1;entryX=0.5;entryY=0;entryDx=0;entryDy=0;strokeColor=#3333FF;" parent="igetMSzc9jm7YL5A2QUc-1" target="kwQ4lod3LPj0MxNfvOPQ-7" edge="1">
          <mxGeometry relative="1" as="geometry">
            <mxPoint x="535" y="350" as="sourcePoint" />
          </mxGeometry>
        </mxCell>
        <mxCell id="kwQ4lod3LPj0MxNfvOPQ-11" value="&lt;font style=&quot;font-size: 18px;&quot;&gt;Syslog daemon (rsyslog/syslog-ng)&lt;/font&gt;" style="text;html=1;strokeColor=none;fillColor=none;align=center;verticalAlign=middle;whiteSpace=wrap;rounded=0;fontSize=13;movable=1;resizable=1;rotatable=1;deletable=1;editable=1;connectable=1;direction=east;container=0;" parent="igetMSzc9jm7YL5A2QUc-1" vertex="1">
          <mxGeometry x="450" y="260" width="170" height="70" as="geometry" />
        </mxCell>
        <mxCell id="kwQ4lod3LPj0MxNfvOPQ-13" value="&lt;font style=&quot;font-size: 18px;&quot;&gt;TCP 28330&lt;/font&gt;" style="text;html=1;strokeColor=none;fillColor=none;align=center;verticalAlign=middle;whiteSpace=wrap;rounded=0;fontSize=13;movable=1;resizable=1;rotatable=1;deletable=1;editable=1;connectable=1;direction=east;container=0;" parent="igetMSzc9jm7YL5A2QUc-1" vertex="1">
          <mxGeometry x="420" y="380" width="120" height="44" as="geometry" />
        </mxCell>
        <mxCell id="kwQ4lod3LPj0MxNfvOPQ-15" value="&lt;font style=&quot;font-size: 18px;&quot;&gt;Microsoft Sentinel&lt;/font&gt;" style="text;html=1;strokeColor=none;fillColor=none;align=center;verticalAlign=middle;whiteSpace=wrap;rounded=0;fontSize=13;movable=1;resizable=1;rotatable=1;deletable=1;editable=1;connectable=1;direction=east;container=0;" parent="igetMSzc9jm7YL5A2QUc-1" vertex="1">
          <mxGeometry x="910" y="569" width="120" height="70" as="geometry" />
        </mxCell>
        <mxCell id="kwQ4lod3LPj0MxNfvOPQ-20" value="&lt;font style=&quot;font-size: 18px;&quot;&gt;TCP 443 (HTTPS)&lt;/font&gt;" style="text;html=1;strokeColor=none;fillColor=none;align=center;verticalAlign=middle;whiteSpace=wrap;rounded=0;fontSize=13;movable=1;resizable=1;rotatable=1;deletable=1;editable=1;connectable=1;direction=east;container=0;" parent="igetMSzc9jm7YL5A2QUc-1" vertex="1">
          <mxGeometry x="700" y="369" width="120" height="44" as="geometry" />
        </mxCell>
        <mxCell id="v-rwaHu9YMq9_R5s2i5p-0" value="" style="rounded=1;whiteSpace=wrap;html=1;strokeColor=#3333FF;" parent="igetMSzc9jm7YL5A2QUc-1" vertex="1">
          <mxGeometry x="838" y="400" width="192" height="129.5" as="geometry" />
        </mxCell>
        <mxCell id="kwQ4lod3LPj0MxNfvOPQ-21" value="&lt;font style=&quot;font-size: 18px;&quot;&gt;TCP/UDP 514&lt;/font&gt;" style="text;html=1;strokeColor=none;fillColor=none;align=center;verticalAlign=middle;whiteSpace=wrap;rounded=0;fontSize=13;movable=1;resizable=1;rotatable=1;deletable=1;editable=1;connectable=1;direction=east;container=0;" parent="igetMSzc9jm7YL5A2QUc-1" vertex="1">
          <mxGeometry x="210" y="377" width="120" height="44" as="geometry" />
        </mxCell>
        <mxCell id="kwQ4lod3LPj0MxNfvOPQ-22" value="&lt;font style=&quot;font-size: 18px;&quot;&gt;CEF/Facility local7&lt;/font&gt;" style="text;html=1;strokeColor=none;fillColor=none;align=center;verticalAlign=middle;whiteSpace=wrap;rounded=0;fontSize=13;movable=1;resizable=1;rotatable=1;deletable=1;editable=1;connectable=1;direction=east;container=0;" parent="igetMSzc9jm7YL5A2QUc-1" vertex="1">
          <mxGeometry x="210" y="437" width="120" height="44" as="geometry" />
        </mxCell>
        <mxCell id="kwQ4lod3LPj0MxNfvOPQ-24" value="" style="rounded=1;whiteSpace=wrap;html=1;strokeColor=#3333FF;" parent="igetMSzc9jm7YL5A2QUc-1" vertex="1">
          <mxGeometry x="850" y="239.5" width="170" height="120.5" as="geometry" />
        </mxCell>
        <mxCell id="kwQ4lod3LPj0MxNfvOPQ-25" value="&lt;font style=&quot;font-size: 12px;&quot;&gt;Data Collection Rule DCR&lt;/font&gt;" style="text;html=1;strokeColor=none;fillColor=none;align=center;verticalAlign=middle;whiteSpace=wrap;rounded=0;fontSize=13;movable=1;resizable=1;rotatable=1;deletable=1;editable=1;connectable=1;direction=east;container=0;" parent="igetMSzc9jm7YL5A2QUc-1" vertex="1">
          <mxGeometry x="875" y="247.5" width="120" height="44" as="geometry" />
        </mxCell>
        <mxCell id="kwQ4lod3LPj0MxNfvOPQ-26" value="" style="shape=image;verticalLabelPosition=bottom;labelBackgroundColor=default;verticalAlign=top;aspect=fixed;imageAspect=0;image=data:image/png,iVBORw0KGgoAAAANSUhEUgAAADcAAAAxCAYAAAB+gjFbAAAAAXNSR0IArs4c6QAAAARnQU1BAACxjwv8YQUAAAAJcEhZcwAAFiUAABYlAUlSJPAAAAepSURBVGhD7Znbb1TXFcZ/+5w548G3sXGMbWzjS8TNwQIBIm0EEaUpvaiqEGmplD5VVV+q9h/o3xGpT5X60lakagJqUjUpJa2pEFRFQaGYGNsY4xgwvs/YczmXvfpwZs6cudr0qYP4pPXgPec7a39nr73W2ttqenpaeEGhwuI2HUjYgquhnhQbQKMFLVGFZRTGA3EpF8bmPG4/0yTs+hIXUdDfqjjdbzIcV0RyAgNxtxY0vxxzeLCu0fWkLAdDwc+OWLwzYtLVqPyx/I/3VzRrWalLYQBaYH5Dk8gWxgJxGc9/oJ5ha/BCGkLb78XDS3H1ipfi6hUvxdUrXmhxQft1eQo+nNYk7fqt5Cd6DM7vVQzG/b8Dcde+jHLtkcWmU8KoIxzq9Di9x6anWUNY3I3HMa492kHK8ZvOesRrnTan+tN0NXnwou+5F1pczbCMGNDeaNDYoKgVrFkXljc0dq4lb4gouloNjFokIG0La2kh6/o8Q0FLTNG2w0DV4GqBxaQm4woSyn+lYVlTXFeLwbEBi91xs7ozgfWMcHPGZnbFwzRguCPCqb1RzC3iYm7V47M5h4WEnwBaY4pDuy1GeiLV/QFaw40Zh/vPXJzQGee5xI32Wpw9GGVPuxmMVcJaWvh4PMv1BzaWqfja/ijfGWmoOUGA8acun9zLMrPkT6a3zeStA1GO9lulj5bhyhc2f5vIkgqVrlJxhW9bobwZyretoAAjtEr5O4znhaHYcrXzCPurhuARAUT8a4a8CeKPb9O0gH5OTsAT0BV+q2U6zBWK9l+xOAFXpMg8XU6oBEHwdJ7j87YDEQJenqu3ydW64DPgi/9h8witnASEvG1kNOtpTSKjSdawREZIZrTvzBNWU96WnGRGs5nVOF7BX9rRrG3Ln2YtU8z1tCAi/pLmUGi/5qJcfdjAZiihxCKKvbssOptrp+aNrHD3ic1GVlBAc8zgWP/W2XJ502Nm2WM97S+XZSp2x01efWWLbCnw+bzNaqr4GvLwLoczgzY9zSXZcuxRlCsl4uoNR3Y5vDVUEBd8W42g8eM2bIKAqm1SgafFA5yaJrho0c/NA6eM54k///CuC1bu01mLj2eibNiFlWuMKka6LXrjJkaVOBFgLe0X4/VMrhtHcyj+L0Zab2Iqt5QS4HF6mLuJEyxmewFoMNIMN99lNH6diKp+PLGlgetL32Uh048nhRp8tNvlm0M2vS0lp4KrsxZ/eWCRDIk73Bvl3Ggjwx2Rqu2XACspzaXPU/xjOgOAqTx+0P8uF/reJWqEroBL8O/VM7w393PGE8cBGGz6gu/3/YrTnZdyb64GxcW5X/DB/E/ZcHOHN+B4t8e3hgviCmEZpPGCWQZETYVlKiJVzAp+99N63gw8LMOuaaZyEPGzrM+xiRkbWEa27NliyxI1Un5ohnzqqqVAKIvh5ynHUhr/2yiQIrmPGnDyLcDWENFF3Eo+izoUr0xgqYTqpilw3VynsxXKE5H/ru1A8JuOUnFhfcVhKcVhaXuCu41ZivjPhrnbWYFg5XIcRxs4euumGcDWETxdvBX8j1PwGySUPz8wuXTfJGEXXtDdYnJyaAcDO2sUVfETytXJNA9X/QxnoHmz8xNO7fprzaw3mRxhbPEsj1LDALRZq7zeMcZXOz5Fqep9mBaTDx9f4M76UWzdEIy/sVtzbp/HnlZfYCDuo2mD9yeKxUUM/+DYaBl+618JAo4nLKe84LAK0G6tEI+uYNRYwZTXxJq9k4yOAWAqTUtknfboUlV3AIJiIdND2mvE74l8vNGrOb9fM1Aq7k9TBn+cUKxna732/xsn+4S392sG4yXiLk8q/jBhFP1nssHMMNT0gFcaFjGqhImgSDotTCb3s+k2A6CU0N84y57G2ao8gOVsB3OpARKOX6sihkN37CkDTTOYym+hKsGVCPcSr7Fut6Gl0MCe7BMuHJBycZfuKy5OKNZD4g623uPt/vc40DpedZIiioVsNxdn3+Hm8lcgF17f6/2Ac33vYxmhOC/B7dWjXP7yPBPJ/QD0xJ7w7d0fcabrCkYNcZ5E+P3sj/j7wtdJeTuC8Tf7hB8eFIZydT2S/0GTzzyFsOyOzXG47RajbXeCsUpYyHRzY/F1ri/64lCartg8R9pv0VCjQ0k4zewwk8H5r8Va4VD8Nsd33ix9tAyfrRxhbOEkni6IKz2wFp3n/BqlA1O4VVesGAJ4IW55Qa2EfOOQ54l4GDV60TAUbtl8S32G6lxJzci3M1vPESq0byI5zTUg+cL/P/kDr6T98qq3X6Xdgl9Udc2k7EMEXG0Ucbc1ScldF+Q4rlZ4oQRRC54YuLq4o/LvfQooWjlXwNV+V+Jq4Wmmg6nkIFPJYaaSQ9VtY4j59K6A52hYstuY3hgsfzZk8+kuNr1YwFtzmplKDjK5hb/J5DAzG31kPbNovl61a4bf3dP85o5mNbT/myIpDrf/h77GJ1WLsQBrdis3l46xlkvpCmEkPsFI/D5mjT37ON3F+Po+lrIdAEQNm1ebH3Ko7R6mquyP3Kr9c/EEzzKdRee5bwwofjxqsLfdj7ZA3G/HNb++4xWJqzecHTT4yajBvpy4ssY5vMz1Zrpk0xXtXk/7G7xerTSQ/wuuJ2bTGQ190AAAAABJRU5ErkJggg==;" parent="igetMSzc9jm7YL5A2QUc-1" vertex="1">
          <mxGeometry x="842" y="463.75" width="55" height="49" as="geometry" />
        </mxCell>
        <mxCell id="kwQ4lod3LPj0MxNfvOPQ-27" value="" style="image;aspect=fixed;html=1;points=[];align=center;fontSize=12;image=img/lib/azure2/management_governance/Log_Analytics_Workspaces.svg;" parent="igetMSzc9jm7YL5A2QUc-1" vertex="1">
          <mxGeometry x="848" y="406.75" width="43" height="43" as="geometry" />
        </mxCell>
        <mxCell id="kwQ4lod3LPj0MxNfvOPQ-31" value="&lt;font style=&quot;font-size: 12px;&quot;&gt;Resource: linux vm&lt;br&gt;Collect:&amp;nbsp; Log_local7&lt;br&gt;&lt;/font&gt;" style="text;html=1;strokeColor=none;fillColor=none;align=center;verticalAlign=middle;whiteSpace=wrap;rounded=0;fontSize=13;movable=1;resizable=1;rotatable=1;deletable=1;editable=1;connectable=1;direction=east;container=0;" parent="igetMSzc9jm7YL5A2QUc-1" vertex="1">
          <mxGeometry x="873" y="300" width="120" height="44" as="geometry" />
        </mxCell>
        <mxCell id="kwQ4lod3LPj0MxNfvOPQ-16" value="&lt;font style=&quot;font-size: 12px;&quot;&gt;Log Analytics Workspace&lt;/font&gt;" style="text;html=1;strokeColor=none;fillColor=none;align=center;verticalAlign=middle;whiteSpace=wrap;rounded=0;fontSize=13;movable=1;resizable=1;rotatable=1;deletable=1;editable=1;connectable=1;direction=east;container=0;" parent="igetMSzc9jm7YL5A2QUc-1" vertex="1">
          <mxGeometry x="900" y="405.25" width="120" height="44" as="geometry" />
        </mxCell>
        <mxCell id="kwQ4lod3LPj0MxNfvOPQ-14" value="&lt;font style=&quot;font-size: 12px;&quot;&gt;CommonSecurityLog&lt;/font&gt;" style="text;html=1;strokeColor=none;fillColor=none;align=center;verticalAlign=middle;whiteSpace=wrap;rounded=0;fontSize=13;movable=1;resizable=1;rotatable=1;deletable=1;editable=1;connectable=1;direction=east;container=0;" parent="igetMSzc9jm7YL5A2QUc-1" vertex="1">
          <mxGeometry x="900" y="464.75" width="120" height="44" as="geometry" />
        </mxCell>
      </root>
    </mxGraphModel>
  </diagram>
  <diagram id="bWQwcSm58oLuLMhZAvGH" name="FAZ-Fluentbit">
    <mxGraphModel dx="794" dy="511" grid="1" gridSize="10" guides="1" tooltips="1" connect="1" arrows="1" fold="1" page="1" pageScale="1" pageWidth="850" pageHeight="1100" math="0" shadow="0">
      <root>
        <mxCell id="0" />
        <mxCell id="1" parent="0" />
        <mxCell id="uy5vqwSy2B66AsNLwfR5-1" value="" style="rounded=1;whiteSpace=wrap;html=1;sketch=0;fontSize=10;strokeColor=#007fff;fillColor=#FFFFFF;gradientColor=none;gradientDirection=south;absoluteArcSize=1;arcSize=4;fontFamily=Helvetica;" parent="1" vertex="1">
          <mxGeometry x="40" y="280" width="1640" height="520" as="geometry" />
        </mxCell>
        <mxCell id="uy5vqwSy2B66AsNLwfR5-2" value="" style="rounded=1;whiteSpace=wrap;html=1;fillColor=#f5f5f5;fontColor=#333333;strokeColor=#666666;" parent="1" vertex="1">
          <mxGeometry x="1230" y="370" width="430" height="330" as="geometry" />
        </mxCell>
        <mxCell id="uy5vqwSy2B66AsNLwfR5-3" style="vsdxID=7;fillColor=#ffffff;gradientColor=none;fillOpacity=0;strokeOpacity=0;shape=stencil(pZPRDoIgFIafhlt35Cy1y2b2Hi4xWSYOteztg7EMNXVMrg7w/4fv3zgE46ZIa0YoNK0Ud/biWVsQPBNKeVUwyVtVEUwIxrmQ7CZFV2VmX6daqauHeOoOvfGBdlB427uLEZa8soToReGy9tpJ09Uf1MHRXl+vP3q2pxtyOpbjjAVnMHDaZj94QbQHX/lD+xrd4izZF+ONef8kBKd44JQGnOBhF/nqp5pgwyomrGJN/4uqfxOS87I0AzagqGI6UerITCMmHw==);spacingTop=-3;spacingBottom=-3;spacingLeft=-3;spacingRight=-3;labelBackgroundColor=none;rounded=0;html=1;whiteSpace=wrap;" parent="1" vertex="1">
          <mxGeometry x="573.5" y="120" width="918" height="626" as="geometry" />
        </mxCell>
        <mxCell id="3wEUneV0il8rES8RZ6Q2-15" style="edgeStyle=orthogonalEdgeStyle;rounded=0;orthogonalLoop=1;jettySize=auto;html=1;exitX=1;exitY=0.5;exitDx=0;exitDy=0;entryX=0;entryY=0.5;entryDx=0;entryDy=0;" parent="1" source="uy5vqwSy2B66AsNLwfR5-5" target="3wEUneV0il8rES8RZ6Q2-1" edge="1">
          <mxGeometry relative="1" as="geometry" />
        </mxCell>
        <mxCell id="uy5vqwSy2B66AsNLwfR5-5" style="vsdxID=46;fillColor=none;gradientColor=none;image;aspect=fixed;image=data:image/png,iVBORw0KGgoAAAANSUhEUgAAAZAAAAGNCAYAAAA/9yeJAAAABGdBTUEAALGPC/xhBQAAACBjSFJNAAB6JgAAgIQAAPoAAACA6AAAdTAAAOpgAAA6mAAAF3CculE8AAAABmJLR0QA/wD/AP+gvaeTAAAACXBIWXMAAA7DAAAOwwHHb6hkAAAAB3RJTUUH5AQDBxsK6pjOGwAALOxJREFUeNrt3Xd4VFX+BvD3zkx6gZAOBAihJARCLwGpAQSUahd3dV1ddV37Ij8BV1FBURB3EURdEAuK0kRApAcChBJKQosEEtIhpJGeTGbu7w+BpTNzMjNnJnk/z8MTkrlzzvdcwn3n3nvuvQrk0nbv3l1TVVWlVLdooTSvrFQk10NE5DCy3NzURnl5Ri8vLzU2NrbW1v3baoOtxIwZ00nV6YZAVftCRXdVQYgCxcnWAyYiqp9UFSouqKoxSdFo9hlVdUtWdXX86Q0bqq3VozUDRIkZO/Yuo6I8oSjKA4DideUF7mcQEVmNql76ClWvAlsVVf1vXkrK2uPHj9dYsh+Lb8qjhg/38Hd3f1YFJkHRBAIMDCIiWS6HiaKgXAUW6oE5catW5VqibYtt2qOGD/fw9/R8STUap0DReDA0iIjsyx9hotaqqvpFrUbzXl2DxCKb+Zhx48YZgcWKovFhcBAR2TdVBRSoNVDV17f+/POnAAwi7dRpc99/5Eh/nYvrMkVRhjA4iIgci6oCqoLT0OvHbV+79ri57xfe7A8aP/4ujaKsg4pGDA8iIsd0+bAWVPXpbT//vMSc9wpt+gePHfuiotF8oiiMDiKi+kBVAVU1/qAWF//Z1GtKzA6AmLFjP1Q12kmMDiKi+uXS3sjuynPnhsXHx1feaXmzYmDg+PFfa6H8meFBRFQ/qSqgQk1Wi4p6xsbGlt1uWY2pjQ4YN24uw4OIqH5TFECBEq5p7LMnMjLS+XbLak1pMGbcuJc0iuZtS4bH5YtbiIjIMiy1jf6jHSXQ3df3rrPJyd8CuOkW+47dDRw/PloL7LbECfOrQ4N7MkRElnX9B/O6bmcvHc76z/bVq1+62eu3bf6ue+7xcXZxyVQAD0sMiKFBRGQbltr2qqqqAhi6bfXqbde/dttzIE7Ozr9CrXt4KArDg4jIlq7e7tbllMGlo0+/9ho/3vf6124ZIP0mTBijQOkjsuH/Yz4xg4OISLbL2+HL22XBVlw8gBXX//SmJ9HbjBzp4uvktF9R4Hznhq919V4HERHZh6u3yeZuny8t3zKkXbvt6b//nn755zfdAwlxcZ0pcuiK4UFEZL/qckhLURRFp9X+fPXPbgiQyMhIZ0VRXjA3BBgeRET27+pDWgLv9hkwZszEy9/dECB+YWHTAJj1qFmGBxGR4zE3RBQF0Gm08y5/f0OAaLXa18wJAoYHEZHjET6cpSg+g0aNGgFcFyCDRo/uAyjuooUQEZHjEAkRRQE0zi5zgOsCRNHp5orsfRARkWMS2QFQNEp499Gj3a8NEKCHLTonIiL7Ys4OgapC46nTPX8lQHrFxLQDFJ01OiMiIvslcl2IFnjqSoB4eHm9LnhxCRER1QNm7RgoSqjmf39X7rZKJ0REZPfM3iFQ4fS/AAH8rdoZERHVG4py1SwsFebf94qIiOoXc44wXQ4Q3jeXiKiBMzcFNKJvJCKihu1ygJj0bHTgf8/5ICKihu2qQ1hERESm01z3lYiIyCQMDiIiEsIAISIiIQwQIiISwgAhIiIhDBAiIhLCACEiIiEMECIiEsIAISIiIQwQIiISwgAhIiIhDBAiIhLCACEiIiEMECIiEsIAISIiIQwQIiISwgAhIiIhDBAiIhLCACEiIiEMECIiEsIAISIiIQwQIiISwgAhIiIhDBAiIhLCACEiIiEMECIiEsIAISIiIQwQIiISwgAhIiIhDBAiIhLCACEiIiEMECIiEsIAISIiITrZBZB1ebi7I9DfH+5ublABlJWXI/f8edTU1MguzS45OzsjKCAAnh4e0Gg0qKysxLm8PJRXVMguzS5pNBoEBQTA28sLzk5OqKyqwoX8fBSXlMgujWyAAVLPaLVa9OzaFQOjo9G5Y0cE+PndsIzRaMTZjAwcOHIEW3buRFp6uuyypYoMD8fgfv3QNSoKLZo1g6IoNyyTe/48DiUlYfuuXThy7JjskqUKadYMMf37o0eXLmjbujW0Wu0NyxRfvIgjx45hx5492JuQAH1treyyyQou/09xiZkwocqUN6gqcJP/XySZRqPBPcOG4ZEJE24aGrdzKCkJi7//HskpKbKHYVN9evTAEw8/jDahoWa972xGBr7+8UfE7d0rewg21SY0FE8++ih6detm1vsKioqwbNUqrPntNxiNRtnDoDswZxvPAKkHmgcHY+qrr6Jt69bCbaiqijUbNuDzr7+u958WvTw98c+//x39eveuUzv7Dx3Ch59+iuKLF2UPyaq0Wi2emjgR940eDY1G/LRpano63v/kE6RlZMgeEt2GOdv4y/ueutYREdNM7YABYj+6RUXho+nTERQQUKd2FEVBeNu26NWtG3bv24eq6mrZQ7OK5sHB+GTGDHRo377ObTULDkbMgAE4nJSEouJi2UOzCg93d3zw5psY3L//TQ/tmcOncWPcPXgwMrKykJGdLXtodBsMkAagW1QUZkyZAlcXF4u16dukCaJ79cKO3bvrXYgEBwbi3zNnwt/X12Jturu5YUj//jiYmIjCoiLZQ7QoV1dXzJk+3SJhe5lOp8OA6Ghk5ebiLPdE7Jap23hO43VQTYOC8NakSXBycrJ42yFNm+K9qVOh09WfORaurq6YOW0afBo1snjbHu7umDltGvyaNJE9TIua8vLLaBcWZvF2NRoNJr/wAjpGRMgeItURA8QBKYqCN156CR7u7lbrI7xNGzz9pz/JHqrF/P0vf0FI06ZWa9+nUSNMfeUV2cO0mHuGDUPfnj2t1r5Op8O0V16x6u8wWR8DxAHdPXgwItq1s3o/40eNMnuGkj1qFxaGkTExVu+nU4cONunH2jw9PPDXiROt3o+fr69N+iHrYYA4GEVR8Oh999mkL41Gg7888ojsIdfZxPvvr/MJYFP9+aGHHP7Q37iRI+Ht5WWTvu4ZNqzOE0BIHgaIg+nRuTOaBgXZrL/e3bujeXCw7GEL823SxKqHYq7n7+uLAdHRsoddJ/cOH26zvrRaLcaOGCF7yCSIAeJgBvTta/M+YwYMkD1sYQP69LHZ3sdlQx14fUWGh8PPgrPUTOHIv18NHQPEwXSOjLR5n927dJE9bGGdO3a0eZ9RkZEOexiri4T11cTHB6EtW8oeOglggDgQN1dXmx6+uqxNaKjNP8VbSlirVjbv09XFBS2aNZM9dCEy1hcAtLfCdGGyPgaIA5F1stHZycmiF9/ZiqIoZt8XzFKaOeh5o0B/fyn9yvhgRHXHAHEg7hLnzHt4eMgevtlcXFxueqdYW3DE9QVA2nUZjrq+GjoGiAOReVzdyQGP6cus2RHXFyDvd8zZQddXQ8cAISIiIQwQIiISwgAhIiIhDBAiIhLCACEiIiEMECIiEsIAISIiIQwQIiISwgAhIiIhDBAiIhLCACEiIiEMECIiEsIAISIiIQwQIiISwgAhIiIhDBAiIhLCACEiIiEMECIiEsIAISIiIQwQIiISwgAhIiIhDBAiIhLCACEiIiEMECIiEsIAISIiIQwQIiISwgAhIiIhDBAiIhLCACEiIiEMECIiEsIAISIiIQwQIiISwgAhIiIhDBAiIhLCACEiIiEMECIiEsIAISIiIQwQIiISwgAhIiIhDBAiIhLCACEiIiEMECIiEsIAISIiIQwQIiISwgAhIiIhDBAiIhLCACEiIiEMECIiEsIAISIiIQwQIiISwgAhIiIhDBAiIhLCACEiIiEMECIiEsIAISIiIQwQIiISwgAhIiIhDBAiIhLCACEiIiEMECIiEsIAISIiIQwQIiISwgAhIiIhDBAiIhLCACEiIiEMECIiEsIAISIiIQwQIiISwgAhIiIhDBAiIhLCACEiIiEMECIiEsIAISIiIQwQIiISwgAhIiIhDBAiIhLCACEiIiEMECIiEsIAISIiIQwQIiISwgAhIiIhDBAiIhLCACEiIiEMECIiEsIAISIiIQwQIiISwgAhIiIhDBAiIhLCACEiIiEMECIiEsIAISIiIQwQIiISwgAhIiIhDBAiIhLCACEiIiEMECIiEsIAISIiIQwQIiISwgAhIiIhDBAiIhLCACEiIiEMECIiEsIAISIiIQwQIiISwgAhIiIhDBAiIhLCACEiIiEMECIiEsIAISIiIQwQIiISwgAhIiIhDBAiIhLCACEiIiEMECIiEsIAISIiIQwQIiISwgAhIiIhDBAiIhLCACEiIiEMECIiEsIAISIiIQwQIiISwgAhIiIhDBAiIhLCACEiIiEMECIiEsIAISIiIQwQIiISwgAhIiIhDBAiIhLCACEiIiEMECIiEsIAISIiIQwQIiISwgAhIiIhDBAiIhLCACEiIiEMECIiEsIAISIiIQwQIiISwgAhIiIhDBAiIhLCACEiIiEMECIiEsIAISIiIQwQIiISwgAhIiIhDBAiIhLCACEiIiEMECIiEsIAISIiIQwQIiISwgAhIiIhDBAiIhLCACEiIiEMECIiEsIAISIiIQwQIiISwgAhIiIhDBAiIhLCACEiIiEMECIiEsIAISIiIQwQIiISwgAhIiIhDBAiIhLCACEiIiEMECIiEsIAISIiIQwQIiISwgAhIiIhDBAiIhLCACEiIiEMECIiEsIAISIiIQwQIiISwgBxJKoqsWt5fTtizY64vmTi2nJMDBAHUl1TI6/v6mrZwze/Zq4vh6m7qqpK9tBJAAPEgVwsKZHWd/HFi7KHbza9Xo9KSRsmR1xfAFBSWiql32KJv9skjgHiQM5fuIDa2lqb93uxpAQlZWWyhy8kOzdXSr8Z2dmyhy4kS9b6ysqSPXQSwABxIEajEadSU23e79GTJ2UPXVhySorN+7xQUIDzFy7IHrqQk6dOSen3WHKy7KGTAAaIg0k4fNjmfcYfOCB72MIOcH2ZJSEx0eYTAE6eOuWwh/waOgaIg9kWF2fT/+AVlZXYGR8ve9jC9h86hFIbH377bds22cMWlnfhgs33Bhx5fTV0DBAHk5Wbi32HDtmsvzUbNkg7EW0J+tparN240Wb9HUpKwqkzZ2QPu05Wrl1rs74KioqwKTZW9pBJEAPEAS1euhRGo9Hq/RQWFWHZ6tWyh1tnP61Zg4s2mF1kMBiwcMkS2cOts1379tnsXMiX334LvV4ve8gkiAHigFLT07HCBp8SP164EOUVFbKHW2dl5eVYsGiR1fv5fuVKpKanyx6uRcxduBA1Vt6wxx84gC07dsgeKtUBA8RBLf7+exyz4uyo75Yvx96EBNnDtJitcXFYv3mz1drfe/AgvvnpJ9nDtJjU9HTMt2LoZmRlYda8ebKHSXWkvfRV1zoiYpqpb1IU2WWT0WjEnv370aNrVzRp3Niiba/+9Vd8+e23sodocfsPHUJoy5Zo0by5Rds9fPQo3p41C7UGg+whWlRKaiqMqoouHTtatN3s3Fy8Pn06Z17ZMVO38QwQB1ZdU4Ptu3ahbevWaBoUVOf2DAYD/rt0KZb88IPsoVmFqqrYGR8Pby8vhLdta5E2N27bhhlz51r9cI8sSSdOoPjiRXTv3BkaTd0PWCQdP4433n0XhcXFsodGt8EAaSD0ej22xsWhoqICke3bw8nJSaidtIwMvP3hh4jdvVv2kKxKVVXsP3QIqenp6BgeDnd3d6F2ioqL8fFnn2HpypU2mdAg0+9nzmD/4cNoFxYGXx8foTaqq6vx9Y8/Yu7ChQ49q6+hMHUbf3kxl5gJE0z6V1VVBoi9atyoER4YPRp3DxmCxo0amfSeM2fPYsUvv2BrXFy93xBez9XFBfcMG4axI0eavAeXl5+PX377zeGnN4tQFAUD+/bF/WPGILxNG5PeU1Zejo3bt+Onn39GQVGR7CGQCczZxjNA6iGNRoMuHTuic2QkQlu2RJC/P9zc3KCqKsorKpCdm4vk06eRcPgwzmZmyi7XLrQPC0PXqCi0CQ1F06AgeHp4QKvRoLyyEufy8nA6NRWHkpJw/Pffeat2AM2Cg9G9c2eEt22LZsHB8PbygrOTE6qqqnChoABp6ek4cuwYDiUlQS/h/m0kjgFCRERCzNnGcxovEREJYYAQEZEQBggREQlhgBARkRAGCBERCWGAEBGREAYIEREJYYAQEZEQBggREQlhgBARkRAGCBERCWGAEBGREAYIEREJYYAQEZEQBggREQlhgBARkRAGCBERCWGAEBGREAYIEREJYYAQEZEQnewCiByZk5MTXF1coNVq4aTTQafTQVEUqKoKo9EIFYBer0dNTQ2qa2pQW1sru2Qii2GAEF1Fo9EgwM8P/n5+8Pf1hZ+vL/x8fNDI2xuNGzWCt5cXvL284O7mBnc3N2i1WrPaNxgMqKisRFl5OcrKy1FeUYHyS38vq6hAQVERLuTn//GnoAD5hYUwGAyyVwvRTTFAqEHy9PBAy5AQtAoJQcuQEDRv2hTNgoIQ6O8Pnc56/y20Wi28PD3h5elp0vKqqqKwuBgX8vORlZOD9KwspGdlISMzEznnz8NoNMpeldSAMUCo3vP08EBEu3ZoFxaGtq1bo23r1gj095ddlkkURYGvjw98fXwQ3rbtNa/V6PV/hEpmJk6dOYOTp07hVGoqampqZJdNDYRy6atLzIQJVaa8QVUBRTFlSSI5Avz80KVTJ3QKD0eH8HC0aNYMSgP5pTUYDEhNT8fJU6eu/MnKzZVdFjkQc7bxDBByeB7u7ugWFYUeXbqga6dOaBoUJLsku5KXn4+DiYk4mJiIQ0lJKCktlV0S2TEGCNV7wYGB6B8djT7duiEyPNzsk9kNlaqqOJ2WhoOJidh/6BCOJSfzPApdgwFC9VJQQAAG9O2LQX37ol1YmOxy6oWiixexe98+7IyPx5FjxxgmxACh+iPQ3x8D+/XDwOhotG/TRnY59VpJaSl279+PuL17kXDkCMOkgWKAkEPT6XTo16sXRg0dim5RUQ3mBLg9KSouxqbYWPy2bRsys7Nll0M2xAAhh9QsOBijhg7F3YMHo3GjRrLLoUuOJydjw9atiN2zB1VVJm0myIExQMhhaDQaDIiOxr3Dh6NLx46yy6HbqKysxLZdu7By3TpkZGXJLoeshAFCds/Z2RkjhgzBA2PGIDgwUHY5ZAZVVXHg8GGsWLsWh5KSZJdDFsYAIbvl5emJsSNGYPw996CRt7fscqiOUs+exYq1a7Ft1y7eKLKeYICQ3fFr0gQPjh2LkUOHws3VVXY5ZGEFRUX4YeVKrN+8GXoGiUNjgJDd8Pb0xCMTJmDsyJFwdnaWXQ5Z2YWCAixdsQIbtm7lXYQdFAOEpHN1ccGEe+/Fg2PHwtPDQ3Y5ZGPn8vLw3fLl2BQby+tJHAwDhKTRarW4Z+hQPPbAA2ji4yO7HJIsOzcXn3/zDfbs3y+7FDIRA4Sk6NO9O/7+5JO8mSHd4FBSEhYsXoyzmZmyS6E7YICQTQX6++P5v/4VfXv2lF0K2TGDwYB1mzZhybJlKC0rk10O3QIDhGxCp9PhwbFjMfG+++Di4iK7HHIQJaWlWLJsGdZu3AhVVWWXQ9dhgJDVdYuKwgtPP42Qpk1ll0IO6sSpU5g9fz6varczDBCyGg93d7zw1FMYOnCg7FKkKCktRWFREYovXkRJWRnKystRWlaG6upqVNXUoLq6GrW1tTAajVBVFaqqQqfTQafTwUmng6ur65Vnont5eFz5eyNv7wZ5/68avR7fLV+OZatXc7aWnWCAkFV079wZ/3z+efj7+souxWqMRiNyz59HWkYG0jMzkZuXh3Pnz+NcXh4KCgutepGci7MzAv39ERQYiKDLXwMC0DIkBM2Dg+v1Q7NOp6Vh9vz5OJ2WJruUBo8BQhbl6uKCp//8Z4wdMUJ2KRZVVV2N5JQUnE5Lw9mMDKSlp+NsZiaqa2pkl3YDZ2dnhIaEICw0FGGtWiGsVSu0ad0arvXo3JPBYMCPP/+MJcuWcW9EIgYIWUyH9u0x+YUX0Cw4WHYpdVZSWopjyck4euIEjp08iVOpqQ59tbRWq0X7sDBERUYiqkMHdIyIgLubm+yy6uzkqVOYMXcuzuXlyS6lQWKAUJ1pNBo8/tBDeGTCBGg0GtnlCDEYDDiWnIz4Awdw4MgRpNfzaxA0Gg3ahIaia6dO6NuzJyLatXPYf7uy8nLMXbgQO/bskV1Kg8MAoTpp7O2Nqa++iq6dOskuxWxl5eU4cPgw9iYkYN+hQygrL5ddkjSNvb3Rp2dP9O3ZE92johxyqvWvW7Zg/qJFdnlYsb5igJCwjuHhmPbaa/Br0kR2KSarrq7Grn37sHnHDhw+etShD0tZi7OzM3p17Yphgwahd7du0Ol0sksyWXpmJqbPns3pvjbCACEh948Zg6cfe8whZvuoqoqjJ05gU2wsdsbHo6KyUnZJDsPbywsx/ftj+ODBaNu6texyTFJRWYn3P/kE8QkJskup9xggZBZ3NzdM+sc/0L9PH9ml3FFhURHWbdqETbGxPMlqAa1CQjBy6FCMGDIEHu7ussu5LVVV8dUPP+D7lStll1KvMUDIZIH+/pg5bRpaNm8uu5TbSklNxap167B9924++c4K3FxdMWLIEIy/5x67vxlm7O7d+OjTT3lexEoYIGSS8LZt8e4bb8DHTq+ANhqNiD9wACvXrUPSiROyy2kQFEVBn+7dcd+996KLHU+iSElNxVuzZiEvP192KfUOA4TuqH+fPvi/F1+0y5k5BoMBW+Pi8N3y5cg5d052OQ1W+zZt8PjDD6NX166yS7mpwqIi/N+77yI1PV12KfUKA4Ru66Fx4/DUY49BsbN/SKPRiB179uDrH39EVk6O7HLokg7t2uHxhx9G986dZZdyg7Lycrz5wQc4yj1Ui2GA0E1pNBq8/MwzGDV0qOxSrqGqKuL27sU3P/7IBw7ZsY7h4Xji4Yft7tBWTU0N3ps7l089tBAGCN1Ap9PhzVdfRb/evWWXco3jycn4dNEipKSmyi6FTBTdowee+8tf7Opku8FgwCeff44NW7fKLsXhmbONvzzhX9c6ImKaqR0wQByLs7Mz3pk8GX169JBdyhUFRUX49xdfYMFXX6GwqEh2OWSGrJwcrN20CZVVVejQrh2cnJxklwSNRoO+PXtCX1uLYydPyi7H4TFACADg6uqKmVOnoltUlOxSAAB6vR4r1q7FO7Nn49SZM7LLIUFGoxHHk5Oxcds2eHt7I6xVK7s4p9YtKgq1BgOOMkTqhAFC8HB3x4f/+hc6RkTILgUAcDAxEdNmzkQsr+WoNyqrqrBn/34cPnoUHcPD4e3lJbskdO3UCTV6PY4lJ8suxWExQBq4Rt7e+Ojtt9G+TRvZpaCyshKfLlqEBV99hZKyMtnlkBXk5efj161b4ezsjIi2baXvjXSLikJlVRVO/P677FXjkHgSvQHz9PDA3PfeQ2iLFrJLweGjRzF7/nycv3BBdilkIxFt2+Kf//iHXdzdYMHixVi1fr1V+9BoNPD39UVQYCCCAwLg7+eHRl5e8L70x9PDA05OTlcea6woCi6WlqKoqAiFxcUoLCpCVm4usrKzkZWbi/KKCqnrjLOwrMDTwwMBfn5o3KgRvDw94e3lBTdXV7i4uMDVxQW6S78YGkWBCqBWr4e+thbVNTUoKCxEfmHhla+lVvwU7urqio/eegsR7dpJXV+VVVX48ptv8MvGjVLrIDmcdDo88cgjeHDsWOl7I//58kv88ttvFmnL1cUFEe3aISw0FG1atULrVq3Qsnlzi96ANL+wEKfOnEFySgp+P30aySkpNg0VBogg3yZNENaqFVq1aIEgf38EXvoT4O9v0Se91dTUIL+wENm5ucjKzUV2Ts4fX3Nzcf7CBeHHeTrpdJg5bZr053gknz6NGR9/jNzz56XWQfL17NIFk198EY0l3i5HVVW8O2cOdsbHm/1enU6HqA4d0LVTJ3Tu2BHtWre2+a3wDQYDTp05g4OJiTiYlITjyclWfeQvA8QEQQEBiAwPR5tWra48Z7qRt7fssqDX65GRnY3Tqak4ffYszqSl4czZs3f8BKLRaPDWpEno16uX1Pp//vVXLPz6a54kpyt8fXww5ZVX0DkyUloNNXo9Xp8+3aQpvq6urujdrRv69eqF3t27291diktKS7F7/37s3LMHh6zw/BsGyE0E+vujc8eO6BwZiS4dOyLQ3192SWY5l5eH30+fxrHkZBxPTsbptLRrPoX834svYujAgdLqq6isxOz584U+5VH9p9Fo8KcHHsDE+++X9pjd0rIyvDRlCjKys2/6esfwcIyIicHAvn3h5uoqc3WZrKS0FFvj4vDr5s1Iy8iwSJsMEPzxC9spIgJ39emD6B49EBQQILski6qqrkZySgpO/P47/Hx9MXzQIGm1nDl7Fu/Mno3s3FzZq4XsXLeoKLz52mvw8vSU0v/5vDy88MYbKCwuBgC4ODtjZEwMxo4ciZBmzWSvnjpJTknBL7/9hq1xcXXaK2mwAeLk5ITuUVFXQsMeDknVd1t27sScBQug1+tll0IOonlwMN6bMgXNmzaV0n9Kaiqmf/QRhg8ahLGjRqGRHVy7Ykn5BQVYuW4d1m/eLPSkzgYXIO3DwjBy6FAMvusuuzteWZ8tWbYM3y1fLrsMckCeHh54a9Ik6RM+6rOy8nL8tGYNVq1bh6rqapPf1yACxNvTE0MHDsSImBi0btlSdjkNSo1ej9nz52NbXJzsUsiBaTQavPDUUxh9992yS6nXioqLsXTFCqzdtMmkQ1v1OkBat2yJB8eNw8DoaLu4iVtDc7GkBP+aNQvHeZsIspD7R4/GM48/Lv16kfouIysL8/77Xxw+evS2y9XLAOkWFYWHxo2zy4faNBSZ2dmYMmMGr+8gi7t78GC8+txzFr0gj24udvdufPbVVyi4xV2w602AKIqCwXfdhQfHjkWb0FDbdEo3lXr2LF6fPh3FJSWyS6F6qn+fPpjy8ss8smADZeXl+HTRImzZseOG1+pFgET36IEnJ060i/s5NXTJp0/jjXffteotWIgAoEeXLnj79dfh6uIiu5QGYfe+fZi7cOE1HwwdOkCiOnTAXx97DJHt21uvEzLZ0RMnMHXmTKHpgEQiIsPDMXPqVM6otJGCoiK89/HHV54r75BPJGzRrBkmv/QSnnz0UQT4+Vl7nZEJDiYmYurMmWZNASSqqwv5+Th28iQG3XWXze871RC5u7lh2MCB0Ov1VybHOEyAuLq44IlHHsHkF190+CtB65P9hw/jX++/jxpeIEgS5OXnIzklBQP79eOJdRvQaDTo3rkzQlu2xK59+6Gqpt2sUWqA9OvVCzOmTkXv7t2l3R+HbnT05Em8OXMmw4Okyj1/Hmnp6RgQHc3tg420bN4cWo32jlN9L5PyrxLg74+ZU6di+uTJPFxlZ06npWHazJmorqmRXQoR9hw4gFnz5ln19uV0rWbBQSYva/MDjMMHD8bzTz7JE2R2KDMnB//3zjvSn4hGdLVtcXHwdHfHi3/7m+xS6Do2C5DG3t545bnnpD+vgm4uLz8fk3mdB9mpXzZuRLOmTXHfvffKLoWuYpMA6durF1599lmpTyWjWystK8Pkd95BXn6+7FKIbmnhkiVoGhSE6B49ZJdCl1j1HIhWq8U//vpXvDN5MsPDThkMBrwzezYyb/GQHSJ7oaoqZsydi9SzZ2WXQpdYbQ/Er0kT/GvSJHRo1072GOk25i9aZPKMCyLZqqqqMHXmTMyfNQtNfHxkl3OD6upqnM3MxPkLF5CXn4/8ggIUXbyImpoaVFVXo0avh5uLC7y9vdHIywtNGjdGi+bN0SokBAH+/g53Q0mrBEjXTp0w9ZVX6u1eh6qqKK+oQElpKUrLylBaVobyigoYjUYYjUaoqgqjqgL449yPn68v/H19pT2F7VbWbNiAXzZulF0GkVkuFBTgrVmzMPe996RfaHguLw8JR47g6IkTSElLQ1ZOjvCMMVdXV0S0bYsuHTuiS6dOCG/Txu6vgbH42n9o3Dg8+eijdj/wOzEajcjMycHZjAzknDuHnHPnkHv+PHLOn0d+QYHQL4mLszP8fH3h16QJgoOCENK0KUKaNUOrkBAEBwba9NPHwcREzF+82JarlMhiTqak4ItvvsHfn3zS5n2npKZiy44diE9IQM65cxZrt6qqCoePHv3jiMAPP8Db0xP9o6MxpH9/dIqIsMtrYSwWIBqNBq8+9xxGDBkie0xC8vLzkXTiBE6dPo1Tqak4nZaGqiqTbg9msuqaGmTn5iI7NxeJx49f85q7mxvCQkPRPiwMkeHh6BgeDp/Gja0y1szsbLwzezbn1pNDW7V+PTpHRqJf795W76u0rAzrN2/Gpu3bkWGj84Ull/pcv3kzAvz8MH7UKIwcOhSeHh426d8UFrmZorubG96aNMmhntVRVl6OxGPHcDApCYcSE5GVmyu7pBs0Dw5Gjy5d0KNrV3SOjISbq2ud2ywqLsYLb7yBc3l5sodHVGce7u74fM4cBAUEWKX9c3l5WLl2LTZs3WoX94Rzc3XFPcOG4ZEJE9DI29sqfezYswfvzplj0rJ1DhB/X1/MmDrVIR4rW1Jail379iF2924cOXbMoT6BOzs7o2eXLhgQHY3onj3h7uZmdhuVlZV45c03cTotTfZwiCymfVgYPpkxw6LPEblYWorvfvoJv2zcaNJjYG3Nw90dD40bh/vuvRcuFr71vc0CJLRFC7z/5pvwa9LEZivOXNXV1Yjdswexu3bhYFKSQ4XGrTg7O6N/nz4YGRODzpGRJp07MRgMmDpzJhKOHJFdPpHFjRkxAi8+/XSd2zEYDFi1bh2+W7HCIe7IEODvj9eee86iR3+279qFGXPnmrTs5S2Pc8yECSbtn10OkDahoZj11lto5OVl85VmioysLKzdtAmbtm93iF8EUcGBgYgZMADDBg5Es+DgWy734bx52BQbK7tcIqt5+ZlncO/w4cLvT8/MxIfz5uH3M2dkD8VsI2Ni8Mzjj1vk/MiGLVsw57PPTFr2coBoYyZMqDXlDaoKRLRriw/efNOuTub8UZuK+IQErFy79oaT1A1BRNu2GDpoEAb163dNsC9auhQ/rFoluzwiq9JoNPjwX/9Cl06dzHqf0WjET2vW4Otly6CvNWkzaJeCAwPx9uuvI6xVqzq1s2LtWixcssSkZS8HiBIzYYLJx3aWffmlXR22MhqN2LFnD75fuRJpGRmyy5FOq9WiV9euGDZoEPILC7GA03WpgfDy9MSnH3xw273xq+WcO4dZ8+ZdeZCSo3N2dsbLzzyD4YMGCbcxf9EirP71V5OWvTyNV1VVVVVMvBChsKjILgLEaDRi686dWLpihV3OopLFYDAgPiEB8QkJskshsqnSsjJMe/99zHv//TseIVm/eTM+W7LE4tP1ZaqpqcGH8+YhKycHTz76qFAb6VlZJi975ToQRVFU/G+P5LZOnTmDdmFhUlfUkWPHsHDJEs4oIqJrZGZn472PP8aMKVNuekFzUXEx5ixYgL0HD8ou1Wq+X7kSF0tK8NLf/mbWBYhGoxEpqakmL39l7bYOD58MRTFpHpybmxsGREdLWTGZOTmYM38+Fi1disLiYik1EJF9yzl3DuXl5ejVrds1P4/buxdvvPcezjSAGzKmpKYiMycHd/XubfJdLlJSU7F6/XqT+7iyB6ICWQpg0p0PDyYmora21qb3odHr9Vi6ciV+WLXKLudlE5F9Wf3rr2gZEoJ7hw9HeUUFPv3vf7F5xw7ZZdlU7O7d8HB3xyvPPmvS8nv27ze5bScnJ/XKHkiriIhgRVH6m/LG6poatG/bFiFNm9pkJZw4dQpTZsxA3N69UC/dpJCI6E4OHDkCV2dnfPjppzh68qTscqRISU1FdU3NHa8VUVUVH82fb/JlD21atTJeCRCf0NCjrjrdP009kV5ZVYUh/U3KG2HV1dX4/Jtv8MnChbjIJ+URkZlUVcXBxMR6fS2YKY4nJyMwIABtQkNvuczehASs27TJ5DbDQkPPXzm7cnjDhgsAakx9896EBKtOmU3PzMTzkydj9fr13OsgIqqjTz7/HL+fPn3L179dvtys9pycnD6/5vS8Amwxp4HFS5daZaAbtm7F319/HWczM63SPhFRQ6PX6/H2hx+irLz8hte279qFU2ZcgR8cGKi+M3ny9GsCpMJgeBmAyR/34xMSLDoVrqq6GjM/+QRzFixAdY3JO0NERGSCCwUFmPfll9f8rKy8HAu++sqsdkKaNs0Ernsm+p41a8717t7drONFcy10fiK/oACvTJuGbXFxVlp1RES0NS4OO+Pjr3w/Z8ECFJlxSYRWq1UNRuNTwHUBoihK2d2DB5t1TX9BYSE++Pe/6zS19tSZM3h+8mSzLmAhIiIx//niC5SVl2P5L78gbu9es94b1aFD5YdvvbUZuC5AAGBAdPSTUR06mNXggSNH8J/rdotMtTM+Hi9Pm4aCoiKbrTwiooasuKQEM+bOxedff23W+zQajRrStOkrV76/fgFFUfYNHTjwmLkFrd+8GfMXLzZrxtSGrVvx7pw5qOH5DiIim1FV4MDhw2a/LyqiQ8VLzzzzxeXvb3qTlFFDh97Tt3dvs+fOrl6/HjPmzkW1CY9+XLV+PeYsWMApukRENnSzx5KbwtPDQ23RvNnoq3920wBRFCVj1ODB81wFHpUYu3s3np88Gem3mYK7dMUK3mKciMiGVFU8PACgb69eJ1565pntV//slk2pqqpd9N13uT+sXu0v0plOp8MDY8Zg4v334+og+n7lSiz+/nspK5CIqKG5+iCPaHh0aN++9j8zZ3ooinLN+YZb3g1RURSDqqpdUjMyMvcdPGj6/YAvqa2txQ+rVmHDli24b/RojL77bmyLi2N4EBHZgCWCAwB8fXzU7lFR464PD8CE53/E7dv3yMKvvlp6Li+vDiX88ZQ8g8FwZVB1GRAREd3o+lPKdd3OXjqS9P1Tjz028Wavm9T8qvXr3/9u+fLJF0tKLLbZ57lzIiLLs9SHc0VR8MCYMQefefzxHrdcxtTGlq1evfTb5csfrU+PfyQiopu7f/TojGefeKLVpafV3pTJ5zYeHj9+4vhRo7739PDgvgMRUT2lKAoeGjcu+9knnmh/u/AAzNgDuWzp8uUfrdm48bWCwkKexSAiqkecnJzUPz3wwLFH77uvm6IotXda3uzZVRMfeGDSsIEDJ7Zv08Yoe7BERGQhKmofHDv2q0fvu6+zKeEBCOyBXJaYmBjwy5Ytx2J37xa6ToSIiOyDqqo5peXlfQ5s2mTWQ5jqfBhq7mefLUw6efJvGVlZPKRFRORYDEaDOn/7mtUvibzZIhv9zZs3N9qblLT7YGJih9KyMgYJEZEdU/+4CeEBpaRkzNatW8+LtmPRjf3bH3zQYse+fXM1ijIWgFb2SiIiov9RVVVVgH1VtbVP7V679nhd2/t/+E3n30LBQTEAAAAldEVYdGRhdGU6Y3JlYXRlADIwMjAtMDQtMDNUMDc6Mjc6MTArMDA6MDDHVXucAAAAJXRFWHRkYXRlOm1vZGlmeQAyMDIwLTA0LTAzVDA3OjI3OjEwKzAwOjAwtgjDIAAAAABJRU5ErkJggg==;strokeWidth=102;spacingTop=-3;spacingBottom=-3;spacingLeft=-3;spacingRight=-3;labelBackgroundColor=none;rounded=0;html=1;whiteSpace=wrap;movable=1;resizable=1;rotatable=1;deletable=1;editable=1;connectable=1;direction=east;container=0;" parent="1" vertex="1">
          <mxGeometry x="90" y="488" width="95" height="95" as="geometry" />
        </mxCell>
        <mxCell id="uy5vqwSy2B66AsNLwfR5-6" value="" style="image;aspect=fixed;html=1;points=[];align=center;fontSize=12;image=img/lib/azure2/security/Azure_Sentinel.svg;" parent="1" vertex="1">
          <mxGeometry x="1574" y="621.25" width="56.00000000000001" height="68" as="geometry" />
        </mxCell>
        <mxCell id="uy5vqwSy2B66AsNLwfR5-7" value="" style="image;aspect=fixed;html=1;points=[];align=center;fontSize=12;image=img/lib/azure2/management_governance/Log_Analytics_Workspaces.svg;" parent="1" vertex="1">
          <mxGeometry x="1470" y="473.75" width="43" height="43" as="geometry" />
        </mxCell>
        <mxCell id="uy5vqwSy2B66AsNLwfR5-8" value="" style="shape=image;verticalLabelPosition=bottom;labelBackgroundColor=default;verticalAlign=top;aspect=fixed;imageAspect=0;image=data:image/png,iVBORw0KGgoAAAANSUhEUgAAADcAAAAxCAYAAAB+gjFbAAAAAXNSR0IArs4c6QAAAARnQU1BAACxjwv8YQUAAAAJcEhZcwAAFiUAABYlAUlSJPAAAAepSURBVGhD7Znbb1TXFcZ/+5w548G3sXGMbWzjS8TNwQIBIm0EEaUpvaiqEGmplD5VVV+q9h/o3xGpT5X60lakagJqUjUpJa2pEFRFQaGYGNsY4xgwvs/YczmXvfpwZs6cudr0qYP4pPXgPec7a39nr73W2ttqenpaeEGhwuI2HUjYgquhnhQbQKMFLVGFZRTGA3EpF8bmPG4/0yTs+hIXUdDfqjjdbzIcV0RyAgNxtxY0vxxzeLCu0fWkLAdDwc+OWLwzYtLVqPyx/I/3VzRrWalLYQBaYH5Dk8gWxgJxGc9/oJ5ha/BCGkLb78XDS3H1ipfi6hUvxdUrXmhxQft1eQo+nNYk7fqt5Cd6DM7vVQzG/b8Dcde+jHLtkcWmU8KoIxzq9Di9x6anWUNY3I3HMa492kHK8ZvOesRrnTan+tN0NXnwou+5F1pczbCMGNDeaNDYoKgVrFkXljc0dq4lb4gouloNjFokIG0La2kh6/o8Q0FLTNG2w0DV4GqBxaQm4woSyn+lYVlTXFeLwbEBi91xs7ozgfWMcHPGZnbFwzRguCPCqb1RzC3iYm7V47M5h4WEnwBaY4pDuy1GeiLV/QFaw40Zh/vPXJzQGee5xI32Wpw9GGVPuxmMVcJaWvh4PMv1BzaWqfja/ijfGWmoOUGA8acun9zLMrPkT6a3zeStA1GO9lulj5bhyhc2f5vIkgqVrlJxhW9bobwZyretoAAjtEr5O4znhaHYcrXzCPurhuARAUT8a4a8CeKPb9O0gH5OTsAT0BV+q2U6zBWK9l+xOAFXpMg8XU6oBEHwdJ7j87YDEQJenqu3ydW64DPgi/9h8witnASEvG1kNOtpTSKjSdawREZIZrTvzBNWU96WnGRGs5nVOF7BX9rRrG3Ln2YtU8z1tCAi/pLmUGi/5qJcfdjAZiihxCKKvbssOptrp+aNrHD3ic1GVlBAc8zgWP/W2XJ502Nm2WM97S+XZSp2x01efWWLbCnw+bzNaqr4GvLwLoczgzY9zSXZcuxRlCsl4uoNR3Y5vDVUEBd8W42g8eM2bIKAqm1SgafFA5yaJrho0c/NA6eM54k///CuC1bu01mLj2eibNiFlWuMKka6LXrjJkaVOBFgLe0X4/VMrhtHcyj+L0Zab2Iqt5QS4HF6mLuJEyxmewFoMNIMN99lNH6diKp+PLGlgetL32Uh048nhRp8tNvlm0M2vS0lp4KrsxZ/eWCRDIk73Bvl3Ggjwx2Rqu2XACspzaXPU/xjOgOAqTx+0P8uF/reJWqEroBL8O/VM7w393PGE8cBGGz6gu/3/YrTnZdyb64GxcW5X/DB/E/ZcHOHN+B4t8e3hgviCmEZpPGCWQZETYVlKiJVzAp+99N63gw8LMOuaaZyEPGzrM+xiRkbWEa27NliyxI1Un5ohnzqqqVAKIvh5ynHUhr/2yiQIrmPGnDyLcDWENFF3Eo+izoUr0xgqYTqpilw3VynsxXKE5H/ru1A8JuOUnFhfcVhKcVhaXuCu41ZivjPhrnbWYFg5XIcRxs4euumGcDWETxdvBX8j1PwGySUPz8wuXTfJGEXXtDdYnJyaAcDO2sUVfETytXJNA9X/QxnoHmz8xNO7fprzaw3mRxhbPEsj1LDALRZq7zeMcZXOz5Fqep9mBaTDx9f4M76UWzdEIy/sVtzbp/HnlZfYCDuo2mD9yeKxUUM/+DYaBl+618JAo4nLKe84LAK0G6tEI+uYNRYwZTXxJq9k4yOAWAqTUtknfboUlV3AIJiIdND2mvE74l8vNGrOb9fM1Aq7k9TBn+cUKxna732/xsn+4S392sG4yXiLk8q/jBhFP1nssHMMNT0gFcaFjGqhImgSDotTCb3s+k2A6CU0N84y57G2ao8gOVsB3OpARKOX6sihkN37CkDTTOYym+hKsGVCPcSr7Fut6Gl0MCe7BMuHJBycZfuKy5OKNZD4g623uPt/vc40DpedZIiioVsNxdn3+Hm8lcgF17f6/2Ac33vYxmhOC/B7dWjXP7yPBPJ/QD0xJ7w7d0fcabrCkYNcZ5E+P3sj/j7wtdJeTuC8Tf7hB8eFIZydT2S/0GTzzyFsOyOzXG47RajbXeCsUpYyHRzY/F1ri/64lCartg8R9pv0VCjQ0k4zewwk8H5r8Va4VD8Nsd33ix9tAyfrRxhbOEkni6IKz2wFp3n/BqlA1O4VVesGAJ4IW55Qa2EfOOQ54l4GDV60TAUbtl8S32G6lxJzci3M1vPESq0byI5zTUg+cL/P/kDr6T98qq3X6Xdgl9Udc2k7EMEXG0Ucbc1ScldF+Q4rlZ4oQRRC54YuLq4o/LvfQooWjlXwNV+V+Jq4Wmmg6nkIFPJYaaSQ9VtY4j59K6A52hYstuY3hgsfzZk8+kuNr1YwFtzmplKDjK5hb/J5DAzG31kPbNovl61a4bf3dP85o5mNbT/myIpDrf/h77GJ1WLsQBrdis3l46xlkvpCmEkPsFI/D5mjT37ON3F+Po+lrIdAEQNm1ebH3Ko7R6mquyP3Kr9c/EEzzKdRee5bwwofjxqsLfdj7ZA3G/HNb++4xWJqzecHTT4yajBvpy4ssY5vMz1Zrpk0xXtXk/7G7xerTSQ/wuuJ2bTGQ190AAAAABJRU5ErkJggg==;" parent="1" vertex="1">
          <mxGeometry x="1464" y="530.75" width="55" height="49" as="geometry" />
        </mxCell>
        <mxCell id="3wEUneV0il8rES8RZ6Q2-4" style="edgeStyle=orthogonalEdgeStyle;rounded=0;orthogonalLoop=1;jettySize=auto;html=1;exitX=1;exitY=0.5;exitDx=0;exitDy=0;" parent="1" source="uy5vqwSy2B66AsNLwfR5-10" target="145Wcvj_1HI03ukp_G3T-4" edge="1">
          <mxGeometry relative="1" as="geometry" />
        </mxCell>
        <mxCell id="uy5vqwSy2B66AsNLwfR5-10" value="" style="rounded=1;whiteSpace=wrap;html=1;strokeColor=#666666;fillColor=#f5f5f5;fontColor=#333333;" parent="1" vertex="1">
          <mxGeometry x="640" y="425.5" width="310" height="220" as="geometry" />
        </mxCell>
        <mxCell id="uy5vqwSy2B66AsNLwfR5-11" value="" style="rounded=1;whiteSpace=wrap;html=1;strokeColor=#3333FF;" parent="1" vertex="1">
          <mxGeometry x="690" y="454.75" width="210" height="111" as="geometry" />
        </mxCell>
        <mxCell id="uy5vqwSy2B66AsNLwfR5-14" value="" style="image;sketch=0;aspect=fixed;html=1;points=[];align=center;fontSize=12;image=img/lib/mscae/VM_Linux.svg;" parent="1" vertex="1">
          <mxGeometry x="850" y="590.25" width="50" height="46" as="geometry" />
        </mxCell>
        <mxCell id="uy5vqwSy2B66AsNLwfR5-15" value="&lt;font style=&quot;font-size: 18px;&quot;&gt;&amp;nbsp;(Linux VM)&lt;/font&gt;" style="text;html=1;strokeColor=none;fillColor=none;align=center;verticalAlign=middle;whiteSpace=wrap;rounded=0;fontSize=13;movable=1;resizable=1;rotatable=1;deletable=1;editable=1;connectable=1;direction=east;container=0;" parent="1" vertex="1">
          <mxGeometry x="710" y="577.25" width="170" height="70" as="geometry" />
        </mxCell>
        <mxCell id="uy5vqwSy2B66AsNLwfR5-16" value="&lt;font style=&quot;font-size: 18px;&quot;&gt;FortiGate VM&lt;/font&gt;" style="text;html=1;strokeColor=none;fillColor=none;align=center;verticalAlign=middle;whiteSpace=wrap;rounded=0;fontSize=13;movable=1;resizable=1;rotatable=1;deletable=1;editable=1;connectable=1;direction=east;container=0;" parent="1" vertex="1">
          <mxGeometry x="52.5" y="577.25" width="170" height="70" as="geometry" />
        </mxCell>
        <mxCell id="uy5vqwSy2B66AsNLwfR5-18" value="&lt;font style=&quot;font-size: 18px;&quot;&gt;Fluent-Bit&lt;/font&gt;" style="text;html=1;strokeColor=none;fillColor=none;align=center;verticalAlign=middle;whiteSpace=wrap;rounded=0;fontSize=13;movable=1;resizable=1;rotatable=1;deletable=1;editable=1;connectable=1;direction=east;container=0;" parent="1" vertex="1">
          <mxGeometry x="710" y="475.25" width="170" height="70" as="geometry" />
        </mxCell>
        <mxCell id="uy5vqwSy2B66AsNLwfR5-20" value="&lt;font style=&quot;font-size: 18px;&quot;&gt;Microsoft Sentinel&lt;/font&gt;" style="text;html=1;strokeColor=none;fillColor=none;align=center;verticalAlign=middle;whiteSpace=wrap;rounded=0;fontSize=13;movable=1;resizable=1;rotatable=1;deletable=1;editable=1;connectable=1;direction=east;container=0;" parent="1" vertex="1">
          <mxGeometry x="1390" y="630" width="210" height="70" as="geometry" />
        </mxCell>
        <mxCell id="uy5vqwSy2B66AsNLwfR5-21" value="&lt;font style=&quot;font-size: 18px;&quot;&gt;TCP 443 (HTTPS)&lt;/font&gt;" style="text;html=1;strokeColor=none;fillColor=none;align=center;verticalAlign=middle;whiteSpace=wrap;rounded=0;fontSize=13;movable=1;resizable=1;rotatable=1;deletable=1;editable=1;connectable=1;direction=east;container=0;" parent="1" vertex="1">
          <mxGeometry x="940" y="486.75" width="120" height="44" as="geometry" />
        </mxCell>
        <mxCell id="uy5vqwSy2B66AsNLwfR5-22" value="" style="rounded=1;whiteSpace=wrap;html=1;strokeColor=#3333FF;" parent="1" vertex="1">
          <mxGeometry x="1460" y="468.5" width="192" height="129.5" as="geometry" />
        </mxCell>
        <mxCell id="uy5vqwSy2B66AsNLwfR5-23" value="&lt;font style=&quot;font-size: 18px;&quot;&gt;TCP/UDP 514&lt;/font&gt;" style="text;html=1;strokeColor=none;fillColor=none;align=center;verticalAlign=middle;whiteSpace=wrap;rounded=0;fontSize=13;movable=1;resizable=1;rotatable=1;deletable=1;editable=1;connectable=1;direction=east;container=0;" parent="1" vertex="1">
          <mxGeometry x="200" y="499.75" width="120" height="44" as="geometry" />
        </mxCell>
        <mxCell id="uy5vqwSy2B66AsNLwfR5-25" value="" style="rounded=1;whiteSpace=wrap;html=1;strokeColor=#3333FF;" parent="1" vertex="1">
          <mxGeometry x="1270" y="380" width="360" height="60" as="geometry" />
        </mxCell>
        <mxCell id="uy5vqwSy2B66AsNLwfR5-26" value="&lt;font style=&quot;font-size: 18px;&quot;&gt;Data Collection Rule DCR&lt;/font&gt;" style="text;html=1;strokeColor=none;fillColor=none;align=center;verticalAlign=middle;whiteSpace=wrap;rounded=0;fontSize=13;movable=1;resizable=1;rotatable=1;deletable=1;editable=1;connectable=1;direction=east;container=0;" parent="1" vertex="1">
          <mxGeometry x="1337.5" y="388" width="215" height="44" as="geometry" />
        </mxCell>
        <mxCell id="uy5vqwSy2B66AsNLwfR5-27" value="" style="shape=image;verticalLabelPosition=bottom;labelBackgroundColor=default;verticalAlign=top;aspect=fixed;imageAspect=0;image=data:image/png,iVBORw0KGgoAAAANSUhEUgAAADcAAAAxCAYAAAB+gjFbAAAAAXNSR0IArs4c6QAAAARnQU1BAACxjwv8YQUAAAAJcEhZcwAAFiUAABYlAUlSJPAAAAepSURBVGhD7Znbb1TXFcZ/+5w548G3sXGMbWzjS8TNwQIBIm0EEaUpvaiqEGmplD5VVV+q9h/o3xGpT5X60lakagJqUjUpJa2pEFRFQaGYGNsY4xgwvs/YczmXvfpwZs6cudr0qYP4pPXgPec7a39nr73W2ttqenpaeEGhwuI2HUjYgquhnhQbQKMFLVGFZRTGA3EpF8bmPG4/0yTs+hIXUdDfqjjdbzIcV0RyAgNxtxY0vxxzeLCu0fWkLAdDwc+OWLwzYtLVqPyx/I/3VzRrWalLYQBaYH5Dk8gWxgJxGc9/oJ5ha/BCGkLb78XDS3H1ipfi6hUvxdUrXmhxQft1eQo+nNYk7fqt5Cd6DM7vVQzG/b8Dcde+jHLtkcWmU8KoIxzq9Di9x6anWUNY3I3HMa492kHK8ZvOesRrnTan+tN0NXnwou+5F1pczbCMGNDeaNDYoKgVrFkXljc0dq4lb4gouloNjFokIG0La2kh6/o8Q0FLTNG2w0DV4GqBxaQm4woSyn+lYVlTXFeLwbEBi91xs7ozgfWMcHPGZnbFwzRguCPCqb1RzC3iYm7V47M5h4WEnwBaY4pDuy1GeiLV/QFaw40Zh/vPXJzQGee5xI32Wpw9GGVPuxmMVcJaWvh4PMv1BzaWqfja/ijfGWmoOUGA8acun9zLMrPkT6a3zeStA1GO9lulj5bhyhc2f5vIkgqVrlJxhW9bobwZyretoAAjtEr5O4znhaHYcrXzCPurhuARAUT8a4a8CeKPb9O0gH5OTsAT0BV+q2U6zBWK9l+xOAFXpMg8XU6oBEHwdJ7j87YDEQJenqu3ydW64DPgi/9h8witnASEvG1kNOtpTSKjSdawREZIZrTvzBNWU96WnGRGs5nVOF7BX9rRrG3Ln2YtU8z1tCAi/pLmUGi/5qJcfdjAZiihxCKKvbssOptrp+aNrHD3ic1GVlBAc8zgWP/W2XJ502Nm2WM97S+XZSp2x01efWWLbCnw+bzNaqr4GvLwLoczgzY9zSXZcuxRlCsl4uoNR3Y5vDVUEBd8W42g8eM2bIKAqm1SgafFA5yaJrho0c/NA6eM54k///CuC1bu01mLj2eibNiFlWuMKka6LXrjJkaVOBFgLe0X4/VMrhtHcyj+L0Zab2Iqt5QS4HF6mLuJEyxmewFoMNIMN99lNH6diKp+PLGlgetL32Uh048nhRp8tNvlm0M2vS0lp4KrsxZ/eWCRDIk73Bvl3Ggjwx2Rqu2XACspzaXPU/xjOgOAqTx+0P8uF/reJWqEroBL8O/VM7w393PGE8cBGGz6gu/3/YrTnZdyb64GxcW5X/DB/E/ZcHOHN+B4t8e3hgviCmEZpPGCWQZETYVlKiJVzAp+99N63gw8LMOuaaZyEPGzrM+xiRkbWEa27NliyxI1Un5ohnzqqqVAKIvh5ynHUhr/2yiQIrmPGnDyLcDWENFF3Eo+izoUr0xgqYTqpilw3VynsxXKE5H/ru1A8JuOUnFhfcVhKcVhaXuCu41ZivjPhrnbWYFg5XIcRxs4euumGcDWETxdvBX8j1PwGySUPz8wuXTfJGEXXtDdYnJyaAcDO2sUVfETytXJNA9X/QxnoHmz8xNO7fprzaw3mRxhbPEsj1LDALRZq7zeMcZXOz5Fqep9mBaTDx9f4M76UWzdEIy/sVtzbp/HnlZfYCDuo2mD9yeKxUUM/+DYaBl+618JAo4nLKe84LAK0G6tEI+uYNRYwZTXxJq9k4yOAWAqTUtknfboUlV3AIJiIdND2mvE74l8vNGrOb9fM1Aq7k9TBn+cUKxna732/xsn+4S392sG4yXiLk8q/jBhFP1nssHMMNT0gFcaFjGqhImgSDotTCb3s+k2A6CU0N84y57G2ao8gOVsB3OpARKOX6sihkN37CkDTTOYym+hKsGVCPcSr7Fut6Gl0MCe7BMuHJBycZfuKy5OKNZD4g623uPt/vc40DpedZIiioVsNxdn3+Hm8lcgF17f6/2Ac33vYxmhOC/B7dWjXP7yPBPJ/QD0xJ7w7d0fcabrCkYNcZ5E+P3sj/j7wtdJeTuC8Tf7hB8eFIZydT2S/0GTzzyFsOyOzXG47RajbXeCsUpYyHRzY/F1ri/64lCartg8R9pv0VCjQ0k4zewwk8H5r8Va4VD8Nsd33ix9tAyfrRxhbOEkni6IKz2wFp3n/BqlA1O4VVesGAJ4IW55Qa2EfOOQ54l4GDV60TAUbtl8S32G6lxJzci3M1vPESq0byI5zTUg+cL/P/kDr6T98qq3X6Xdgl9Udc2k7EMEXG0Ucbc1ScldF+Q4rlZ4oQRRC54YuLq4o/LvfQooWjlXwNV+V+Jq4Wmmg6nkIFPJYaaSQ9VtY4j59K6A52hYstuY3hgsfzZk8+kuNr1YwFtzmplKDjK5hb/J5DAzG31kPbNovl61a4bf3dP85o5mNbT/myIpDrf/h77GJ1WLsQBrdis3l46xlkvpCmEkPsFI/D5mjT37ON3F+Po+lrIdAEQNm1ebH3Ko7R6mquyP3Kr9c/EEzzKdRee5bwwofjxqsLfdj7ZA3G/HNb++4xWJqzecHTT4yajBvpy4ssY5vMz1Zrpk0xXtXk/7G7xerTSQ/wuuJ2bTGQ190AAAAABJRU5ErkJggg==;" parent="1" vertex="1">
          <mxGeometry x="1464" y="532.25" width="55" height="49" as="geometry" />
        </mxCell>
        <mxCell id="uy5vqwSy2B66AsNLwfR5-28" value="" style="image;aspect=fixed;html=1;points=[];align=center;fontSize=12;image=img/lib/azure2/management_governance/Log_Analytics_Workspaces.svg;" parent="1" vertex="1">
          <mxGeometry x="1470" y="475.25" width="43" height="43" as="geometry" />
        </mxCell>
        <mxCell id="uy5vqwSy2B66AsNLwfR5-30" value="&lt;font style=&quot;font-size: 12px;&quot;&gt;Log Analytics Workspace&lt;/font&gt;" style="text;html=1;strokeColor=none;fillColor=none;align=center;verticalAlign=middle;whiteSpace=wrap;rounded=0;fontSize=13;movable=1;resizable=1;rotatable=1;deletable=1;editable=1;connectable=1;direction=east;container=0;" parent="1" vertex="1">
          <mxGeometry x="1522" y="473.75" width="120" height="44" as="geometry" />
        </mxCell>
        <mxCell id="uy5vqwSy2B66AsNLwfR5-31" value="&lt;font style=&quot;font-size: 12px;&quot;&gt;Custom Table&lt;/font&gt;" style="text;html=1;strokeColor=none;fillColor=none;align=center;verticalAlign=middle;whiteSpace=wrap;rounded=0;fontSize=13;movable=1;resizable=1;rotatable=1;deletable=1;editable=1;connectable=1;direction=east;container=0;" parent="1" vertex="1">
          <mxGeometry x="1522" y="533.25" width="120" height="44" as="geometry" />
        </mxCell>
        <mxCell id="145Wcvj_1HI03ukp_G3T-1" value="&lt;font style=&quot;font-size: 18px;&quot;&gt;TCP/UDP 514&lt;/font&gt;" style="text;html=1;strokeColor=none;fillColor=none;align=center;verticalAlign=middle;whiteSpace=wrap;rounded=0;fontSize=13;movable=1;resizable=1;rotatable=1;deletable=1;editable=1;connectable=1;direction=east;container=0;" parent="1" vertex="1">
          <mxGeometry x="500" y="502.5" width="120" height="44" as="geometry" />
        </mxCell>
        <mxCell id="3wEUneV0il8rES8RZ6Q2-5" style="edgeStyle=orthogonalEdgeStyle;rounded=0;orthogonalLoop=1;jettySize=auto;html=1;" parent="1" source="145Wcvj_1HI03ukp_G3T-4" target="3wEUneV0il8rES8RZ6Q2-3" edge="1">
          <mxGeometry relative="1" as="geometry" />
        </mxCell>
        <mxCell id="145Wcvj_1HI03ukp_G3T-4" value="" style="image;aspect=fixed;html=1;points=[];align=center;fontSize=12;image=img/lib/azure2/networking/Private_Endpoint.svg;" parent="1" vertex="1">
          <mxGeometry x="1060" y="502.5" width="72" height="66" as="geometry" />
        </mxCell>
        <mxCell id="3wEUneV0il8rES8RZ6Q2-13" style="edgeStyle=orthogonalEdgeStyle;rounded=0;orthogonalLoop=1;jettySize=auto;html=1;" parent="1" source="3wEUneV0il8rES8RZ6Q2-1" target="uy5vqwSy2B66AsNLwfR5-10" edge="1">
          <mxGeometry relative="1" as="geometry" />
        </mxCell>
        <mxCell id="3wEUneV0il8rES8RZ6Q2-1" value="" style="shape=image;verticalLabelPosition=bottom;verticalAlign=top;imageAspect=0;aspect=fixed;image=data:image/svg+xml,PHN2ZyB4bWxucz0iaHR0cDovL3d3dy53My5vcmcvMjAwMC9zdmciIHZpZXdCb3g9IjAgMCAxOTIgMTkyIiBpZD0iU2VjdXJpdHlfTmV0d29ya2luZyI+PGRlZnM+PHN0eWxlPi5jbHMtMXtmaWxsOiM0NjQ2NDY7fS5jbHMtMntmaWxsOiMyY2NjZDM7fTwvc3R5bGU+PC9kZWZzPjxwYXRoIGQ9Im05MCwxNzguMDFjLTQxLjkxLDAtNzYuMDEtMzQuMS03Ni4wMS03Ni4wMVM0OC4wOSwyNi4wMSw4OS45OSwyNS45OWMuNTMsMCwxLjA0LjIxLDEuNDEuNTkuMzguMzguNTkuODguNTksMS40MXY3Mmg3Mi4wMWMxLjEsMCwyLC45LDIsMiwwLDQxLjkxLTM0LjA5LDc2LjAxLTc2LDc2LjAxWm0tMi4wMS0xNDcuOThjLTM4Ljc4LDEuMDctNzAsMzIuOTUtNzAsNzEuOTdzMzIuMyw3Mi4wMSw3Mi4wMSw3Mi4wMSw3MC45MS0zMS4yMiw3MS45Ny03MC4wMWgtNzEuOThjLTEuMSwwLTItLjktMi0yVjMwLjAyWiIgY2xhc3M9ImNscy0xIi8+PHBhdGggZD0ibTE3NiwxMDEuOTloLTg2LjAxVjE1Ljk5YzQ3LjQzLDAsODYuMDEsMzguNTgsODYuMDEsODZaIiBjbGFzcz0iY2xzLTIiLz48cGF0aCBkPSJtMTc2LDEwMy45OWgtODYuMDFjLTEuMSwwLTItLjktMi0yVjE1Ljk5YzAtMS4xLjktMiwyLTIsNDguNTMsMCw4OC4wMSwzOS40OCw4OC4wMSw4OCwwLDEuMS0uOSwyLTIsMlptLTg0LjAxLTRoODEuOTljLTEuMDUtNDQuNzQtMzcuMjUtODAuOTMtODEuOTktODEuOTh2ODEuOThaIiBjbGFzcz0iY2xzLTEiLz48L3N2Zz4=" parent="1" vertex="1">
          <mxGeometry x="390" y="488" width="95" height="95" as="geometry" />
        </mxCell>
        <mxCell id="3wEUneV0il8rES8RZ6Q2-10" style="edgeStyle=orthogonalEdgeStyle;rounded=0;orthogonalLoop=1;jettySize=auto;html=1;entryX=-0.082;entryY=0.065;entryDx=0;entryDy=0;entryPerimeter=0;" parent="1" source="3wEUneV0il8rES8RZ6Q2-3" target="uy5vqwSy2B66AsNLwfR5-27" edge="1">
          <mxGeometry relative="1" as="geometry" />
        </mxCell>
        <mxCell id="3wEUneV0il8rES8RZ6Q2-3" value="" style="sketch=0;outlineConnect=0;fillColor=#1ba1e2;strokeColor=#006EAF;dashed=0;verticalLabelPosition=bottom;verticalAlign=top;align=center;html=1;fontSize=12;fontStyle=0;aspect=fixed;pointerEvents=1;shape=mxgraph.aws4.iot_analytics_pipeline;fontColor=#ffffff;" parent="1" vertex="1">
          <mxGeometry x="1262" y="513.75" width="78" height="42" as="geometry" />
        </mxCell>
        <mxCell id="3wEUneV0il8rES8RZ6Q2-7" value="&lt;font style=&quot;font-size: 12px;&quot;&gt;incoming data&lt;/font&gt;" style="text;html=1;strokeColor=none;fillColor=none;align=center;verticalAlign=middle;whiteSpace=wrap;rounded=0;fontSize=13;movable=1;resizable=1;rotatable=1;deletable=1;editable=1;connectable=1;direction=east;container=0;" parent="1" vertex="1">
          <mxGeometry x="1120" y="528" width="120" height="44" as="geometry" />
        </mxCell>
        <mxCell id="3wEUneV0il8rES8RZ6Q2-9" value="&lt;font style=&quot;font-size: 12px;&quot;&gt;transformed data&lt;/font&gt;" style="text;html=1;strokeColor=none;fillColor=none;align=center;verticalAlign=middle;whiteSpace=wrap;rounded=0;fontSize=13;movable=1;resizable=1;rotatable=1;deletable=1;editable=1;connectable=1;direction=east;container=0;" parent="1" vertex="1">
          <mxGeometry x="1344" y="524.5" width="120" height="44" as="geometry" />
        </mxCell>
        <mxCell id="3wEUneV0il8rES8RZ6Q2-12" value="&lt;font style=&quot;font-size: 12px;&quot;&gt;Data Collection Endpoint DCE&lt;/font&gt;" style="text;html=1;strokeColor=none;fillColor=none;align=center;verticalAlign=middle;whiteSpace=wrap;rounded=0;fontSize=13;movable=1;resizable=1;rotatable=1;deletable=1;editable=1;connectable=1;direction=east;container=0;" parent="1" vertex="1">
          <mxGeometry x="1000" y="577.25" width="160" height="44" as="geometry" />
        </mxCell>
        <mxCell id="3wEUneV0il8rES8RZ6Q2-16" value="&lt;font style=&quot;font-size: 18px;&quot;&gt;FortiAnalyzer VM&lt;/font&gt;" style="text;html=1;strokeColor=none;fillColor=none;align=center;verticalAlign=middle;whiteSpace=wrap;rounded=0;fontSize=13;movable=1;resizable=1;rotatable=1;deletable=1;editable=1;connectable=1;direction=east;container=0;" parent="1" vertex="1">
          <mxGeometry x="352.5" y="575.5" width="170" height="70" as="geometry" />
        </mxCell>
        <mxCell id="3wEUneV0il8rES8RZ6Q2-17" value="&lt;font style=&quot;font-size: 12px;&quot;&gt;data pipeline&lt;/font&gt;" style="text;html=1;strokeColor=none;fillColor=none;align=center;verticalAlign=middle;whiteSpace=wrap;rounded=0;fontSize=13;movable=1;resizable=1;rotatable=1;deletable=1;editable=1;connectable=1;direction=east;container=0;" parent="1" vertex="1">
          <mxGeometry x="1261" y="546.25" width="80" height="44" as="geometry" />
        </mxCell>
      </root>
    </mxGraphModel>
  </diagram>
  <diagram id="MSR4balpkS24isaz4AyY" name="FAZ-Fluentd">
    <mxGraphModel dx="794" dy="511" grid="1" gridSize="10" guides="1" tooltips="1" connect="1" arrows="1" fold="1" page="1" pageScale="1" pageWidth="850" pageHeight="1100" math="0" shadow="0">
      <root>
        <mxCell id="0" />
        <mxCell id="1" parent="0" />
        <mxCell id="asjZOrvrOHNb07cIuOSn-1" value="" style="rounded=1;whiteSpace=wrap;html=1;sketch=0;fontSize=10;strokeColor=#007fff;fillColor=#FFFFFF;gradientColor=none;gradientDirection=south;absoluteArcSize=1;arcSize=4;fontFamily=Helvetica;" parent="1" vertex="1">
          <mxGeometry x="150" y="242.75" width="1330" height="661" as="geometry" />
        </mxCell>
        <mxCell id="asjZOrvrOHNb07cIuOSn-2" value="" style="rounded=1;whiteSpace=wrap;html=1;fillColor=#f5f5f5;fontColor=#333333;strokeColor=#666666;" parent="1" vertex="1">
          <mxGeometry x="1030" y="420" width="430" height="310" as="geometry" />
        </mxCell>
        <mxCell id="asjZOrvrOHNb07cIuOSn-3" style="vsdxID=7;fillColor=#ffffff;gradientColor=none;fillOpacity=0;strokeOpacity=0;shape=stencil(pZPRDoIgFIafhlt35Cy1y2b2Hi4xWSYOteztg7EMNXVMrg7w/4fv3zgE46ZIa0YoNK0Ud/biWVsQPBNKeVUwyVtVEUwIxrmQ7CZFV2VmX6daqauHeOoOvfGBdlB427uLEZa8soToReGy9tpJ09Uf1MHRXl+vP3q2pxtyOpbjjAVnMHDaZj94QbQHX/lD+xrd4izZF+ONef8kBKd44JQGnOBhF/nqp5pgwyomrGJN/4uqfxOS87I0AzagqGI6UerITCMmHw==);spacingTop=-3;spacingBottom=-3;spacingLeft=-3;spacingRight=-3;labelBackgroundColor=none;rounded=0;html=1;whiteSpace=wrap;" parent="1" vertex="1">
          <mxGeometry x="373.5" y="160" width="918" height="626" as="geometry" />
        </mxCell>
        <mxCell id="asjZOrvrOHNb07cIuOSn-4" style="edgeStyle=orthogonalEdgeStyle;rounded=0;orthogonalLoop=1;jettySize=auto;html=1;exitX=1;exitY=0.5;exitDx=0;exitDy=0;entryX=0;entryY=0.5;entryDx=0;entryDy=0;entryPerimeter=0;" parent="1" source="asjZOrvrOHNb07cIuOSn-5" target="asjZOrvrOHNb07cIuOSn-10" edge="1">
          <mxGeometry relative="1" as="geometry" />
        </mxCell>
        <mxCell id="asjZOrvrOHNb07cIuOSn-5" style="vsdxID=46;fillColor=none;gradientColor=none;image;aspect=fixed;image=data:image/png,iVBORw0KGgoAAAANSUhEUgAAAZAAAAGNCAYAAAA/9yeJAAAABGdBTUEAALGPC/xhBQAAACBjSFJNAAB6JgAAgIQAAPoAAACA6AAAdTAAAOpgAAA6mAAAF3CculE8AAAABmJLR0QA/wD/AP+gvaeTAAAACXBIWXMAAA7DAAAOwwHHb6hkAAAAB3RJTUUH5AQDBxsK6pjOGwAALOxJREFUeNrt3Xd4VFX+BvD3zkx6gZAOBAihJARCLwGpAQSUahd3dV1ddV37Ij8BV1FBURB3EURdEAuK0kRApAcChBJKQosEEtIhpJGeTGbu7w+BpTNzMjNnJnk/z8MTkrlzzvdcwn3n3nvuvQrk0nbv3l1TVVWlVLdooTSvrFQk10NE5DCy3NzURnl5Ri8vLzU2NrbW1v3baoOtxIwZ00nV6YZAVftCRXdVQYgCxcnWAyYiqp9UFSouqKoxSdFo9hlVdUtWdXX86Q0bqq3VozUDRIkZO/Yuo6I8oSjKA4DideUF7mcQEVmNql76ClWvAlsVVf1vXkrK2uPHj9dYsh+Lb8qjhg/38Hd3f1YFJkHRBAIMDCIiWS6HiaKgXAUW6oE5catW5VqibYtt2qOGD/fw9/R8STUap0DReDA0iIjsyx9hotaqqvpFrUbzXl2DxCKb+Zhx48YZgcWKovFhcBAR2TdVBRSoNVDV17f+/POnAAwi7dRpc99/5Eh/nYvrMkVRhjA4iIgci6oCqoLT0OvHbV+79ri57xfe7A8aP/4ujaKsg4pGDA8iIsd0+bAWVPXpbT//vMSc9wpt+gePHfuiotF8oiiMDiKi+kBVAVU1/qAWF//Z1GtKzA6AmLFjP1Q12kmMDiKi+uXS3sjuynPnhsXHx1feaXmzYmDg+PFfa6H8meFBRFQ/qSqgQk1Wi4p6xsbGlt1uWY2pjQ4YN24uw4OIqH5TFECBEq5p7LMnMjLS+XbLak1pMGbcuJc0iuZtS4bH5YtbiIjIMiy1jf6jHSXQ3df3rrPJyd8CuOkW+47dDRw/PloL7LbECfOrQ4N7MkRElnX9B/O6bmcvHc76z/bVq1+62eu3bf6ue+7xcXZxyVQAD0sMiKFBRGQbltr2qqqqAhi6bfXqbde/dttzIE7Ozr9CrXt4KArDg4jIlq7e7tbllMGlo0+/9ho/3vf6124ZIP0mTBijQOkjsuH/Yz4xg4OISLbL2+HL22XBVlw8gBXX//SmJ9HbjBzp4uvktF9R4Hznhq919V4HERHZh6u3yeZuny8t3zKkXbvt6b//nn755zfdAwlxcZ0pcuiK4UFEZL/qckhLURRFp9X+fPXPbgiQyMhIZ0VRXjA3BBgeRET27+pDWgLv9hkwZszEy9/dECB+YWHTAJj1qFmGBxGR4zE3RBQF0Gm08y5/f0OAaLXa18wJAoYHEZHjET6cpSg+g0aNGgFcFyCDRo/uAyjuooUQEZHjEAkRRQE0zi5zgOsCRNHp5orsfRARkWMS2QFQNEp499Gj3a8NEKCHLTonIiL7Ys4OgapC46nTPX8lQHrFxLQDFJ01OiMiIvslcl2IFnjqSoB4eHm9LnhxCRER1QNm7RgoSqjmf39X7rZKJ0REZPfM3iFQ4fS/AAH8rdoZERHVG4py1SwsFebf94qIiOoXc44wXQ4Q3jeXiKiBMzcFNKJvJCKihu1ygJj0bHTgf8/5ICKihu2qQ1hERESm01z3lYiIyCQMDiIiEsIAISIiIQwQIiISwgAhIiIhDBAiIhLCACEiIiEMECIiEsIAISIiIQwQIiISwgAhIiIhDBAiIhLCACEiIiEMECIiEsIAISIiIQwQIiISwgAhIiIhDBAiIhLCACEiIiEMECIiEsIAISIiIQwQIiISwgAhIiIhDBAiIhLCACEiIiEMECIiEsIAISIiIQwQIiISwgAhIiIhDBAiIhLCACEiIiEMECIiEsIAISIiITrZBZB1ebi7I9DfH+5ublABlJWXI/f8edTU1MguzS45OzsjKCAAnh4e0Gg0qKysxLm8PJRXVMguzS5pNBoEBQTA28sLzk5OqKyqwoX8fBSXlMgujWyAAVLPaLVa9OzaFQOjo9G5Y0cE+PndsIzRaMTZjAwcOHIEW3buRFp6uuyypYoMD8fgfv3QNSoKLZo1g6IoNyyTe/48DiUlYfuuXThy7JjskqUKadYMMf37o0eXLmjbujW0Wu0NyxRfvIgjx45hx5492JuQAH1treyyyQou/09xiZkwocqUN6gqcJP/XySZRqPBPcOG4ZEJE24aGrdzKCkJi7//HskpKbKHYVN9evTAEw8/jDahoWa972xGBr7+8UfE7d0rewg21SY0FE8++ih6detm1vsKioqwbNUqrPntNxiNRtnDoDswZxvPAKkHmgcHY+qrr6Jt69bCbaiqijUbNuDzr7+u958WvTw98c+//x39eveuUzv7Dx3Ch59+iuKLF2UPyaq0Wi2emjgR940eDY1G/LRpano63v/kE6RlZMgeEt2GOdv4y/ueutYREdNM7YABYj+6RUXho+nTERQQUKd2FEVBeNu26NWtG3bv24eq6mrZQ7OK5sHB+GTGDHRo377ObTULDkbMgAE4nJSEouJi2UOzCg93d3zw5psY3L//TQ/tmcOncWPcPXgwMrKykJGdLXtodBsMkAagW1QUZkyZAlcXF4u16dukCaJ79cKO3bvrXYgEBwbi3zNnwt/X12Jturu5YUj//jiYmIjCoiLZQ7QoV1dXzJk+3SJhe5lOp8OA6Ghk5ebiLPdE7Jap23hO43VQTYOC8NakSXBycrJ42yFNm+K9qVOh09WfORaurq6YOW0afBo1snjbHu7umDltGvyaNJE9TIua8vLLaBcWZvF2NRoNJr/wAjpGRMgeItURA8QBKYqCN156CR7u7lbrI7xNGzz9pz/JHqrF/P0vf0FI06ZWa9+nUSNMfeUV2cO0mHuGDUPfnj2t1r5Op8O0V16x6u8wWR8DxAHdPXgwItq1s3o/40eNMnuGkj1qFxaGkTExVu+nU4cONunH2jw9PPDXiROt3o+fr69N+iHrYYA4GEVR8Oh999mkL41Gg7888ojsIdfZxPvvr/MJYFP9+aGHHP7Q37iRI+Ht5WWTvu4ZNqzOE0BIHgaIg+nRuTOaBgXZrL/e3bujeXCw7GEL823SxKqHYq7n7+uLAdHRsoddJ/cOH26zvrRaLcaOGCF7yCSIAeJgBvTta/M+YwYMkD1sYQP69LHZ3sdlQx14fUWGh8PPgrPUTOHIv18NHQPEwXSOjLR5n927dJE9bGGdO3a0eZ9RkZEOexiri4T11cTHB6EtW8oeOglggDgQN1dXmx6+uqxNaKjNP8VbSlirVjbv09XFBS2aNZM9dCEy1hcAtLfCdGGyPgaIA5F1stHZycmiF9/ZiqIoZt8XzFKaOeh5o0B/fyn9yvhgRHXHAHEg7hLnzHt4eMgevtlcXFxueqdYW3DE9QVA2nUZjrq+GjoGiAOReVzdyQGP6cus2RHXFyDvd8zZQddXQ8cAISIiIQwQIiISwgAhIiIhDBAiIhLCACEiIiEMECIiEsIAISIiIQwQIiISwgAhIiIhDBAiIhLCACEiIiEMECIiEsIAISIiIQwQIiISwgAhIiIhDBAiIhLCACEiIiEMECIiEsIAISIiIQwQIiISwgAhIiIhDBAiIhLCACEiIiEMECIiEsIAISIiIQwQIiISwgAhIiIhDBAiIhLCACEiIiEMECIiEsIAISIiIQwQIiISwgAhIiIhDBAiIhLCACEiIiEMECIiEsIAISIiIQwQIiISwgAhIiIhDBAiIhLCACEiIiEMECIiEsIAISIiIQwQIiISwgAhIiIhDBAiIhLCACEiIiEMECIiEsIAISIiIQwQIiISwgAhIiIhDBAiIhLCACEiIiEMECIiEsIAISIiIQwQIiISwgAhIiIhDBAiIhLCACEiIiEMECIiEsIAISIiIQwQIiISwgAhIiIhDBAiIhLCACEiIiEMECIiEsIAISIiIQwQIiISwgAhIiIhDBAiIhLCACEiIiEMECIiEsIAISIiIQwQIiISwgAhIiIhDBAiIhLCACEiIiEMECIiEsIAISIiIQwQIiISwgAhIiIhDBAiIhLCACEiIiEMECIiEsIAISIiIQwQIiISwgAhIiIhDBAiIhLCACEiIiEMECIiEsIAISIiIQwQIiISwgAhIiIhDBAiIhLCACEiIiEMECIiEsIAISIiIQwQIiISwgAhIiIhDBAiIhLCACEiIiEMECIiEsIAISIiIQwQIiISwgAhIiIhDBAiIhLCACEiIiEMECIiEsIAISIiIQwQIiISwgAhIiIhDBAiIhLCACEiIiEMECIiEsIAISIiIQwQIiISwgAhIiIhDBAiIhLCACEiIiEMECIiEsIAISIiIQwQIiISwgAhIiIhDBAiIhLCACEiIiEMECIiEsIAISIiIQwQIiISwgAhIiIhDBAiIhLCACEiIiEMECIiEsIAISIiIQwQIiISwgAhIiIhDBAiIhLCACEiIiEMECIiEsIAISIiIQwQIiISwgAhIiIhDBAiIhLCACEiIiEMECIiEsIAISIiIQwQIiISwgAhIiIhDBAiIhLCACEiIiEMECIiEsIAISIiIQwQIiISwgAhIiIhDBAiIhLCACEiIiEMECIiEsIAISIiIQwQIiISwgAhIiIhDBAiIhLCACEiIiEMECIiEsIAISIiIQwQIiISwgAhIiIhDBAiIhLCACEiIiEMECIiEsIAISIiIQwQIiISwgAhIiIhDBAiIhLCACEiIiEMECIiEsIAISIiIQwQIiISwgBxJKoqsWt5fTtizY64vmTi2nJMDBAHUl1TI6/v6mrZwze/Zq4vh6m7qqpK9tBJAAPEgVwsKZHWd/HFi7KHbza9Xo9KSRsmR1xfAFBSWiql32KJv9skjgHiQM5fuIDa2lqb93uxpAQlZWWyhy8kOzdXSr8Z2dmyhy4kS9b6ysqSPXQSwABxIEajEadSU23e79GTJ2UPXVhySorN+7xQUIDzFy7IHrqQk6dOSen3WHKy7KGTAAaIg0k4fNjmfcYfOCB72MIOcH2ZJSEx0eYTAE6eOuWwh/waOgaIg9kWF2fT/+AVlZXYGR8ve9jC9h86hFIbH377bds22cMWlnfhgs33Bhx5fTV0DBAHk5Wbi32HDtmsvzUbNkg7EW0J+tparN240Wb9HUpKwqkzZ2QPu05Wrl1rs74KioqwKTZW9pBJEAPEAS1euhRGo9Hq/RQWFWHZ6tWyh1tnP61Zg4s2mF1kMBiwcMkS2cOts1379tnsXMiX334LvV4ve8gkiAHigFLT07HCBp8SP164EOUVFbKHW2dl5eVYsGiR1fv5fuVKpKanyx6uRcxduBA1Vt6wxx84gC07dsgeKtUBA8RBLf7+exyz4uyo75Yvx96EBNnDtJitcXFYv3mz1drfe/AgvvnpJ9nDtJjU9HTMt2LoZmRlYda8ebKHSXWkvfRV1zoiYpqpb1IU2WWT0WjEnv370aNrVzRp3Niiba/+9Vd8+e23sodocfsPHUJoy5Zo0by5Rds9fPQo3p41C7UGg+whWlRKaiqMqoouHTtatN3s3Fy8Pn06Z17ZMVO38QwQB1ZdU4Ptu3ahbevWaBoUVOf2DAYD/rt0KZb88IPsoVmFqqrYGR8Pby8vhLdta5E2N27bhhlz51r9cI8sSSdOoPjiRXTv3BkaTd0PWCQdP4433n0XhcXFsodGt8EAaSD0ej22xsWhoqICke3bw8nJSaidtIwMvP3hh4jdvVv2kKxKVVXsP3QIqenp6BgeDnd3d6F2ioqL8fFnn2HpypU2mdAg0+9nzmD/4cNoFxYGXx8foTaqq6vx9Y8/Yu7ChQ49q6+hMHUbf3kxl5gJE0z6V1VVBoi9atyoER4YPRp3DxmCxo0amfSeM2fPYsUvv2BrXFy93xBez9XFBfcMG4axI0eavAeXl5+PX377zeGnN4tQFAUD+/bF/WPGILxNG5PeU1Zejo3bt+Onn39GQVGR7CGQCczZxjNA6iGNRoMuHTuic2QkQlu2RJC/P9zc3KCqKsorKpCdm4vk06eRcPgwzmZmyi7XLrQPC0PXqCi0CQ1F06AgeHp4QKvRoLyyEufy8nA6NRWHkpJw/Pffeat2AM2Cg9G9c2eEt22LZsHB8PbygrOTE6qqqnChoABp6ek4cuwYDiUlQS/h/m0kjgFCRERCzNnGcxovEREJYYAQEZEQBggREQlhgBARkRAGCBERCWGAEBGREAYIEREJYYAQEZEQBggREQlhgBARkRAGCBERCWGAEBGREAYIEREJYYAQEZEQBggREQlhgBARkRAGCBERCWGAEBGREAYIEREJYYAQEZEQnewCiByZk5MTXF1coNVq4aTTQafTQVEUqKoKo9EIFYBer0dNTQ2qa2pQW1sru2Qii2GAEF1Fo9EgwM8P/n5+8Pf1hZ+vL/x8fNDI2xuNGzWCt5cXvL284O7mBnc3N2i1WrPaNxgMqKisRFl5OcrKy1FeUYHyS38vq6hAQVERLuTn//GnoAD5hYUwGAyyVwvRTTFAqEHy9PBAy5AQtAoJQcuQEDRv2hTNgoIQ6O8Pnc56/y20Wi28PD3h5elp0vKqqqKwuBgX8vORlZOD9KwspGdlISMzEznnz8NoNMpeldSAMUCo3vP08EBEu3ZoFxaGtq1bo23r1gj095ddlkkURYGvjw98fXwQ3rbtNa/V6PV/hEpmJk6dOYOTp07hVGoqampqZJdNDYRy6atLzIQJVaa8QVUBRTFlSSI5Avz80KVTJ3QKD0eH8HC0aNYMSgP5pTUYDEhNT8fJU6eu/MnKzZVdFjkQc7bxDBByeB7u7ugWFYUeXbqga6dOaBoUJLsku5KXn4+DiYk4mJiIQ0lJKCktlV0S2TEGCNV7wYGB6B8djT7duiEyPNzsk9kNlaqqOJ2WhoOJidh/6BCOJSfzPApdgwFC9VJQQAAG9O2LQX37ol1YmOxy6oWiixexe98+7IyPx5FjxxgmxACh+iPQ3x8D+/XDwOhotG/TRnY59VpJaSl279+PuL17kXDkCMOkgWKAkEPT6XTo16sXRg0dim5RUQ3mBLg9KSouxqbYWPy2bRsys7Nll0M2xAAhh9QsOBijhg7F3YMHo3GjRrLLoUuOJydjw9atiN2zB1VVJm0myIExQMhhaDQaDIiOxr3Dh6NLx46yy6HbqKysxLZdu7By3TpkZGXJLoeshAFCds/Z2RkjhgzBA2PGIDgwUHY5ZAZVVXHg8GGsWLsWh5KSZJdDFsYAIbvl5emJsSNGYPw996CRt7fscqiOUs+exYq1a7Ft1y7eKLKeYICQ3fFr0gQPjh2LkUOHws3VVXY5ZGEFRUX4YeVKrN+8GXoGiUNjgJDd8Pb0xCMTJmDsyJFwdnaWXQ5Z2YWCAixdsQIbtm7lXYQdFAOEpHN1ccGEe+/Fg2PHwtPDQ3Y5ZGPn8vLw3fLl2BQby+tJHAwDhKTRarW4Z+hQPPbAA2ji4yO7HJIsOzcXn3/zDfbs3y+7FDIRA4Sk6NO9O/7+5JO8mSHd4FBSEhYsXoyzmZmyS6E7YICQTQX6++P5v/4VfXv2lF0K2TGDwYB1mzZhybJlKC0rk10O3QIDhGxCp9PhwbFjMfG+++Di4iK7HHIQJaWlWLJsGdZu3AhVVWWXQ9dhgJDVdYuKwgtPP42Qpk1ll0IO6sSpU5g9fz6varczDBCyGg93d7zw1FMYOnCg7FKkKCktRWFREYovXkRJWRnKystRWlaG6upqVNXUoLq6GrW1tTAajVBVFaqqQqfTQafTwUmng6ur65Vnont5eFz5eyNv7wZ5/68avR7fLV+OZatXc7aWnWCAkFV079wZ/3z+efj7+souxWqMRiNyz59HWkYG0jMzkZuXh3Pnz+NcXh4KCgutepGci7MzAv39ERQYiKDLXwMC0DIkBM2Dg+v1Q7NOp6Vh9vz5OJ2WJruUBo8BQhbl6uKCp//8Z4wdMUJ2KRZVVV2N5JQUnE5Lw9mMDKSlp+NsZiaqa2pkl3YDZ2dnhIaEICw0FGGtWiGsVSu0ad0arvXo3JPBYMCPP/+MJcuWcW9EIgYIWUyH9u0x+YUX0Cw4WHYpdVZSWopjyck4euIEjp08iVOpqQ59tbRWq0X7sDBERUYiqkMHdIyIgLubm+yy6uzkqVOYMXcuzuXlyS6lQWKAUJ1pNBo8/tBDeGTCBGg0GtnlCDEYDDiWnIz4Awdw4MgRpNfzaxA0Gg3ahIaia6dO6NuzJyLatXPYf7uy8nLMXbgQO/bskV1Kg8MAoTpp7O2Nqa++iq6dOskuxWxl5eU4cPgw9iYkYN+hQygrL5ddkjSNvb3Rp2dP9O3ZE92johxyqvWvW7Zg/qJFdnlYsb5igJCwjuHhmPbaa/Br0kR2KSarrq7Grn37sHnHDhw+etShD0tZi7OzM3p17Yphgwahd7du0Ol0sksyWXpmJqbPns3pvjbCACEh948Zg6cfe8whZvuoqoqjJ05gU2wsdsbHo6KyUnZJDsPbywsx/ftj+ODBaNu6texyTFJRWYn3P/kE8QkJskup9xggZBZ3NzdM+sc/0L9PH9ml3FFhURHWbdqETbGxPMlqAa1CQjBy6FCMGDIEHu7ussu5LVVV8dUPP+D7lStll1KvMUDIZIH+/pg5bRpaNm8uu5TbSklNxap167B9924++c4K3FxdMWLIEIy/5x67vxlm7O7d+OjTT3lexEoYIGSS8LZt8e4bb8DHTq+ANhqNiD9wACvXrUPSiROyy2kQFEVBn+7dcd+996KLHU+iSElNxVuzZiEvP192KfUOA4TuqH+fPvi/F1+0y5k5BoMBW+Pi8N3y5cg5d052OQ1W+zZt8PjDD6NX166yS7mpwqIi/N+77yI1PV12KfUKA4Ru66Fx4/DUY49BsbN/SKPRiB179uDrH39EVk6O7HLokg7t2uHxhx9G986dZZdyg7Lycrz5wQc4yj1Ui2GA0E1pNBq8/MwzGDV0qOxSrqGqKuL27sU3P/7IBw7ZsY7h4Xji4Yft7tBWTU0N3ps7l089tBAGCN1Ap9PhzVdfRb/evWWXco3jycn4dNEipKSmyi6FTBTdowee+8tf7Opku8FgwCeff44NW7fKLsXhmbONvzzhX9c6ImKaqR0wQByLs7Mz3pk8GX169JBdyhUFRUX49xdfYMFXX6GwqEh2OWSGrJwcrN20CZVVVejQrh2cnJxklwSNRoO+PXtCX1uLYydPyi7H4TFACADg6uqKmVOnoltUlOxSAAB6vR4r1q7FO7Nn49SZM7LLIUFGoxHHk5Oxcds2eHt7I6xVK7s4p9YtKgq1BgOOMkTqhAFC8HB3x4f/+hc6RkTILgUAcDAxEdNmzkQsr+WoNyqrqrBn/34cPnoUHcPD4e3lJbskdO3UCTV6PY4lJ8suxWExQBq4Rt7e+Ojtt9G+TRvZpaCyshKfLlqEBV99hZKyMtnlkBXk5efj161b4ezsjIi2baXvjXSLikJlVRVO/P677FXjkHgSvQHz9PDA3PfeQ2iLFrJLweGjRzF7/nycv3BBdilkIxFt2+Kf//iHXdzdYMHixVi1fr1V+9BoNPD39UVQYCCCAwLg7+eHRl5e8L70x9PDA05OTlcea6woCi6WlqKoqAiFxcUoLCpCVm4usrKzkZWbi/KKCqnrjLOwrMDTwwMBfn5o3KgRvDw94e3lBTdXV7i4uMDVxQW6S78YGkWBCqBWr4e+thbVNTUoKCxEfmHhla+lVvwU7urqio/eegsR7dpJXV+VVVX48ptv8MvGjVLrIDmcdDo88cgjeHDsWOl7I//58kv88ttvFmnL1cUFEe3aISw0FG1atULrVq3Qsnlzi96ANL+wEKfOnEFySgp+P30aySkpNg0VBogg3yZNENaqFVq1aIEgf38EXvoT4O9v0Se91dTUIL+wENm5ucjKzUV2Ts4fX3Nzcf7CBeHHeTrpdJg5bZr053gknz6NGR9/jNzz56XWQfL17NIFk198EY0l3i5HVVW8O2cOdsbHm/1enU6HqA4d0LVTJ3Tu2BHtWre2+a3wDQYDTp05g4OJiTiYlITjyclWfeQvA8QEQQEBiAwPR5tWra48Z7qRt7fssqDX65GRnY3Tqak4ffYszqSl4czZs3f8BKLRaPDWpEno16uX1Pp//vVXLPz6a54kpyt8fXww5ZVX0DkyUloNNXo9Xp8+3aQpvq6urujdrRv69eqF3t27291diktKS7F7/37s3LMHh6zw/BsGyE0E+vujc8eO6BwZiS4dOyLQ3192SWY5l5eH30+fxrHkZBxPTsbptLRrPoX834svYujAgdLqq6isxOz584U+5VH9p9Fo8KcHHsDE+++X9pjd0rIyvDRlCjKys2/6esfwcIyIicHAvn3h5uoqc3WZrKS0FFvj4vDr5s1Iy8iwSJsMEPzxC9spIgJ39emD6B49EBQQILski6qqrkZySgpO/P47/Hx9MXzQIGm1nDl7Fu/Mno3s3FzZq4XsXLeoKLz52mvw8vSU0v/5vDy88MYbKCwuBgC4ODtjZEwMxo4ciZBmzWSvnjpJTknBL7/9hq1xcXXaK2mwAeLk5ITuUVFXQsMeDknVd1t27sScBQug1+tll0IOonlwMN6bMgXNmzaV0n9Kaiqmf/QRhg8ahLGjRqGRHVy7Ykn5BQVYuW4d1m/eLPSkzgYXIO3DwjBy6FAMvusuuzteWZ8tWbYM3y1fLrsMckCeHh54a9Ik6RM+6rOy8nL8tGYNVq1bh6rqapPf1yACxNvTE0MHDsSImBi0btlSdjkNSo1ej9nz52NbXJzsUsiBaTQavPDUUxh9992yS6nXioqLsXTFCqzdtMmkQ1v1OkBat2yJB8eNw8DoaLu4iVtDc7GkBP+aNQvHeZsIspD7R4/GM48/Lv16kfouIysL8/77Xxw+evS2y9XLAOkWFYWHxo2zy4faNBSZ2dmYMmMGr+8gi7t78GC8+txzFr0gj24udvdufPbVVyi4xV2w602AKIqCwXfdhQfHjkWb0FDbdEo3lXr2LF6fPh3FJSWyS6F6qn+fPpjy8ss8smADZeXl+HTRImzZseOG1+pFgET36IEnJ060i/s5NXTJp0/jjXffteotWIgAoEeXLnj79dfh6uIiu5QGYfe+fZi7cOE1HwwdOkCiOnTAXx97DJHt21uvEzLZ0RMnMHXmTKHpgEQiIsPDMXPqVM6otJGCoiK89/HHV54r75BPJGzRrBkmv/QSnnz0UQT4+Vl7nZEJDiYmYurMmWZNASSqqwv5+Th28iQG3XWXze871RC5u7lh2MCB0Ov1VybHOEyAuLq44IlHHsHkF190+CtB65P9hw/jX++/jxpeIEgS5OXnIzklBQP79eOJdRvQaDTo3rkzQlu2xK59+6Gqpt2sUWqA9OvVCzOmTkXv7t2l3R+HbnT05Em8OXMmw4Okyj1/Hmnp6RgQHc3tg420bN4cWo32jlN9L5PyrxLg74+ZU6di+uTJPFxlZ06npWHazJmorqmRXQoR9hw4gFnz5ln19uV0rWbBQSYva/MDjMMHD8bzTz7JE2R2KDMnB//3zjvSn4hGdLVtcXHwdHfHi3/7m+xS6Do2C5DG3t545bnnpD+vgm4uLz8fk3mdB9mpXzZuRLOmTXHfvffKLoWuYpMA6durF1599lmpTyWjWystK8Pkd95BXn6+7FKIbmnhkiVoGhSE6B49ZJdCl1j1HIhWq8U//vpXvDN5MsPDThkMBrwzezYyb/GQHSJ7oaoqZsydi9SzZ2WXQpdYbQ/Er0kT/GvSJHRo1072GOk25i9aZPKMCyLZqqqqMHXmTMyfNQtNfHxkl3OD6upqnM3MxPkLF5CXn4/8ggIUXbyImpoaVFVXo0avh5uLC7y9vdHIywtNGjdGi+bN0SokBAH+/g53Q0mrBEjXTp0w9ZVX6u1eh6qqKK+oQElpKUrLylBaVobyigoYjUYYjUaoqgqjqgL449yPn68v/H19pT2F7VbWbNiAXzZulF0GkVkuFBTgrVmzMPe996RfaHguLw8JR47g6IkTSElLQ1ZOjvCMMVdXV0S0bYsuHTuiS6dOCG/Txu6vgbH42n9o3Dg8+eijdj/wOzEajcjMycHZjAzknDuHnHPnkHv+PHLOn0d+QYHQL4mLszP8fH3h16QJgoOCENK0KUKaNUOrkBAEBwba9NPHwcREzF+82JarlMhiTqak4ItvvsHfn3zS5n2npKZiy44diE9IQM65cxZrt6qqCoePHv3jiMAPP8Db0xP9o6MxpH9/dIqIsMtrYSwWIBqNBq8+9xxGDBkie0xC8vLzkXTiBE6dPo1Tqak4nZaGqiqTbg9msuqaGmTn5iI7NxeJx49f85q7mxvCQkPRPiwMkeHh6BgeDp/Gja0y1szsbLwzezbn1pNDW7V+PTpHRqJf795W76u0rAzrN2/Gpu3bkWGj84Ull/pcv3kzAvz8MH7UKIwcOhSeHh426d8UFrmZorubG96aNMmhntVRVl6OxGPHcDApCYcSE5GVmyu7pBs0Dw5Gjy5d0KNrV3SOjISbq2ud2ywqLsYLb7yBc3l5sodHVGce7u74fM4cBAUEWKX9c3l5WLl2LTZs3WoX94Rzc3XFPcOG4ZEJE9DI29sqfezYswfvzplj0rJ1DhB/X1/MmDrVIR4rW1Jail379iF2924cOXbMoT6BOzs7o2eXLhgQHY3onj3h7uZmdhuVlZV45c03cTotTfZwiCymfVgYPpkxw6LPEblYWorvfvoJv2zcaNJjYG3Nw90dD40bh/vuvRcuFr71vc0CJLRFC7z/5pvwa9LEZivOXNXV1Yjdswexu3bhYFKSQ4XGrTg7O6N/nz4YGRODzpGRJp07MRgMmDpzJhKOHJFdPpHFjRkxAi8+/XSd2zEYDFi1bh2+W7HCIe7IEODvj9eee86iR3+279qFGXPnmrTs5S2Pc8yECSbtn10OkDahoZj11lto5OVl85VmioysLKzdtAmbtm93iF8EUcGBgYgZMADDBg5Es+DgWy734bx52BQbK7tcIqt5+ZlncO/w4cLvT8/MxIfz5uH3M2dkD8VsI2Ni8Mzjj1vk/MiGLVsw57PPTFr2coBoYyZMqDXlDaoKRLRriw/efNOuTub8UZuK+IQErFy79oaT1A1BRNu2GDpoEAb163dNsC9auhQ/rFoluzwiq9JoNPjwX/9Cl06dzHqf0WjET2vW4Otly6CvNWkzaJeCAwPx9uuvI6xVqzq1s2LtWixcssSkZS8HiBIzYYLJx3aWffmlXR22MhqN2LFnD75fuRJpGRmyy5FOq9WiV9euGDZoEPILC7GA03WpgfDy9MSnH3xw273xq+WcO4dZ8+ZdeZCSo3N2dsbLzzyD4YMGCbcxf9EirP71V5OWvTyNV1VVVVVMvBChsKjILgLEaDRi686dWLpihV3OopLFYDAgPiEB8QkJskshsqnSsjJMe/99zHv//TseIVm/eTM+W7LE4tP1ZaqpqcGH8+YhKycHTz76qFAb6VlZJi975ToQRVFU/G+P5LZOnTmDdmFhUlfUkWPHsHDJEs4oIqJrZGZn472PP8aMKVNuekFzUXEx5ixYgL0HD8ou1Wq+X7kSF0tK8NLf/mbWBYhGoxEpqakmL39l7bYOD58MRTFpHpybmxsGREdLWTGZOTmYM38+Fi1disLiYik1EJF9yzl3DuXl5ejVrds1P4/buxdvvPcezjSAGzKmpKYiMycHd/XubfJdLlJSU7F6/XqT+7iyB6ICWQpg0p0PDyYmora21qb3odHr9Vi6ciV+WLXKLudlE5F9Wf3rr2gZEoJ7hw9HeUUFPv3vf7F5xw7ZZdlU7O7d8HB3xyvPPmvS8nv27ze5bScnJ/XKHkiriIhgRVH6m/LG6poatG/bFiFNm9pkJZw4dQpTZsxA3N69UC/dpJCI6E4OHDkCV2dnfPjppzh68qTscqRISU1FdU3NHa8VUVUVH82fb/JlD21atTJeCRCf0NCjrjrdP009kV5ZVYUh/U3KG2HV1dX4/Jtv8MnChbjIJ+URkZlUVcXBxMR6fS2YKY4nJyMwIABtQkNvuczehASs27TJ5DbDQkPPXzm7cnjDhgsAakx9896EBKtOmU3PzMTzkydj9fr13OsgIqqjTz7/HL+fPn3L179dvtys9pycnD6/5vS8Amwxp4HFS5daZaAbtm7F319/HWczM63SPhFRQ6PX6/H2hx+irLz8hte279qFU2ZcgR8cGKi+M3ny9GsCpMJgeBmAyR/34xMSLDoVrqq6GjM/+QRzFixAdY3JO0NERGSCCwUFmPfll9f8rKy8HAu++sqsdkKaNs0Ernsm+p41a8717t7drONFcy10fiK/oACvTJuGbXFxVlp1RES0NS4OO+Pjr3w/Z8ECFJlxSYRWq1UNRuNTwHUBoihK2d2DB5t1TX9BYSE++Pe/6zS19tSZM3h+8mSzLmAhIiIx//niC5SVl2P5L78gbu9es94b1aFD5YdvvbUZuC5AAGBAdPSTUR06mNXggSNH8J/rdotMtTM+Hi9Pm4aCoiKbrTwiooasuKQEM+bOxedff23W+zQajRrStOkrV76/fgFFUfYNHTjwmLkFrd+8GfMXLzZrxtSGrVvx7pw5qOH5DiIim1FV4MDhw2a/LyqiQ8VLzzzzxeXvb3qTlFFDh97Tt3dvs+fOrl6/HjPmzkW1CY9+XLV+PeYsWMApukRENnSzx5KbwtPDQ23RvNnoq3920wBRFCVj1ODB81wFHpUYu3s3np88Gem3mYK7dMUK3mKciMiGVFU8PACgb69eJ1565pntV//slk2pqqpd9N13uT+sXu0v0plOp8MDY8Zg4v334+og+n7lSiz+/nspK5CIqKG5+iCPaHh0aN++9j8zZ3ooinLN+YZb3g1RURSDqqpdUjMyMvcdPGj6/YAvqa2txQ+rVmHDli24b/RojL77bmyLi2N4EBHZgCWCAwB8fXzU7lFR464PD8CE53/E7dv3yMKvvlp6Li+vDiX88ZQ8g8FwZVB1GRAREd3o+lPKdd3OXjqS9P1Tjz028Wavm9T8qvXr3/9u+fLJF0tKLLbZ57lzIiLLs9SHc0VR8MCYMQefefzxHrdcxtTGlq1evfTb5csfrU+PfyQiopu7f/TojGefeKLVpafV3pTJ5zYeHj9+4vhRo7739PDgvgMRUT2lKAoeGjcu+9knnmh/u/AAzNgDuWzp8uUfrdm48bWCwkKexSAiqkecnJzUPz3wwLFH77uvm6IotXda3uzZVRMfeGDSsIEDJ7Zv08Yoe7BERGQhKmofHDv2q0fvu6+zKeEBCOyBXJaYmBjwy5Ytx2J37xa6ToSIiOyDqqo5peXlfQ5s2mTWQ5jqfBhq7mefLUw6efJvGVlZPKRFRORYDEaDOn/7mtUvibzZIhv9zZs3N9qblLT7YGJih9KyMgYJEZEdU/+4CeEBpaRkzNatW8+LtmPRjf3bH3zQYse+fXM1ijIWgFb2SiIiov9RVVVVgH1VtbVP7V679nhd2/t/+E3n30LBQTEAAAAldEVYdGRhdGU6Y3JlYXRlADIwMjAtMDQtMDNUMDc6Mjc6MTArMDA6MDDHVXucAAAAJXRFWHRkYXRlOm1vZGlmeQAyMDIwLTA0LTAzVDA3OjI3OjEwKzAwOjAwtgjDIAAAAABJRU5ErkJggg==;strokeWidth=102;spacingTop=-3;spacingBottom=-3;spacingLeft=-3;spacingRight=-3;labelBackgroundColor=none;rounded=0;html=1;whiteSpace=wrap;movable=1;resizable=1;rotatable=1;deletable=1;editable=1;connectable=1;direction=east;container=0;" parent="1" vertex="1">
          <mxGeometry x="190" y="528" width="95" height="95" as="geometry" />
        </mxCell>
        <mxCell id="asjZOrvrOHNb07cIuOSn-6" value="" style="image;aspect=fixed;html=1;points=[];align=center;fontSize=12;image=img/lib/azure2/security/Azure_Sentinel.svg;" parent="1" vertex="1">
          <mxGeometry x="1380" y="660" width="56.00000000000001" height="68" as="geometry" />
        </mxCell>
        <mxCell id="asjZOrvrOHNb07cIuOSn-7" value="" style="image;aspect=fixed;html=1;points=[];align=center;fontSize=12;image=img/lib/azure2/management_governance/Log_Analytics_Workspaces.svg;" parent="1" vertex="1">
          <mxGeometry x="1270" y="513.75" width="43" height="43" as="geometry" />
        </mxCell>
        <mxCell id="asjZOrvrOHNb07cIuOSn-8" value="" style="shape=image;verticalLabelPosition=bottom;labelBackgroundColor=default;verticalAlign=top;aspect=fixed;imageAspect=0;image=data:image/png,iVBORw0KGgoAAAANSUhEUgAAADcAAAAxCAYAAAB+gjFbAAAAAXNSR0IArs4c6QAAAARnQU1BAACxjwv8YQUAAAAJcEhZcwAAFiUAABYlAUlSJPAAAAepSURBVGhD7Znbb1TXFcZ/+5w548G3sXGMbWzjS8TNwQIBIm0EEaUpvaiqEGmplD5VVV+q9h/o3xGpT5X60lakagJqUjUpJa2pEFRFQaGYGNsY4xgwvs/YczmXvfpwZs6cudr0qYP4pPXgPec7a39nr73W2ttqenpaeEGhwuI2HUjYgquhnhQbQKMFLVGFZRTGA3EpF8bmPG4/0yTs+hIXUdDfqjjdbzIcV0RyAgNxtxY0vxxzeLCu0fWkLAdDwc+OWLwzYtLVqPyx/I/3VzRrWalLYQBaYH5Dk8gWxgJxGc9/oJ5ha/BCGkLb78XDS3H1ipfi6hUvxdUrXmhxQft1eQo+nNYk7fqt5Cd6DM7vVQzG/b8Dcde+jHLtkcWmU8KoIxzq9Di9x6anWUNY3I3HMa492kHK8ZvOesRrnTan+tN0NXnwou+5F1pczbCMGNDeaNDYoKgVrFkXljc0dq4lb4gouloNjFokIG0La2kh6/o8Q0FLTNG2w0DV4GqBxaQm4woSyn+lYVlTXFeLwbEBi91xs7ozgfWMcHPGZnbFwzRguCPCqb1RzC3iYm7V47M5h4WEnwBaY4pDuy1GeiLV/QFaw40Zh/vPXJzQGee5xI32Wpw9GGVPuxmMVcJaWvh4PMv1BzaWqfja/ijfGWmoOUGA8acun9zLMrPkT6a3zeStA1GO9lulj5bhyhc2f5vIkgqVrlJxhW9bobwZyretoAAjtEr5O4znhaHYcrXzCPurhuARAUT8a4a8CeKPb9O0gH5OTsAT0BV+q2U6zBWK9l+xOAFXpMg8XU6oBEHwdJ7j87YDEQJenqu3ydW64DPgi/9h8witnASEvG1kNOtpTSKjSdawREZIZrTvzBNWU96WnGRGs5nVOF7BX9rRrG3Ln2YtU8z1tCAi/pLmUGi/5qJcfdjAZiihxCKKvbssOptrp+aNrHD3ic1GVlBAc8zgWP/W2XJ502Nm2WM97S+XZSp2x01efWWLbCnw+bzNaqr4GvLwLoczgzY9zSXZcuxRlCsl4uoNR3Y5vDVUEBd8W42g8eM2bIKAqm1SgafFA5yaJrho0c/NA6eM54k///CuC1bu01mLj2eibNiFlWuMKka6LXrjJkaVOBFgLe0X4/VMrhtHcyj+L0Zab2Iqt5QS4HF6mLuJEyxmewFoMNIMN99lNH6diKp+PLGlgetL32Uh048nhRp8tNvlm0M2vS0lp4KrsxZ/eWCRDIk73Bvl3Ggjwx2Rqu2XACspzaXPU/xjOgOAqTx+0P8uF/reJWqEroBL8O/VM7w393PGE8cBGGz6gu/3/YrTnZdyb64GxcW5X/DB/E/ZcHOHN+B4t8e3hgviCmEZpPGCWQZETYVlKiJVzAp+99N63gw8LMOuaaZyEPGzrM+xiRkbWEa27NliyxI1Un5ohnzqqqVAKIvh5ynHUhr/2yiQIrmPGnDyLcDWENFF3Eo+izoUr0xgqYTqpilw3VynsxXKE5H/ru1A8JuOUnFhfcVhKcVhaXuCu41ZivjPhrnbWYFg5XIcRxs4euumGcDWETxdvBX8j1PwGySUPz8wuXTfJGEXXtDdYnJyaAcDO2sUVfETytXJNA9X/QxnoHmz8xNO7fprzaw3mRxhbPEsj1LDALRZq7zeMcZXOz5Fqep9mBaTDx9f4M76UWzdEIy/sVtzbp/HnlZfYCDuo2mD9yeKxUUM/+DYaBl+618JAo4nLKe84LAK0G6tEI+uYNRYwZTXxJq9k4yOAWAqTUtknfboUlV3AIJiIdND2mvE74l8vNGrOb9fM1Aq7k9TBn+cUKxna732/xsn+4S392sG4yXiLk8q/jBhFP1nssHMMNT0gFcaFjGqhImgSDotTCb3s+k2A6CU0N84y57G2ao8gOVsB3OpARKOX6sihkN37CkDTTOYym+hKsGVCPcSr7Fut6Gl0MCe7BMuHJBycZfuKy5OKNZD4g623uPt/vc40DpedZIiioVsNxdn3+Hm8lcgF17f6/2Ac33vYxmhOC/B7dWjXP7yPBPJ/QD0xJ7w7d0fcabrCkYNcZ5E+P3sj/j7wtdJeTuC8Tf7hB8eFIZydT2S/0GTzzyFsOyOzXG47RajbXeCsUpYyHRzY/F1ri/64lCartg8R9pv0VCjQ0k4zewwk8H5r8Va4VD8Nsd33ix9tAyfrRxhbOEkni6IKz2wFp3n/BqlA1O4VVesGAJ4IW55Qa2EfOOQ54l4GDV60TAUbtl8S32G6lxJzci3M1vPESq0byI5zTUg+cL/P/kDr6T98qq3X6Xdgl9Udc2k7EMEXG0Ucbc1ScldF+Q4rlZ4oQRRC54YuLq4o/LvfQooWjlXwNV+V+Jq4Wmmg6nkIFPJYaaSQ9VtY4j59K6A52hYstuY3hgsfzZk8+kuNr1YwFtzmplKDjK5hb/J5DAzG31kPbNovl61a4bf3dP85o5mNbT/myIpDrf/h77GJ1WLsQBrdis3l46xlkvpCmEkPsFI/D5mjT37ON3F+Po+lrIdAEQNm1ebH3Ko7R6mquyP3Kr9c/EEzzKdRee5bwwofjxqsLfdj7ZA3G/HNb++4xWJqzecHTT4yajBvpy4ssY5vMz1Zrpk0xXtXk/7G7xerTSQ/wuuJ2bTGQ190AAAAABJRU5ErkJggg==;" parent="1" vertex="1">
          <mxGeometry x="1264" y="570.75" width="55" height="49" as="geometry" />
        </mxCell>
        <mxCell id="asjZOrvrOHNb07cIuOSn-9" style="edgeStyle=orthogonalEdgeStyle;rounded=0;orthogonalLoop=1;jettySize=auto;html=1;exitX=1;exitY=0.5;exitDx=0;exitDy=0;entryX=0;entryY=0.5;entryDx=0;entryDy=0;" parent="1" source="asjZOrvrOHNb07cIuOSn-10" target="asjZOrvrOHNb07cIuOSn-2" edge="1">
          <mxGeometry relative="1" as="geometry">
            <mxPoint x="860" y="575.5" as="targetPoint" />
          </mxGeometry>
        </mxCell>
        <mxCell id="asjZOrvrOHNb07cIuOSn-10" value="" style="rounded=1;whiteSpace=wrap;html=1;strokeColor=#666666;fillColor=#f5f5f5;fontColor=#333333;" parent="1" vertex="1">
          <mxGeometry x="487.5" y="475.5" width="310" height="200" as="geometry" />
        </mxCell>
        <mxCell id="asjZOrvrOHNb07cIuOSn-11" value="" style="rounded=1;whiteSpace=wrap;html=1;strokeColor=#3333FF;" parent="1" vertex="1">
          <mxGeometry x="517.5" y="496" width="240" height="77.25" as="geometry" />
        </mxCell>
        <mxCell id="asjZOrvrOHNb07cIuOSn-14" value="&lt;font style=&quot;font-size: 18px;&quot;&gt;FortiGate VM&lt;/font&gt;" style="text;html=1;strokeColor=none;fillColor=none;align=center;verticalAlign=middle;whiteSpace=wrap;rounded=0;fontSize=13;movable=1;resizable=1;rotatable=1;deletable=1;editable=1;connectable=1;direction=east;container=0;" parent="1" vertex="1">
          <mxGeometry x="152.5" y="602.5" width="170" height="70" as="geometry" />
        </mxCell>
        <mxCell id="asjZOrvrOHNb07cIuOSn-15" value="&lt;font style=&quot;font-size: 18px;&quot;&gt;Fluentd&lt;/font&gt;" style="text;html=1;strokeColor=none;fillColor=none;align=center;verticalAlign=middle;whiteSpace=wrap;rounded=0;fontSize=18;movable=1;resizable=1;rotatable=1;deletable=1;editable=1;connectable=1;direction=east;container=0;" parent="1" vertex="1">
          <mxGeometry x="557.5" y="496" width="170" height="70" as="geometry" />
        </mxCell>
        <mxCell id="asjZOrvrOHNb07cIuOSn-16" value="&lt;font style=&quot;font-size: 18px;&quot;&gt;Microsoft Sentinel&lt;/font&gt;" style="text;html=1;strokeColor=none;fillColor=none;align=center;verticalAlign=middle;whiteSpace=wrap;rounded=0;fontSize=13;movable=1;resizable=1;rotatable=1;deletable=1;editable=1;connectable=1;direction=east;container=0;" parent="1" vertex="1">
          <mxGeometry x="1030" y="678" width="210" height="70" as="geometry" />
        </mxCell>
        <mxCell id="asjZOrvrOHNb07cIuOSn-17" value="&lt;font style=&quot;font-size: 18px;&quot;&gt;TCP 443 (HTTPS)&lt;/font&gt;" style="text;html=1;strokeColor=none;fillColor=none;align=center;verticalAlign=middle;whiteSpace=wrap;rounded=0;fontSize=13;movable=1;resizable=1;rotatable=1;deletable=1;editable=1;connectable=1;direction=east;container=0;" parent="1" vertex="1">
          <mxGeometry x="780" y="543" width="200" height="44" as="geometry" />
        </mxCell>
        <mxCell id="asjZOrvrOHNb07cIuOSn-18" value="" style="rounded=1;whiteSpace=wrap;html=1;strokeColor=#3333FF;" parent="1" vertex="1">
          <mxGeometry x="1120" y="508.5" width="290" height="129.5" as="geometry" />
        </mxCell>
        <mxCell id="asjZOrvrOHNb07cIuOSn-19" value="&lt;font style=&quot;font-size: 18px;&quot;&gt;TCP/UDP 514&lt;/font&gt;" style="text;html=1;strokeColor=none;fillColor=none;align=center;verticalAlign=middle;whiteSpace=wrap;rounded=0;fontSize=13;movable=1;resizable=1;rotatable=1;deletable=1;editable=1;connectable=1;direction=east;container=0;" parent="1" vertex="1">
          <mxGeometry x="310" y="543" width="120" height="44" as="geometry" />
        </mxCell>
        <mxCell id="asjZOrvrOHNb07cIuOSn-22" value="" style="shape=image;verticalLabelPosition=bottom;labelBackgroundColor=default;verticalAlign=top;aspect=fixed;imageAspect=0;image=data:image/png,iVBORw0KGgoAAAANSUhEUgAAADcAAAAxCAYAAAB+gjFbAAAAAXNSR0IArs4c6QAAAARnQU1BAACxjwv8YQUAAAAJcEhZcwAAFiUAABYlAUlSJPAAAAepSURBVGhD7Znbb1TXFcZ/+5w548G3sXGMbWzjS8TNwQIBIm0EEaUpvaiqEGmplD5VVV+q9h/o3xGpT5X60lakagJqUjUpJa2pEFRFQaGYGNsY4xgwvs/YczmXvfpwZs6cudr0qYP4pPXgPec7a39nr73W2ttqenpaeEGhwuI2HUjYgquhnhQbQKMFLVGFZRTGA3EpF8bmPG4/0yTs+hIXUdDfqjjdbzIcV0RyAgNxtxY0vxxzeLCu0fWkLAdDwc+OWLwzYtLVqPyx/I/3VzRrWalLYQBaYH5Dk8gWxgJxGc9/oJ5ha/BCGkLb78XDS3H1ipfi6hUvxdUrXmhxQft1eQo+nNYk7fqt5Cd6DM7vVQzG/b8Dcde+jHLtkcWmU8KoIxzq9Di9x6anWUNY3I3HMa492kHK8ZvOesRrnTan+tN0NXnwou+5F1pczbCMGNDeaNDYoKgVrFkXljc0dq4lb4gouloNjFokIG0La2kh6/o8Q0FLTNG2w0DV4GqBxaQm4woSyn+lYVlTXFeLwbEBi91xs7ozgfWMcHPGZnbFwzRguCPCqb1RzC3iYm7V47M5h4WEnwBaY4pDuy1GeiLV/QFaw40Zh/vPXJzQGee5xI32Wpw9GGVPuxmMVcJaWvh4PMv1BzaWqfja/ijfGWmoOUGA8acun9zLMrPkT6a3zeStA1GO9lulj5bhyhc2f5vIkgqVrlJxhW9bobwZyretoAAjtEr5O4znhaHYcrXzCPurhuARAUT8a4a8CeKPb9O0gH5OTsAT0BV+q2U6zBWK9l+xOAFXpMg8XU6oBEHwdJ7j87YDEQJenqu3ydW64DPgi/9h8witnASEvG1kNOtpTSKjSdawREZIZrTvzBNWU96WnGRGs5nVOF7BX9rRrG3Ln2YtU8z1tCAi/pLmUGi/5qJcfdjAZiihxCKKvbssOptrp+aNrHD3ic1GVlBAc8zgWP/W2XJ502Nm2WM97S+XZSp2x01efWWLbCnw+bzNaqr4GvLwLoczgzY9zSXZcuxRlCsl4uoNR3Y5vDVUEBd8W42g8eM2bIKAqm1SgafFA5yaJrho0c/NA6eM54k///CuC1bu01mLj2eibNiFlWuMKka6LXrjJkaVOBFgLe0X4/VMrhtHcyj+L0Zab2Iqt5QS4HF6mLuJEyxmewFoMNIMN99lNH6diKp+PLGlgetL32Uh048nhRp8tNvlm0M2vS0lp4KrsxZ/eWCRDIk73Bvl3Ggjwx2Rqu2XACspzaXPU/xjOgOAqTx+0P8uF/reJWqEroBL8O/VM7w393PGE8cBGGz6gu/3/YrTnZdyb64GxcW5X/DB/E/ZcHOHN+B4t8e3hgviCmEZpPGCWQZETYVlKiJVzAp+99N63gw8LMOuaaZyEPGzrM+xiRkbWEa27NliyxI1Un5ohnzqqqVAKIvh5ynHUhr/2yiQIrmPGnDyLcDWENFF3Eo+izoUr0xgqYTqpilw3VynsxXKE5H/ru1A8JuOUnFhfcVhKcVhaXuCu41ZivjPhrnbWYFg5XIcRxs4euumGcDWETxdvBX8j1PwGySUPz8wuXTfJGEXXtDdYnJyaAcDO2sUVfETytXJNA9X/QxnoHmz8xNO7fprzaw3mRxhbPEsj1LDALRZq7zeMcZXOz5Fqep9mBaTDx9f4M76UWzdEIy/sVtzbp/HnlZfYCDuo2mD9yeKxUUM/+DYaBl+618JAo4nLKe84LAK0G6tEI+uYNRYwZTXxJq9k4yOAWAqTUtknfboUlV3AIJiIdND2mvE74l8vNGrOb9fM1Aq7k9TBn+cUKxna732/xsn+4S392sG4yXiLk8q/jBhFP1nssHMMNT0gFcaFjGqhImgSDotTCb3s+k2A6CU0N84y57G2ao8gOVsB3OpARKOX6sihkN37CkDTTOYym+hKsGVCPcSr7Fut6Gl0MCe7BMuHJBycZfuKy5OKNZD4g623uPt/vc40DpedZIiioVsNxdn3+Hm8lcgF17f6/2Ac33vYxmhOC/B7dWjXP7yPBPJ/QD0xJ7w7d0fcabrCkYNcZ5E+P3sj/j7wtdJeTuC8Tf7hB8eFIZydT2S/0GTzzyFsOyOzXG47RajbXeCsUpYyHRzY/F1ri/64lCartg8R9pv0VCjQ0k4zewwk8H5r8Va4VD8Nsd33ix9tAyfrRxhbOEkni6IKz2wFp3n/BqlA1O4VVesGAJ4IW55Qa2EfOOQ54l4GDV60TAUbtl8S32G6lxJzci3M1vPESq0byI5zTUg+cL/P/kDr6T98qq3X6Xdgl9Udc2k7EMEXG0Ucbc1ScldF+Q4rlZ4oQRRC54YuLq4o/LvfQooWjlXwNV+V+Jq4Wmmg6nkIFPJYaaSQ9VtY4j59K6A52hYstuY3hgsfzZk8+kuNr1YwFtzmplKDjK5hb/J5DAzG31kPbNovl61a4bf3dP85o5mNbT/myIpDrf/h77GJ1WLsQBrdis3l46xlkvpCmEkPsFI/D5mjT37ON3F+Po+lrIdAEQNm1ebH3Ko7R6mquyP3Kr9c/EEzzKdRee5bwwofjxqsLfdj7ZA3G/HNb++4xWJqzecHTT4yajBvpy4ssY5vMz1Zrpk0xXtXk/7G7xerTSQ/wuuJ2bTGQ190AAAAABJRU5ErkJggg==;" parent="1" vertex="1">
          <mxGeometry x="1144" y="568.25" width="55" height="49" as="geometry" />
        </mxCell>
        <mxCell id="asjZOrvrOHNb07cIuOSn-23" value="" style="image;aspect=fixed;html=1;points=[];align=center;fontSize=12;image=img/lib/azure2/management_governance/Log_Analytics_Workspaces.svg;" parent="1" vertex="1">
          <mxGeometry x="1144" y="509.5" width="43" height="43" as="geometry" />
        </mxCell>
        <mxCell id="asjZOrvrOHNb07cIuOSn-24" value="&lt;font style=&quot;font-size: 12px;&quot;&gt;Log Analytics Workspace&lt;/font&gt;" style="text;html=1;strokeColor=none;fillColor=none;align=center;verticalAlign=middle;whiteSpace=wrap;rounded=0;fontSize=13;movable=1;resizable=1;rotatable=1;deletable=1;editable=1;connectable=1;direction=east;container=0;" parent="1" vertex="1">
          <mxGeometry x="1178" y="513.25" width="202" height="44" as="geometry" />
        </mxCell>
        <mxCell id="asjZOrvrOHNb07cIuOSn-25" value="&lt;font style=&quot;font-size: 12px;&quot;&gt;Custom Table&lt;/font&gt;" style="text;html=1;strokeColor=none;fillColor=none;align=center;verticalAlign=middle;whiteSpace=wrap;rounded=0;fontSize=13;movable=1;resizable=1;rotatable=1;deletable=1;editable=1;connectable=1;direction=east;container=0;" parent="1" vertex="1">
          <mxGeometry x="1159" y="573.25" width="212" height="44" as="geometry" />
        </mxCell>
        <mxCell id="asjZOrvrOHNb07cIuOSn-30" value="" style="shape=image;verticalLabelPosition=bottom;verticalAlign=top;imageAspect=0;aspect=fixed;image=data:image/svg+xml,PHN2ZyB4bWxucz0iaHR0cDovL3d3dy53My5vcmcvMjAwMC9zdmciIHZpZXdCb3g9IjAgMCAxOTIgMTkyIiBpZD0iU2VjdXJpdHlfTmV0d29ya2luZyI+PGRlZnM+PHN0eWxlPi5jbHMtMXtmaWxsOiM0NjQ2NDY7fS5jbHMtMntmaWxsOiMyY2NjZDM7fTwvc3R5bGU+PC9kZWZzPjxwYXRoIGQ9Im05MCwxNzguMDFjLTQxLjkxLDAtNzYuMDEtMzQuMS03Ni4wMS03Ni4wMVM0OC4wOSwyNi4wMSw4OS45OSwyNS45OWMuNTMsMCwxLjA0LjIxLDEuNDEuNTkuMzguMzguNTkuODguNTksMS40MXY3Mmg3Mi4wMWMxLjEsMCwyLC45LDIsMiwwLDQxLjkxLTM0LjA5LDc2LjAxLTc2LDc2LjAxWm0tMi4wMS0xNDcuOThjLTM4Ljc4LDEuMDctNzAsMzIuOTUtNzAsNzEuOTdzMzIuMyw3Mi4wMSw3Mi4wMSw3Mi4wMSw3MC45MS0zMS4yMiw3MS45Ny03MC4wMWgtNzEuOThjLTEuMSwwLTItLjktMi0yVjMwLjAyWiIgY2xhc3M9ImNscy0xIi8+PHBhdGggZD0ibTE3NiwxMDEuOTloLTg2LjAxVjE1Ljk5YzQ3LjQzLDAsODYuMDEsMzguNTgsODYuMDEsODZaIiBjbGFzcz0iY2xzLTIiLz48cGF0aCBkPSJtMTc2LDEwMy45OWgtODYuMDFjLTEuMSwwLTItLjktMi0yVjE1Ljk5YzAtMS4xLjktMiwyLTIsNDguNTMsMCw4OC4wMSwzOS40OCw4OC4wMSw4OCwwLDEuMS0uOSwyLTIsMlptLTg0LjAxLTRoODEuOTljLTEuMDUtNDQuNzQtMzcuMjUtODAuOTMtODEuOTktODEuOTh2ODEuOThaIiBjbGFzcz0iY2xzLTEiLz48L3N2Zz4=" parent="1" vertex="1">
          <mxGeometry x="517.5" y="577.5" width="95" height="95" as="geometry" />
        </mxCell>
        <mxCell id="asjZOrvrOHNb07cIuOSn-36" value="&lt;font style=&quot;font-size: 18px;&quot;&gt;FortiAnalyzer VM&lt;/font&gt;" style="text;html=1;strokeColor=none;fillColor=none;align=center;verticalAlign=middle;whiteSpace=wrap;rounded=0;fontSize=13;movable=1;resizable=1;rotatable=1;deletable=1;editable=1;connectable=1;direction=east;container=0;" parent="1" vertex="1">
          <mxGeometry x="617.5" y="590" width="170" height="70" as="geometry" />
        </mxCell>
      </root>
    </mxGraphModel>
  </diagram>
  <diagram id="8TwQipe3YbVyZVeEBady" name="FortiAppsec">
    <mxGraphModel dx="1418" dy="902" grid="1" gridSize="10" guides="1" tooltips="1" connect="1" arrows="1" fold="1" page="1" pageScale="1" pageWidth="850" pageHeight="1100" math="0" shadow="0">
      <root>
        <mxCell id="0" />
        <mxCell id="1" parent="0" />
        <mxCell id="0VRU_-ZseQibX1ERr7L0-1" value="" style="rounded=1;whiteSpace=wrap;html=1;sketch=0;fontSize=10;strokeColor=#007fff;fillColor=#FFFFFF;gradientColor=none;gradientDirection=south;absoluteArcSize=1;arcSize=4;fontFamily=Helvetica;" parent="1" vertex="1">
          <mxGeometry x="240" y="229" width="1240" height="651" as="geometry" />
        </mxCell>
        <mxCell id="0VRU_-ZseQibX1ERr7L0-2" value="" style="rounded=1;whiteSpace=wrap;html=1;fillColor=#f5f5f5;fontColor=#333333;strokeColor=#666666;" parent="1" vertex="1">
          <mxGeometry x="1210" y="325" width="210" height="460" as="geometry" />
        </mxCell>
        <mxCell id="0VRU_-ZseQibX1ERr7L0-3" style="vsdxID=7;fillColor=#ffffff;gradientColor=none;fillOpacity=0;strokeOpacity=0;shape=stencil(pZPRDoIgFIafhlt35Cy1y2b2Hi4xWSYOteztg7EMNXVMrg7w/4fv3zgE46ZIa0YoNK0Ud/biWVsQPBNKeVUwyVtVEUwIxrmQ7CZFV2VmX6daqauHeOoOvfGBdlB427uLEZa8soToReGy9tpJ09Uf1MHRXl+vP3q2pxtyOpbjjAVnMHDaZj94QbQHX/lD+xrd4izZF+ONef8kBKd44JQGnOBhF/nqp5pgwyomrGJN/4uqfxOS87I0AzagqGI6UerITCMmHw==);spacingTop=-3;spacingBottom=-3;spacingLeft=-3;spacingRight=-3;labelBackgroundColor=none;rounded=0;html=1;whiteSpace=wrap;" parent="1" vertex="1">
          <mxGeometry x="453.5" y="200" width="918" height="626" as="geometry" />
        </mxCell>
        <mxCell id="0VRU_-ZseQibX1ERr7L0-4" style="edgeStyle=orthogonalEdgeStyle;rounded=0;orthogonalLoop=1;jettySize=auto;html=1;entryX=0;entryY=0.5;entryDx=0;entryDy=0;strokeColor=#3333FF;" parent="1" edge="1">
          <mxGeometry relative="1" as="geometry">
            <mxPoint x="450" y="554.17" as="sourcePoint" />
            <mxPoint x="700" y="554.17" as="targetPoint" />
          </mxGeometry>
        </mxCell>
        <mxCell id="0VRU_-ZseQibX1ERr7L0-6" value="" style="image;aspect=fixed;html=1;points=[];align=center;fontSize=12;image=img/lib/azure2/security/Azure_Sentinel.svg;" parent="1" vertex="1">
          <mxGeometry x="1230" y="704" width="56.00000000000001" height="68" as="geometry" />
        </mxCell>
        <mxCell id="0VRU_-ZseQibX1ERr7L0-7" value="" style="image;aspect=fixed;html=1;points=[];align=center;fontSize=12;image=img/lib/azure2/management_governance/Log_Analytics_Workspaces.svg;" parent="1" vertex="1">
          <mxGeometry x="1228" y="540.25" width="43" height="43" as="geometry" />
        </mxCell>
        <mxCell id="0VRU_-ZseQibX1ERr7L0-8" value="" style="shape=image;verticalLabelPosition=bottom;labelBackgroundColor=default;verticalAlign=top;aspect=fixed;imageAspect=0;image=data:image/png,iVBORw0KGgoAAAANSUhEUgAAADcAAAAxCAYAAAB+gjFbAAAAAXNSR0IArs4c6QAAAARnQU1BAACxjwv8YQUAAAAJcEhZcwAAFiUAABYlAUlSJPAAAAepSURBVGhD7Znbb1TXFcZ/+5w548G3sXGMbWzjS8TNwQIBIm0EEaUpvaiqEGmplD5VVV+q9h/o3xGpT5X60lakagJqUjUpJa2pEFRFQaGYGNsY4xgwvs/YczmXvfpwZs6cudr0qYP4pPXgPec7a39nr73W2ttqenpaeEGhwuI2HUjYgquhnhQbQKMFLVGFZRTGA3EpF8bmPG4/0yTs+hIXUdDfqjjdbzIcV0RyAgNxtxY0vxxzeLCu0fWkLAdDwc+OWLwzYtLVqPyx/I/3VzRrWalLYQBaYH5Dk8gWxgJxGc9/oJ5ha/BCGkLb78XDS3H1ipfi6hUvxdUrXmhxQft1eQo+nNYk7fqt5Cd6DM7vVQzG/b8Dcde+jHLtkcWmU8KoIxzq9Di9x6anWUNY3I3HMa492kHK8ZvOesRrnTan+tN0NXnwou+5F1pczbCMGNDeaNDYoKgVrFkXljc0dq4lb4gouloNjFokIG0La2kh6/o8Q0FLTNG2w0DV4GqBxaQm4woSyn+lYVlTXFeLwbEBi91xs7ozgfWMcHPGZnbFwzRguCPCqb1RzC3iYm7V47M5h4WEnwBaY4pDuy1GeiLV/QFaw40Zh/vPXJzQGee5xI32Wpw9GGVPuxmMVcJaWvh4PMv1BzaWqfja/ijfGWmoOUGA8acun9zLMrPkT6a3zeStA1GO9lulj5bhyhc2f5vIkgqVrlJxhW9bobwZyretoAAjtEr5O4znhaHYcrXzCPurhuARAUT8a4a8CeKPb9O0gH5OTsAT0BV+q2U6zBWK9l+xOAFXpMg8XU6oBEHwdJ7j87YDEQJenqu3ydW64DPgi/9h8witnASEvG1kNOtpTSKjSdawREZIZrTvzBNWU96WnGRGs5nVOF7BX9rRrG3Ln2YtU8z1tCAi/pLmUGi/5qJcfdjAZiihxCKKvbssOptrp+aNrHD3ic1GVlBAc8zgWP/W2XJ502Nm2WM97S+XZSp2x01efWWLbCnw+bzNaqr4GvLwLoczgzY9zSXZcuxRlCsl4uoNR3Y5vDVUEBd8W42g8eM2bIKAqm1SgafFA5yaJrho0c/NA6eM54k///CuC1bu01mLj2eibNiFlWuMKka6LXrjJkaVOBFgLe0X4/VMrhtHcyj+L0Zab2Iqt5QS4HF6mLuJEyxmewFoMNIMN99lNH6diKp+PLGlgetL32Uh048nhRp8tNvlm0M2vS0lp4KrsxZ/eWCRDIk73Bvl3Ggjwx2Rqu2XACspzaXPU/xjOgOAqTx+0P8uF/reJWqEroBL8O/VM7w393PGE8cBGGz6gu/3/YrTnZdyb64GxcW5X/DB/E/ZcHOHN+B4t8e3hgviCmEZpPGCWQZETYVlKiJVzAp+99N63gw8LMOuaaZyEPGzrM+xiRkbWEa27NliyxI1Un5ohnzqqqVAKIvh5ynHUhr/2yiQIrmPGnDyLcDWENFF3Eo+izoUr0xgqYTqpilw3VynsxXKE5H/ru1A8JuOUnFhfcVhKcVhaXuCu41ZivjPhrnbWYFg5XIcRxs4euumGcDWETxdvBX8j1PwGySUPz8wuXTfJGEXXtDdYnJyaAcDO2sUVfETytXJNA9X/QxnoHmz8xNO7fprzaw3mRxhbPEsj1LDALRZq7zeMcZXOz5Fqep9mBaTDx9f4M76UWzdEIy/sVtzbp/HnlZfYCDuo2mD9yeKxUUM/+DYaBl+618JAo4nLKe84LAK0G6tEI+uYNRYwZTXxJq9k4yOAWAqTUtknfboUlV3AIJiIdND2mvE74l8vNGrOb9fM1Aq7k9TBn+cUKxna732/xsn+4S392sG4yXiLk8q/jBhFP1nssHMMNT0gFcaFjGqhImgSDotTCb3s+k2A6CU0N84y57G2ao8gOVsB3OpARKOX6sihkN37CkDTTOYym+hKsGVCPcSr7Fut6Gl0MCe7BMuHJBycZfuKy5OKNZD4g623uPt/vc40DpedZIiioVsNxdn3+Hm8lcgF17f6/2Ac33vYxmhOC/B7dWjXP7yPBPJ/QD0xJ7w7d0fcabrCkYNcZ5E+P3sj/j7wtdJeTuC8Tf7hB8eFIZydT2S/0GTzzyFsOyOzXG47RajbXeCsUpYyHRzY/F1ri/64lCartg8R9pv0VCjQ0k4zewwk8H5r8Va4VD8Nsd33ix9tAyfrRxhbOEkni6IKz2wFp3n/BqlA1O4VVesGAJ4IW55Qa2EfOOQ54l4GDV60TAUbtl8S32G6lxJzci3M1vPESq0byI5zTUg+cL/P/kDr6T98qq3X6Xdgl9Udc2k7EMEXG0Ucbc1ScldF+Q4rlZ4oQRRC54YuLq4o/LvfQooWjlXwNV+V+Jq4Wmmg6nkIFPJYaaSQ9VtY4j59K6A52hYstuY3hgsfzZk8+kuNr1YwFtzmplKDjK5hb/J5DAzG31kPbNovl61a4bf3dP85o5mNbT/myIpDrf/h77GJ1WLsQBrdis3l46xlkvpCmEkPsFI/D5mjT37ON3F+Po+lrIdAEQNm1ebH3Ko7R6mquyP3Kr9c/EEzzKdRee5bwwofjxqsLfdj7ZA3G/HNb++4xWJqzecHTT4yajBvpy4ssY5vMz1Zrpk0xXtXk/7G7xerTSQ/wuuJ2bTGQ190AAAAABJRU5ErkJggg==;" parent="1" vertex="1">
          <mxGeometry x="1222" y="597.25" width="55" height="49" as="geometry" />
        </mxCell>
        <mxCell id="0VRU_-ZseQibX1ERr7L0-9" style="edgeStyle=orthogonalEdgeStyle;rounded=0;orthogonalLoop=1;jettySize=auto;html=1;exitX=1;exitY=0.5;exitDx=0;exitDy=0;strokeColor=#3333FF;entryX=0;entryY=0.5;entryDx=0;entryDy=0;" parent="1" source="0VRU_-ZseQibX1ERr7L0-10" target="0VRU_-ZseQibX1ERr7L0-2" edge="1">
          <mxGeometry relative="1" as="geometry">
            <mxPoint x="1160" y="555.5454545454545" as="targetPoint" />
            <Array as="points">
              <mxPoint x="1180" y="555" />
            </Array>
          </mxGeometry>
        </mxCell>
        <mxCell id="0VRU_-ZseQibX1ERr7L0-10" value="" style="rounded=1;whiteSpace=wrap;html=1;strokeColor=#666666;fillColor=#f5f5f5;fontColor=#333333;" parent="1" vertex="1">
          <mxGeometry x="700" y="320" width="310" height="470" as="geometry" />
        </mxCell>
        <mxCell id="0VRU_-ZseQibX1ERr7L0-11" value="" style="rounded=1;whiteSpace=wrap;html=1;strokeColor=#3333FF;" parent="1" vertex="1">
          <mxGeometry x="750" y="369.5" width="210" height="111" as="geometry" />
        </mxCell>
        <mxCell id="0VRU_-ZseQibX1ERr7L0-12" value="" style="rounded=1;whiteSpace=wrap;html=1;strokeColor=#3333FF;" parent="1" vertex="1">
          <mxGeometry x="750" y="588" width="210" height="111" as="geometry" />
        </mxCell>
        <mxCell id="0VRU_-ZseQibX1ERr7L0-13" value="&lt;font style=&quot;font-size: 18px;&quot;&gt;Azure Monitor Agent (AMA)&lt;/font&gt;" style="text;html=1;strokeColor=none;fillColor=none;align=center;verticalAlign=middle;whiteSpace=wrap;rounded=0;fontSize=13;movable=1;resizable=1;rotatable=1;deletable=1;editable=1;connectable=1;direction=east;container=0;" parent="1" vertex="1">
          <mxGeometry x="770" y="608.5" width="170" height="70" as="geometry" />
        </mxCell>
        <mxCell id="0VRU_-ZseQibX1ERr7L0-14" value="" style="image;sketch=0;aspect=fixed;html=1;points=[];align=center;fontSize=12;image=img/lib/mscae/VM_Linux.svg;" parent="1" vertex="1">
          <mxGeometry x="730" y="730" width="50" height="46" as="geometry" />
        </mxCell>
        <mxCell id="0VRU_-ZseQibX1ERr7L0-15" value="&lt;font style=&quot;font-size: 18px;&quot;&gt;Log Forwarder (Linux VM)&lt;/font&gt;" style="text;html=1;strokeColor=none;fillColor=none;align=center;verticalAlign=middle;whiteSpace=wrap;rounded=0;fontSize=13;movable=1;resizable=1;rotatable=1;deletable=1;editable=1;connectable=1;direction=east;container=0;" parent="1" vertex="1">
          <mxGeometry x="790" y="720" width="170" height="70" as="geometry" />
        </mxCell>
        <mxCell id="0VRU_-ZseQibX1ERr7L0-16" value="&lt;font style=&quot;font-size: 18px;&quot;&gt;FortiAppSec&lt;/font&gt;" style="text;html=1;strokeColor=none;fillColor=none;align=center;verticalAlign=middle;whiteSpace=wrap;rounded=0;fontSize=13;movable=1;resizable=1;rotatable=1;deletable=1;editable=1;connectable=1;direction=east;container=0;" parent="1" vertex="1">
          <mxGeometry x="300" y="608.5" width="170" height="70" as="geometry" />
        </mxCell>
        <mxCell id="0VRU_-ZseQibX1ERr7L0-17" style="edgeStyle=orthogonalEdgeStyle;rounded=0;orthogonalLoop=1;jettySize=auto;html=1;entryX=0.5;entryY=0;entryDx=0;entryDy=0;strokeColor=#3333FF;" parent="1" target="0VRU_-ZseQibX1ERr7L0-12" edge="1">
          <mxGeometry relative="1" as="geometry">
            <mxPoint x="855" y="480" as="sourcePoint" />
          </mxGeometry>
        </mxCell>
        <mxCell id="0VRU_-ZseQibX1ERr7L0-18" value="&lt;font style=&quot;font-size: 18px;&quot;&gt;Syslog daemon (rsyslog/syslog-ng)&lt;/font&gt;" style="text;html=1;strokeColor=none;fillColor=none;align=center;verticalAlign=middle;whiteSpace=wrap;rounded=0;fontSize=13;movable=1;resizable=1;rotatable=1;deletable=1;editable=1;connectable=1;direction=east;container=0;" parent="1" vertex="1">
          <mxGeometry x="770" y="390" width="170" height="70" as="geometry" />
        </mxCell>
        <mxCell id="0VRU_-ZseQibX1ERr7L0-19" value="&lt;font style=&quot;font-size: 18px;&quot;&gt;TCP 28330&lt;/font&gt;" style="text;html=1;strokeColor=none;fillColor=none;align=center;verticalAlign=middle;whiteSpace=wrap;rounded=0;fontSize=13;movable=1;resizable=1;rotatable=1;deletable=1;editable=1;connectable=1;direction=east;container=0;" parent="1" vertex="1">
          <mxGeometry x="740" y="510" width="120" height="44" as="geometry" />
        </mxCell>
        <mxCell id="0VRU_-ZseQibX1ERr7L0-20" value="&lt;font style=&quot;font-size: 18px;&quot;&gt;Microsoft Sentinel&lt;/font&gt;" style="text;html=1;strokeColor=none;fillColor=none;align=center;verticalAlign=middle;whiteSpace=wrap;rounded=0;fontSize=13;movable=1;resizable=1;rotatable=1;deletable=1;editable=1;connectable=1;direction=east;container=0;" parent="1" vertex="1">
          <mxGeometry x="1290" y="704" width="120" height="70" as="geometry" />
        </mxCell>
        <mxCell id="0VRU_-ZseQibX1ERr7L0-21" value="&lt;font style=&quot;font-size: 18px;&quot;&gt;TCP 443 (HTTPS)&lt;/font&gt;" style="text;html=1;strokeColor=none;fillColor=none;align=center;verticalAlign=middle;whiteSpace=wrap;rounded=0;fontSize=13;movable=1;resizable=1;rotatable=1;deletable=1;editable=1;connectable=1;direction=east;container=0;" parent="1" vertex="1">
          <mxGeometry x="1020" y="514.5" width="160" height="44" as="geometry" />
        </mxCell>
        <mxCell id="0VRU_-ZseQibX1ERr7L0-22" value="" style="rounded=1;whiteSpace=wrap;html=1;strokeColor=#3333FF;" parent="1" vertex="1">
          <mxGeometry x="1218" y="535" width="192" height="129.5" as="geometry" />
        </mxCell>
        <mxCell id="0VRU_-ZseQibX1ERr7L0-23" value="&lt;font style=&quot;font-size: 18px;&quot;&gt;3.226.2.163 , 3.123.68.65&lt;br&gt;&lt;span style=&quot;&quot;&gt;UDP 514/TCP 601/SSL 6514&lt;/span&gt;&lt;br&gt;&lt;/font&gt;" style="text;html=1;strokeColor=none;fillColor=none;align=center;verticalAlign=middle;whiteSpace=wrap;rounded=0;fontSize=13;movable=1;resizable=1;rotatable=1;deletable=1;editable=1;connectable=1;direction=east;container=0;" parent="1" vertex="1">
          <mxGeometry x="440" y="505.5" width="270" height="53" as="geometry" />
        </mxCell>
        <mxCell id="0VRU_-ZseQibX1ERr7L0-24" value="&lt;font style=&quot;font-size: 18px;&quot;&gt;CEF/Facility local7&lt;/font&gt;" style="text;html=1;strokeColor=none;fillColor=none;align=center;verticalAlign=middle;whiteSpace=wrap;rounded=0;fontSize=13;movable=1;resizable=1;rotatable=1;deletable=1;editable=1;connectable=1;direction=east;container=0;" parent="1" vertex="1">
          <mxGeometry x="470" y="550" width="190" height="44" as="geometry" />
        </mxCell>
        <mxCell id="0VRU_-ZseQibX1ERr7L0-25" value="" style="rounded=1;whiteSpace=wrap;html=1;strokeColor=#3333FF;" parent="1" vertex="1">
          <mxGeometry x="1230" y="374.5" width="170" height="120.5" as="geometry" />
        </mxCell>
        <mxCell id="0VRU_-ZseQibX1ERr7L0-26" value="&lt;font style=&quot;font-size: 12px;&quot;&gt;Data Collection Rule DCR&lt;/font&gt;" style="text;html=1;strokeColor=none;fillColor=none;align=center;verticalAlign=middle;whiteSpace=wrap;rounded=0;fontSize=13;movable=1;resizable=1;rotatable=1;deletable=1;editable=1;connectable=1;direction=east;container=0;" parent="1" vertex="1">
          <mxGeometry x="1255" y="382.5" width="120" height="44" as="geometry" />
        </mxCell>
        <mxCell id="0VRU_-ZseQibX1ERr7L0-27" value="" style="shape=image;verticalLabelPosition=bottom;labelBackgroundColor=default;verticalAlign=top;aspect=fixed;imageAspect=0;image=data:image/png,iVBORw0KGgoAAAANSUhEUgAAADcAAAAxCAYAAAB+gjFbAAAAAXNSR0IArs4c6QAAAARnQU1BAACxjwv8YQUAAAAJcEhZcwAAFiUAABYlAUlSJPAAAAepSURBVGhD7Znbb1TXFcZ/+5w548G3sXGMbWzjS8TNwQIBIm0EEaUpvaiqEGmplD5VVV+q9h/o3xGpT5X60lakagJqUjUpJa2pEFRFQaGYGNsY4xgwvs/YczmXvfpwZs6cudr0qYP4pPXgPec7a39nr73W2ttqenpaeEGhwuI2HUjYgquhnhQbQKMFLVGFZRTGA3EpF8bmPG4/0yTs+hIXUdDfqjjdbzIcV0RyAgNxtxY0vxxzeLCu0fWkLAdDwc+OWLwzYtLVqPyx/I/3VzRrWalLYQBaYH5Dk8gWxgJxGc9/oJ5ha/BCGkLb78XDS3H1ipfi6hUvxdUrXmhxQft1eQo+nNYk7fqt5Cd6DM7vVQzG/b8Dcde+jHLtkcWmU8KoIxzq9Di9x6anWUNY3I3HMa492kHK8ZvOesRrnTan+tN0NXnwou+5F1pczbCMGNDeaNDYoKgVrFkXljc0dq4lb4gouloNjFokIG0La2kh6/o8Q0FLTNG2w0DV4GqBxaQm4woSyn+lYVlTXFeLwbEBi91xs7ozgfWMcHPGZnbFwzRguCPCqb1RzC3iYm7V47M5h4WEnwBaY4pDuy1GeiLV/QFaw40Zh/vPXJzQGee5xI32Wpw9GGVPuxmMVcJaWvh4PMv1BzaWqfja/ijfGWmoOUGA8acun9zLMrPkT6a3zeStA1GO9lulj5bhyhc2f5vIkgqVrlJxhW9bobwZyretoAAjtEr5O4znhaHYcrXzCPurhuARAUT8a4a8CeKPb9O0gH5OTsAT0BV+q2U6zBWK9l+xOAFXpMg8XU6oBEHwdJ7j87YDEQJenqu3ydW64DPgi/9h8witnASEvG1kNOtpTSKjSdawREZIZrTvzBNWU96WnGRGs5nVOF7BX9rRrG3Ln2YtU8z1tCAi/pLmUGi/5qJcfdjAZiihxCKKvbssOptrp+aNrHD3ic1GVlBAc8zgWP/W2XJ502Nm2WM97S+XZSp2x01efWWLbCnw+bzNaqr4GvLwLoczgzY9zSXZcuxRlCsl4uoNR3Y5vDVUEBd8W42g8eM2bIKAqm1SgafFA5yaJrho0c/NA6eM54k///CuC1bu01mLj2eibNiFlWuMKka6LXrjJkaVOBFgLe0X4/VMrhtHcyj+L0Zab2Iqt5QS4HF6mLuJEyxmewFoMNIMN99lNH6diKp+PLGlgetL32Uh048nhRp8tNvlm0M2vS0lp4KrsxZ/eWCRDIk73Bvl3Ggjwx2Rqu2XACspzaXPU/xjOgOAqTx+0P8uF/reJWqEroBL8O/VM7w393PGE8cBGGz6gu/3/YrTnZdyb64GxcW5X/DB/E/ZcHOHN+B4t8e3hgviCmEZpPGCWQZETYVlKiJVzAp+99N63gw8LMOuaaZyEPGzrM+xiRkbWEa27NliyxI1Un5ohnzqqqVAKIvh5ynHUhr/2yiQIrmPGnDyLcDWENFF3Eo+izoUr0xgqYTqpilw3VynsxXKE5H/ru1A8JuOUnFhfcVhKcVhaXuCu41ZivjPhrnbWYFg5XIcRxs4euumGcDWETxdvBX8j1PwGySUPz8wuXTfJGEXXtDdYnJyaAcDO2sUVfETytXJNA9X/QxnoHmz8xNO7fprzaw3mRxhbPEsj1LDALRZq7zeMcZXOz5Fqep9mBaTDx9f4M76UWzdEIy/sVtzbp/HnlZfYCDuo2mD9yeKxUUM/+DYaBl+618JAo4nLKe84LAK0G6tEI+uYNRYwZTXxJq9k4yOAWAqTUtknfboUlV3AIJiIdND2mvE74l8vNGrOb9fM1Aq7k9TBn+cUKxna732/xsn+4S392sG4yXiLk8q/jBhFP1nssHMMNT0gFcaFjGqhImgSDotTCb3s+k2A6CU0N84y57G2ao8gOVsB3OpARKOX6sihkN37CkDTTOYym+hKsGVCPcSr7Fut6Gl0MCe7BMuHJBycZfuKy5OKNZD4g623uPt/vc40DpedZIiioVsNxdn3+Hm8lcgF17f6/2Ac33vYxmhOC/B7dWjXP7yPBPJ/QD0xJ7w7d0fcabrCkYNcZ5E+P3sj/j7wtdJeTuC8Tf7hB8eFIZydT2S/0GTzzyFsOyOzXG47RajbXeCsUpYyHRzY/F1ri/64lCartg8R9pv0VCjQ0k4zewwk8H5r8Va4VD8Nsd33ix9tAyfrRxhbOEkni6IKz2wFp3n/BqlA1O4VVesGAJ4IW55Qa2EfOOQ54l4GDV60TAUbtl8S32G6lxJzci3M1vPESq0byI5zTUg+cL/P/kDr6T98qq3X6Xdgl9Udc2k7EMEXG0Ucbc1ScldF+Q4rlZ4oQRRC54YuLq4o/LvfQooWjlXwNV+V+Jq4Wmmg6nkIFPJYaaSQ9VtY4j59K6A52hYstuY3hgsfzZk8+kuNr1YwFtzmplKDjK5hb/J5DAzG31kPbNovl61a4bf3dP85o5mNbT/myIpDrf/h77GJ1WLsQBrdis3l46xlkvpCmEkPsFI/D5mjT37ON3F+Po+lrIdAEQNm1ebH3Ko7R6mquyP3Kr9c/EEzzKdRee5bwwofjxqsLfdj7ZA3G/HNb++4xWJqzecHTT4yajBvpy4ssY5vMz1Zrpk0xXtXk/7G7xerTSQ/wuuJ2bTGQ190AAAAABJRU5ErkJggg==;" parent="1" vertex="1">
          <mxGeometry x="1222" y="598.75" width="55" height="49" as="geometry" />
        </mxCell>
        <mxCell id="0VRU_-ZseQibX1ERr7L0-28" value="" style="image;aspect=fixed;html=1;points=[];align=center;fontSize=12;image=img/lib/azure2/management_governance/Log_Analytics_Workspaces.svg;" parent="1" vertex="1">
          <mxGeometry x="1228" y="541.75" width="43" height="43" as="geometry" />
        </mxCell>
        <mxCell id="0VRU_-ZseQibX1ERr7L0-29" value="&lt;font style=&quot;font-size: 12px;&quot;&gt;Resource: linux vm&lt;br&gt;Collect:&amp;nbsp; Log_local7&lt;br&gt;&lt;/font&gt;" style="text;html=1;strokeColor=none;fillColor=none;align=center;verticalAlign=middle;whiteSpace=wrap;rounded=0;fontSize=13;movable=1;resizable=1;rotatable=1;deletable=1;editable=1;connectable=1;direction=east;container=0;" parent="1" vertex="1">
          <mxGeometry x="1253" y="435" width="120" height="44" as="geometry" />
        </mxCell>
        <mxCell id="0VRU_-ZseQibX1ERr7L0-30" value="&lt;font style=&quot;font-size: 12px;&quot;&gt;Log Analytics Workspace&lt;/font&gt;" style="text;html=1;strokeColor=none;fillColor=none;align=center;verticalAlign=middle;whiteSpace=wrap;rounded=0;fontSize=13;movable=1;resizable=1;rotatable=1;deletable=1;editable=1;connectable=1;direction=east;container=0;" parent="1" vertex="1">
          <mxGeometry x="1280" y="545" width="120" height="39.25" as="geometry" />
        </mxCell>
        <mxCell id="0VRU_-ZseQibX1ERr7L0-31" value="&lt;font style=&quot;font-size: 12px;&quot;&gt;CommonSecurityLog&lt;/font&gt;" style="text;html=1;strokeColor=none;fillColor=none;align=center;verticalAlign=middle;whiteSpace=wrap;rounded=0;fontSize=13;movable=1;resizable=1;rotatable=1;deletable=1;editable=1;connectable=1;direction=east;container=0;" parent="1" vertex="1">
          <mxGeometry x="1280" y="599.75" width="120" height="44" as="geometry" />
        </mxCell>
        <mxCell id="bvPewws3IBbw1ZAjhskp-1" value="" style="shape=image;aspect=fixed;image=data:image/svg+xml,PD94bWwgdmVyc2lvbj0iMS4wIiBlbmNvZGluZz0iVVRGLTgiPz4KPHN2ZyBpZD0iU2VjdXJpdHlfTmV0d29ya2luZyIgZGF0YS1uYW1lPSJTZWN1cml0eSBOZXR3b3JraW5nIiB4bWxucz0iaHR0cDovL3d3dy53My5vcmcvMjAwMC9zdmciIHZpZXdCb3g9IjAgMCAxOTIgMTkyIj4KICA8ZGVmcz4KICAgIDxzdHlsZT4KICAgICAgLmNscy0xIHsKICAgICAgICBzdHJva2U6ICM0NjQ2NDY7CiAgICAgIH0KCiAgICAgIC5jbHMtMSwgLmNscy0yLCAuY2xzLTMsIC5jbHMtNCB7CiAgICAgICAgc3Ryb2tlLXdpZHRoOiA0cHg7CiAgICAgIH0KCiAgICAgIC5jbHMtMSwgLmNscy0yLCAuY2xzLTQgewogICAgICAgIHN0cm9rZS1saW5lY2FwOiByb3VuZDsKICAgICAgICBzdHJva2UtbGluZWpvaW46IHJvdW5kOwogICAgICB9CgogICAgICAuY2xzLTEsIC5jbHMtMywgLmNscy00IHsKICAgICAgICBmaWxsOiBub25lOwogICAgICB9CgogICAgICAuY2xzLTIgewogICAgICAgIGZpbGw6ICMzMDdmZTI7CiAgICAgIH0KCiAgICAgIC5jbHMtMiwgLmNscy0zLCAuY2xzLTQgewogICAgICAgIHN0cm9rZTogIzQ2NDY0NjsKICAgICAgfQoKICAgICAgLmNscy0zIHsKICAgICAgICBzdHJva2UtbWl0ZXJsaW1pdDogMTA7CiAgICAgIH0KICAgIDwvc3R5bGU+CiAgPC9kZWZzPgogIDxwYXRoIGNsYXNzPSJjbHMtMSIgZD0iTTk2LDE2Mi4xOGwtLjk4LS40N2MtMTQuMDEtNi43My0yMC43Ny0xMC41Ny0yNi4zNy0xNi45My00Ljc2LTUuNDEtNy41OS0xMy4xOC03LjU5LTIwLjc4di00Mi4yOGwyLjA3LS4xNmMxMS4zMi0uOSwyMS45OS00LjI4LDMxLjcyLTEwLjA0bDEuMTUtLjY4LDEuMTUuNjhjOS41OSw1LjY4LDIwLjU2LDkuMTYsMzEuNzIsMTAuMDRsMi4wNy4xNnY0Mi4yOGMwLDcuNjEtMi44NCwxNS4zOC03LjYsMjAuNzgtNS42LDYuMzYtMTIuMzYsMTAuMi0yNi4zNywxNi45M2wtLjk4LjQ3WiIvPgogIDxwYXRoIGNsYXNzPSJjbHMtMiIgZD0iTTE4MS4xLDg0LjgydjUuODNjLS4zMiwyLjQ1LS45Nyw0LjkxLTEuNTksNy4wNy0zLjgzLDEwLjA2LTEyLjE1LDE3LjE2LTIyLjUxLDE5LjU5LS4xMy4wMy0uMjYuMDYtLjQuMDkuMDItLjYyLjAzLTEuMjYuMDMtMS44OXYtLjA2Yy0uMDItMjQuMTYtMTQuMTUtNDQuOTgtMzQuNTktNTQuNy03Ljg4LTMuNzYtMTYuNzItNS44Ny0yNi4wNC01Ljg3LTQuNTEsMC04LjkuNS0xMy4xMSwxLjQzLTIzLDUuMDYtNDEuMTIsMjMuMjEtNDYuMTIsNDYuMjQtLjkxLDQuMTUtMS40LDguNDctMS40LDEyLjl2LjA2YzAsLjYyLDAsMS4yMy4wMywxLjg1LTEwLjQ1LTIuMzktMTguODUtOS41OS0yMi42OS0xOS45Ny0yLjExLTUuNS0yLjMtMTEuMzMtLjk1LTE2LjgxLDIuNTYtMTAuMzksMTAuNzEtMTkuNDYsMjItMjIuNDUsMy4xOC0uNjIsNi42OS0uOTIsOS44Ny0xLjI0LDEuMjcsMCwxLjI3LS42LDEuNTktMS4yMiw0LjQ4LTkuODIsMTEuODItMTUuOTUsMjIuMzUtMTguNCwzLjgzLS45Miw3LjY0LTEuMjUsMTEuNDctLjYyLjk3LjI5LDEuNTksMCwxLjkyLS42Myw3LjAxLTEwLjczLDE2Ljg5LTE3LjQ4LDI5LjY1LTE5LjY0LDEzLjA5LTEuODQsMjQuNTYsMS4yNCwzNC40NCw5LjUyLDcuMDQsNS41NCwxMS44MiwxMi45MSwxMy43MywyMS43OC42MiwzLjA4Ljk1LDYuNDUuOTUsOS44My4zMi45MS4zMiwxLjI0LDEuMjksMS41MywxMC4yMyw0LjM4LDE2Ljc2LDExLjQ1LDE5LjM1LDIxLjU0LjE0LjU3LjI3LDEuMTYuNDEsMS43OCwwLC45Mi4zMiwxLjU0LjMyLDIuNDZaIi8+CiAgPHBhdGggY2xhc3M9ImNscy00IiBkPSJNMTU2LjYzLDExNS40NXYuMDZjMCwuNjMsMCwxLjI3LS4wMywxLjg5LTEsMzIuNjEtMjcuNzMsNTguNzMtNjAuNiw1OC43My0yNC4xNywwLTQ1LjA0LTE0LjE1LTU0Ljc4LTM0LjYyLTMuNDktNy4zNi01LjU2LTE1LjUyLTUuODItMjQuMTUtLjAyLS42Mi0uMDMtMS4yMy0uMDMtMS44NXYtLjA2YzAtNC40My40OS04Ljc1LDEuNC0xMi45LDUtMjMuMDMsMjMuMTItNDEuMTgsNDYuMTItNDYuMjQsNC4yMS0uOTMsOC42LTEuNDMsMTMuMTEtMS40Myw5LjMyLDAsMTguMTYsMi4xMSwyNi4wNCw1Ljg3LDIwLjQ0LDkuNzIsMzQuNTcsMzAuNTQsMzQuNTksNTQuN1oiLz4KICA8Zz4KICAgIDxjaXJjbGUgY2xhc3M9ImNscy0yIiBjeD0iODIuODQiIGN5PSIxMDkuMTEiIHI9IjQuNDIiLz4KICAgIDxjaXJjbGUgY2xhc3M9ImNscy0yIiBjeD0iMTA2LjQ2IiBjeT0iMTA2LjY1IiByPSI0LjQyIi8+CiAgICA8Y2lyY2xlIGNsYXNzPSJjbHMtMiIgY3g9IjkwLjk0IiBjeT0iMTI5Ljg4IiByPSI0LjQyIi8+CiAgICA8Y2lyY2xlIGNsYXNzPSJjbHMtMyIgY3g9Ijk2IiBjeT0iMTE2LjUxIiByPSIyMy4yNCIvPgogICAgPHBhdGggY2xhc3M9ImNscy0zIiBkPSJNMTA5LjcyLDEwMy45N2MxLjYzLS41MywzLjMzLS45MSw1LjA4LTEuMTMiLz4KICAgIDxwYXRoIGNsYXNzPSJjbHMtMyIgZD0iTTkwLjU0LDEyNS40OGMxLjQ1LTcuMzIsNS43Mi0xMy42MywxMS42My0xNy43NiIvPgogICAgPHBhdGggY2xhc3M9ImNscy0zIiBkPSJNOTEuMiwxMzkuMjVjLS40OS0xLjYyLS44My0zLjMtMS4wMy01LjAyIi8+CiAgICA8cGF0aCBjbGFzcz0iY2xzLTMiIGQ9Ik04Mi40NywxMDQuNzFjLjczLTMuMzgsMi4wNS02LjUzLDMuODctOS4zNSIvPgogICAgPHBhdGggY2xhc3M9ImNscy0zIiBkPSJNODcuMjgsMTI3LjQ0Yy0yLjkyLTQtNC44Mi04Ljc5LTUuMzEtMTMuOTkiLz4KICAgIDxwYXRoIGNsYXNzPSJjbHMtMyIgZD0iTTEwMy44NSwxMzguMzljLTMuODUtLjg4LTcuNC0yLjU1LTEwLjQ3LTQuODIiLz4KICAgIDxwYXRoIGNsYXNzPSJjbHMtMyIgZD0iTTExMC43OCwxMDcuNThjMy4wNywxLjQzLDUuODUsMy4zOCw4LjI1LDUuNzIiLz4KICAgIDxwYXRoIGNsYXNzPSJjbHMtMyIgZD0iTTg2Ljc2LDEwNy4wN2MzLjUyLTEuNDYsNy4zOC0yLjI3LDExLjQzLTIuMjcsMS40LDAsMi43OC4xLDQuMTMuMjgiLz4KICAgIDxwYXRoIGNsYXNzPSJjbHMtMyIgZD0iTTcyLjg4LDExOC44OGMxLjcxLTIuNzUsMy44NS01LjIsNi4zMy03LjI2Ii8+CiAgPC9nPgo8L3N2Zz4=;" parent="1" vertex="1">
          <mxGeometry x="303.5" y="480" width="150" height="150" as="geometry" />
        </mxCell>
      </root>
    </mxGraphModel>
  </diagram>
  <diagram id="ZM5Tj-rssBRLmq_LDu3m" name="fwb-vm">
    <mxGraphModel dx="1134" dy="730" grid="1" gridSize="10" guides="1" tooltips="1" connect="1" arrows="1" fold="1" page="1" pageScale="1" pageWidth="850" pageHeight="1100" math="0" shadow="0">
      <root>
        <mxCell id="0" />
        <mxCell id="1" parent="0" />
        <mxCell id="eZbDl8tRPw6CptiUavj2-1" value="" style="rounded=1;whiteSpace=wrap;html=1;sketch=0;fontSize=10;strokeColor=#007fff;fillColor=#FFFFFF;gradientColor=none;gradientDirection=south;absoluteArcSize=1;arcSize=4;fontFamily=Helvetica;" vertex="1" parent="1">
          <mxGeometry x="240" y="229" width="1240" height="651" as="geometry" />
        </mxCell>
        <mxCell id="eZbDl8tRPw6CptiUavj2-2" value="" style="rounded=1;whiteSpace=wrap;html=1;fillColor=#f5f5f5;fontColor=#333333;strokeColor=#666666;" vertex="1" parent="1">
          <mxGeometry x="1210" y="325" width="210" height="460" as="geometry" />
        </mxCell>
        <mxCell id="eZbDl8tRPw6CptiUavj2-3" style="vsdxID=7;fillColor=#ffffff;gradientColor=none;fillOpacity=0;strokeOpacity=0;shape=stencil(pZPRDoIgFIafhlt35Cy1y2b2Hi4xWSYOteztg7EMNXVMrg7w/4fv3zgE46ZIa0YoNK0Ud/biWVsQPBNKeVUwyVtVEUwIxrmQ7CZFV2VmX6daqauHeOoOvfGBdlB427uLEZa8soToReGy9tpJ09Uf1MHRXl+vP3q2pxtyOpbjjAVnMHDaZj94QbQHX/lD+xrd4izZF+ONef8kBKd44JQGnOBhF/nqp5pgwyomrGJN/4uqfxOS87I0AzagqGI6UerITCMmHw==);spacingTop=-3;spacingBottom=-3;spacingLeft=-3;spacingRight=-3;labelBackgroundColor=none;rounded=0;html=1;whiteSpace=wrap;" vertex="1" parent="1">
          <mxGeometry x="453.5" y="200" width="918" height="626" as="geometry" />
        </mxCell>
        <mxCell id="eZbDl8tRPw6CptiUavj2-4" style="edgeStyle=orthogonalEdgeStyle;rounded=0;orthogonalLoop=1;jettySize=auto;html=1;entryX=0;entryY=0.5;entryDx=0;entryDy=0;strokeColor=#3333FF;" edge="1" parent="1">
          <mxGeometry relative="1" as="geometry">
            <mxPoint x="450" y="554.17" as="sourcePoint" />
            <mxPoint x="700" y="554.17" as="targetPoint" />
          </mxGeometry>
        </mxCell>
        <mxCell id="eZbDl8tRPw6CptiUavj2-5" value="" style="image;aspect=fixed;html=1;points=[];align=center;fontSize=12;image=img/lib/azure2/security/Azure_Sentinel.svg;" vertex="1" parent="1">
          <mxGeometry x="1230" y="704" width="56.00000000000001" height="68" as="geometry" />
        </mxCell>
        <mxCell id="eZbDl8tRPw6CptiUavj2-6" value="" style="image;aspect=fixed;html=1;points=[];align=center;fontSize=12;image=img/lib/azure2/management_governance/Log_Analytics_Workspaces.svg;" vertex="1" parent="1">
          <mxGeometry x="1228" y="540.25" width="43" height="43" as="geometry" />
        </mxCell>
        <mxCell id="eZbDl8tRPw6CptiUavj2-7" value="" style="shape=image;verticalLabelPosition=bottom;labelBackgroundColor=default;verticalAlign=top;aspect=fixed;imageAspect=0;image=data:image/png,iVBORw0KGgoAAAANSUhEUgAAADcAAAAxCAYAAAB+gjFbAAAAAXNSR0IArs4c6QAAAARnQU1BAACxjwv8YQUAAAAJcEhZcwAAFiUAABYlAUlSJPAAAAepSURBVGhD7Znbb1TXFcZ/+5w548G3sXGMbWzjS8TNwQIBIm0EEaUpvaiqEGmplD5VVV+q9h/o3xGpT5X60lakagJqUjUpJa2pEFRFQaGYGNsY4xgwvs/YczmXvfpwZs6cudr0qYP4pPXgPec7a39nr73W2ttqenpaeEGhwuI2HUjYgquhnhQbQKMFLVGFZRTGA3EpF8bmPG4/0yTs+hIXUdDfqjjdbzIcV0RyAgNxtxY0vxxzeLCu0fWkLAdDwc+OWLwzYtLVqPyx/I/3VzRrWalLYQBaYH5Dk8gWxgJxGc9/oJ5ha/BCGkLb78XDS3H1ipfi6hUvxdUrXmhxQft1eQo+nNYk7fqt5Cd6DM7vVQzG/b8Dcde+jHLtkcWmU8KoIxzq9Di9x6anWUNY3I3HMa492kHK8ZvOesRrnTan+tN0NXnwou+5F1pczbCMGNDeaNDYoKgVrFkXljc0dq4lb4gouloNjFokIG0La2kh6/o8Q0FLTNG2w0DV4GqBxaQm4woSyn+lYVlTXFeLwbEBi91xs7ozgfWMcHPGZnbFwzRguCPCqb1RzC3iYm7V47M5h4WEnwBaY4pDuy1GeiLV/QFaw40Zh/vPXJzQGee5xI32Wpw9GGVPuxmMVcJaWvh4PMv1BzaWqfja/ijfGWmoOUGA8acun9zLMrPkT6a3zeStA1GO9lulj5bhyhc2f5vIkgqVrlJxhW9bobwZyretoAAjtEr5O4znhaHYcrXzCPurhuARAUT8a4a8CeKPb9O0gH5OTsAT0BV+q2U6zBWK9l+xOAFXpMg8XU6oBEHwdJ7j87YDEQJenqu3ydW64DPgi/9h8witnASEvG1kNOtpTSKjSdawREZIZrTvzBNWU96WnGRGs5nVOF7BX9rRrG3Ln2YtU8z1tCAi/pLmUGi/5qJcfdjAZiihxCKKvbssOptrp+aNrHD3ic1GVlBAc8zgWP/W2XJ502Nm2WM97S+XZSp2x01efWWLbCnw+bzNaqr4GvLwLoczgzY9zSXZcuxRlCsl4uoNR3Y5vDVUEBd8W42g8eM2bIKAqm1SgafFA5yaJrho0c/NA6eM54k///CuC1bu01mLj2eibNiFlWuMKka6LXrjJkaVOBFgLe0X4/VMrhtHcyj+L0Zab2Iqt5QS4HF6mLuJEyxmewFoMNIMN99lNH6diKp+PLGlgetL32Uh048nhRp8tNvlm0M2vS0lp4KrsxZ/eWCRDIk73Bvl3Ggjwx2Rqu2XACspzaXPU/xjOgOAqTx+0P8uF/reJWqEroBL8O/VM7w393PGE8cBGGz6gu/3/YrTnZdyb64GxcW5X/DB/E/ZcHOHN+B4t8e3hgviCmEZpPGCWQZETYVlKiJVzAp+99N63gw8LMOuaaZyEPGzrM+xiRkbWEa27NliyxI1Un5ohnzqqqVAKIvh5ynHUhr/2yiQIrmPGnDyLcDWENFF3Eo+izoUr0xgqYTqpilw3VynsxXKE5H/ru1A8JuOUnFhfcVhKcVhaXuCu41ZivjPhrnbWYFg5XIcRxs4euumGcDWETxdvBX8j1PwGySUPz8wuXTfJGEXXtDdYnJyaAcDO2sUVfETytXJNA9X/QxnoHmz8xNO7fprzaw3mRxhbPEsj1LDALRZq7zeMcZXOz5Fqep9mBaTDx9f4M76UWzdEIy/sVtzbp/HnlZfYCDuo2mD9yeKxUUM/+DYaBl+618JAo4nLKe84LAK0G6tEI+uYNRYwZTXxJq9k4yOAWAqTUtknfboUlV3AIJiIdND2mvE74l8vNGrOb9fM1Aq7k9TBn+cUKxna732/xsn+4S392sG4yXiLk8q/jBhFP1nssHMMNT0gFcaFjGqhImgSDotTCb3s+k2A6CU0N84y57G2ao8gOVsB3OpARKOX6sihkN37CkDTTOYym+hKsGVCPcSr7Fut6Gl0MCe7BMuHJBycZfuKy5OKNZD4g623uPt/vc40DpedZIiioVsNxdn3+Hm8lcgF17f6/2Ac33vYxmhOC/B7dWjXP7yPBPJ/QD0xJ7w7d0fcabrCkYNcZ5E+P3sj/j7wtdJeTuC8Tf7hB8eFIZydT2S/0GTzzyFsOyOzXG47RajbXeCsUpYyHRzY/F1ri/64lCartg8R9pv0VCjQ0k4zewwk8H5r8Va4VD8Nsd33ix9tAyfrRxhbOEkni6IKz2wFp3n/BqlA1O4VVesGAJ4IW55Qa2EfOOQ54l4GDV60TAUbtl8S32G6lxJzci3M1vPESq0byI5zTUg+cL/P/kDr6T98qq3X6Xdgl9Udc2k7EMEXG0Ucbc1ScldF+Q4rlZ4oQRRC54YuLq4o/LvfQooWjlXwNV+V+Jq4Wmmg6nkIFPJYaaSQ9VtY4j59K6A52hYstuY3hgsfzZk8+kuNr1YwFtzmplKDjK5hb/J5DAzG31kPbNovl61a4bf3dP85o5mNbT/myIpDrf/h77GJ1WLsQBrdis3l46xlkvpCmEkPsFI/D5mjT37ON3F+Po+lrIdAEQNm1ebH3Ko7R6mquyP3Kr9c/EEzzKdRee5bwwofjxqsLfdj7ZA3G/HNb++4xWJqzecHTT4yajBvpy4ssY5vMz1Zrpk0xXtXk/7G7xerTSQ/wuuJ2bTGQ190AAAAABJRU5ErkJggg==;" vertex="1" parent="1">
          <mxGeometry x="1222" y="597.25" width="55" height="49" as="geometry" />
        </mxCell>
        <mxCell id="eZbDl8tRPw6CptiUavj2-8" style="edgeStyle=orthogonalEdgeStyle;rounded=0;orthogonalLoop=1;jettySize=auto;html=1;exitX=1;exitY=0.5;exitDx=0;exitDy=0;strokeColor=#3333FF;entryX=0;entryY=0.5;entryDx=0;entryDy=0;" edge="1" parent="1" source="eZbDl8tRPw6CptiUavj2-9" target="eZbDl8tRPw6CptiUavj2-2">
          <mxGeometry relative="1" as="geometry">
            <mxPoint x="1160" y="555.5454545454545" as="targetPoint" />
            <Array as="points">
              <mxPoint x="1180" y="555" />
            </Array>
          </mxGeometry>
        </mxCell>
        <mxCell id="eZbDl8tRPw6CptiUavj2-9" value="" style="rounded=1;whiteSpace=wrap;html=1;strokeColor=#666666;fillColor=#f5f5f5;fontColor=#333333;" vertex="1" parent="1">
          <mxGeometry x="700" y="320" width="310" height="470" as="geometry" />
        </mxCell>
        <mxCell id="eZbDl8tRPw6CptiUavj2-10" value="" style="rounded=1;whiteSpace=wrap;html=1;strokeColor=#3333FF;" vertex="1" parent="1">
          <mxGeometry x="750" y="369.5" width="210" height="111" as="geometry" />
        </mxCell>
        <mxCell id="eZbDl8tRPw6CptiUavj2-11" value="" style="rounded=1;whiteSpace=wrap;html=1;strokeColor=#3333FF;" vertex="1" parent="1">
          <mxGeometry x="750" y="588" width="210" height="111" as="geometry" />
        </mxCell>
        <mxCell id="eZbDl8tRPw6CptiUavj2-12" value="&lt;font style=&quot;font-size: 18px;&quot;&gt;Azure Monitor Agent (AMA)&lt;/font&gt;" style="text;html=1;strokeColor=none;fillColor=none;align=center;verticalAlign=middle;whiteSpace=wrap;rounded=0;fontSize=13;movable=1;resizable=1;rotatable=1;deletable=1;editable=1;connectable=1;direction=east;container=0;" vertex="1" parent="1">
          <mxGeometry x="770" y="608.5" width="170" height="70" as="geometry" />
        </mxCell>
        <mxCell id="eZbDl8tRPw6CptiUavj2-13" value="" style="image;sketch=0;aspect=fixed;html=1;points=[];align=center;fontSize=12;image=img/lib/mscae/VM_Linux.svg;" vertex="1" parent="1">
          <mxGeometry x="730" y="730" width="50" height="46" as="geometry" />
        </mxCell>
        <mxCell id="eZbDl8tRPw6CptiUavj2-14" value="&lt;font style=&quot;font-size: 18px;&quot;&gt;Log Forwarder (Linux VM)&lt;/font&gt;" style="text;html=1;strokeColor=none;fillColor=none;align=center;verticalAlign=middle;whiteSpace=wrap;rounded=0;fontSize=13;movable=1;resizable=1;rotatable=1;deletable=1;editable=1;connectable=1;direction=east;container=0;" vertex="1" parent="1">
          <mxGeometry x="790" y="720" width="170" height="70" as="geometry" />
        </mxCell>
        <mxCell id="eZbDl8tRPw6CptiUavj2-15" value="&lt;font style=&quot;font-size: 18px;&quot;&gt;FortiWeb-VM&lt;/font&gt;" style="text;html=1;strokeColor=none;fillColor=none;align=center;verticalAlign=middle;whiteSpace=wrap;rounded=0;fontSize=13;movable=1;resizable=1;rotatable=1;deletable=1;editable=1;connectable=1;direction=east;container=0;" vertex="1" parent="1">
          <mxGeometry x="300" y="608.5" width="170" height="70" as="geometry" />
        </mxCell>
        <mxCell id="eZbDl8tRPw6CptiUavj2-16" style="edgeStyle=orthogonalEdgeStyle;rounded=0;orthogonalLoop=1;jettySize=auto;html=1;entryX=0.5;entryY=0;entryDx=0;entryDy=0;strokeColor=#3333FF;" edge="1" parent="1" target="eZbDl8tRPw6CptiUavj2-11">
          <mxGeometry relative="1" as="geometry">
            <mxPoint x="855" y="480" as="sourcePoint" />
          </mxGeometry>
        </mxCell>
        <mxCell id="eZbDl8tRPw6CptiUavj2-17" value="&lt;font style=&quot;font-size: 18px;&quot;&gt;Syslog daemon (rsyslog/syslog-ng)&lt;/font&gt;" style="text;html=1;strokeColor=none;fillColor=none;align=center;verticalAlign=middle;whiteSpace=wrap;rounded=0;fontSize=13;movable=1;resizable=1;rotatable=1;deletable=1;editable=1;connectable=1;direction=east;container=0;" vertex="1" parent="1">
          <mxGeometry x="770" y="390" width="170" height="70" as="geometry" />
        </mxCell>
        <mxCell id="eZbDl8tRPw6CptiUavj2-18" value="&lt;font style=&quot;font-size: 18px;&quot;&gt;TCP 28330&lt;/font&gt;" style="text;html=1;strokeColor=none;fillColor=none;align=center;verticalAlign=middle;whiteSpace=wrap;rounded=0;fontSize=13;movable=1;resizable=1;rotatable=1;deletable=1;editable=1;connectable=1;direction=east;container=0;" vertex="1" parent="1">
          <mxGeometry x="740" y="510" width="120" height="44" as="geometry" />
        </mxCell>
        <mxCell id="eZbDl8tRPw6CptiUavj2-19" value="&lt;font style=&quot;font-size: 18px;&quot;&gt;Microsoft Sentinel&lt;/font&gt;" style="text;html=1;strokeColor=none;fillColor=none;align=center;verticalAlign=middle;whiteSpace=wrap;rounded=0;fontSize=13;movable=1;resizable=1;rotatable=1;deletable=1;editable=1;connectable=1;direction=east;container=0;" vertex="1" parent="1">
          <mxGeometry x="1290" y="704" width="120" height="70" as="geometry" />
        </mxCell>
        <mxCell id="eZbDl8tRPw6CptiUavj2-20" value="&lt;font style=&quot;font-size: 18px;&quot;&gt;TCP 443 (HTTPS)&lt;/font&gt;" style="text;html=1;strokeColor=none;fillColor=none;align=center;verticalAlign=middle;whiteSpace=wrap;rounded=0;fontSize=13;movable=1;resizable=1;rotatable=1;deletable=1;editable=1;connectable=1;direction=east;container=0;" vertex="1" parent="1">
          <mxGeometry x="1020" y="514.5" width="160" height="44" as="geometry" />
        </mxCell>
        <mxCell id="eZbDl8tRPw6CptiUavj2-21" value="" style="rounded=1;whiteSpace=wrap;html=1;strokeColor=#3333FF;" vertex="1" parent="1">
          <mxGeometry x="1218" y="535" width="192" height="129.5" as="geometry" />
        </mxCell>
        <mxCell id="eZbDl8tRPw6CptiUavj2-22" value="&lt;font style=&quot;font-size: 18px;&quot;&gt;&lt;span style=&quot;&quot;&gt;UDP /TCP 514&amp;nbsp;&lt;/span&gt;&lt;br&gt;&lt;/font&gt;" style="text;html=1;strokeColor=none;fillColor=none;align=center;verticalAlign=middle;whiteSpace=wrap;rounded=0;fontSize=13;movable=1;resizable=1;rotatable=1;deletable=1;editable=1;connectable=1;direction=east;container=0;" vertex="1" parent="1">
          <mxGeometry x="440" y="505.5" width="270" height="53" as="geometry" />
        </mxCell>
        <mxCell id="eZbDl8tRPw6CptiUavj2-23" value="&lt;font style=&quot;font-size: 18px;&quot;&gt;CEF/Facility local7&lt;/font&gt;" style="text;html=1;strokeColor=none;fillColor=none;align=center;verticalAlign=middle;whiteSpace=wrap;rounded=0;fontSize=13;movable=1;resizable=1;rotatable=1;deletable=1;editable=1;connectable=1;direction=east;container=0;" vertex="1" parent="1">
          <mxGeometry x="470" y="550" width="190" height="44" as="geometry" />
        </mxCell>
        <mxCell id="eZbDl8tRPw6CptiUavj2-24" value="" style="rounded=1;whiteSpace=wrap;html=1;strokeColor=#3333FF;" vertex="1" parent="1">
          <mxGeometry x="1230" y="374.5" width="170" height="120.5" as="geometry" />
        </mxCell>
        <mxCell id="eZbDl8tRPw6CptiUavj2-25" value="&lt;font style=&quot;font-size: 12px;&quot;&gt;Data Collection Rule DCR&lt;/font&gt;" style="text;html=1;strokeColor=none;fillColor=none;align=center;verticalAlign=middle;whiteSpace=wrap;rounded=0;fontSize=13;movable=1;resizable=1;rotatable=1;deletable=1;editable=1;connectable=1;direction=east;container=0;" vertex="1" parent="1">
          <mxGeometry x="1255" y="382.5" width="120" height="44" as="geometry" />
        </mxCell>
        <mxCell id="eZbDl8tRPw6CptiUavj2-26" value="" style="shape=image;verticalLabelPosition=bottom;labelBackgroundColor=default;verticalAlign=top;aspect=fixed;imageAspect=0;image=data:image/png,iVBORw0KGgoAAAANSUhEUgAAADcAAAAxCAYAAAB+gjFbAAAAAXNSR0IArs4c6QAAAARnQU1BAACxjwv8YQUAAAAJcEhZcwAAFiUAABYlAUlSJPAAAAepSURBVGhD7Znbb1TXFcZ/+5w548G3sXGMbWzjS8TNwQIBIm0EEaUpvaiqEGmplD5VVV+q9h/o3xGpT5X60lakagJqUjUpJa2pEFRFQaGYGNsY4xgwvs/YczmXvfpwZs6cudr0qYP4pPXgPec7a39nr73W2ttqenpaeEGhwuI2HUjYgquhnhQbQKMFLVGFZRTGA3EpF8bmPG4/0yTs+hIXUdDfqjjdbzIcV0RyAgNxtxY0vxxzeLCu0fWkLAdDwc+OWLwzYtLVqPyx/I/3VzRrWalLYQBaYH5Dk8gWxgJxGc9/oJ5ha/BCGkLb78XDS3H1ipfi6hUvxdUrXmhxQft1eQo+nNYk7fqt5Cd6DM7vVQzG/b8Dcde+jHLtkcWmU8KoIxzq9Di9x6anWUNY3I3HMa492kHK8ZvOesRrnTan+tN0NXnwou+5F1pczbCMGNDeaNDYoKgVrFkXljc0dq4lb4gouloNjFokIG0La2kh6/o8Q0FLTNG2w0DV4GqBxaQm4woSyn+lYVlTXFeLwbEBi91xs7ozgfWMcHPGZnbFwzRguCPCqb1RzC3iYm7V47M5h4WEnwBaY4pDuy1GeiLV/QFaw40Zh/vPXJzQGee5xI32Wpw9GGVPuxmMVcJaWvh4PMv1BzaWqfja/ijfGWmoOUGA8acun9zLMrPkT6a3zeStA1GO9lulj5bhyhc2f5vIkgqVrlJxhW9bobwZyretoAAjtEr5O4znhaHYcrXzCPurhuARAUT8a4a8CeKPb9O0gH5OTsAT0BV+q2U6zBWK9l+xOAFXpMg8XU6oBEHwdJ7j87YDEQJenqu3ydW64DPgi/9h8witnASEvG1kNOtpTSKjSdawREZIZrTvzBNWU96WnGRGs5nVOF7BX9rRrG3Ln2YtU8z1tCAi/pLmUGi/5qJcfdjAZiihxCKKvbssOptrp+aNrHD3ic1GVlBAc8zgWP/W2XJ502Nm2WM97S+XZSp2x01efWWLbCnw+bzNaqr4GvLwLoczgzY9zSXZcuxRlCsl4uoNR3Y5vDVUEBd8W42g8eM2bIKAqm1SgafFA5yaJrho0c/NA6eM54k///CuC1bu01mLj2eibNiFlWuMKka6LXrjJkaVOBFgLe0X4/VMrhtHcyj+L0Zab2Iqt5QS4HF6mLuJEyxmewFoMNIMN99lNH6diKp+PLGlgetL32Uh048nhRp8tNvlm0M2vS0lp4KrsxZ/eWCRDIk73Bvl3Ggjwx2Rqu2XACspzaXPU/xjOgOAqTx+0P8uF/reJWqEroBL8O/VM7w393PGE8cBGGz6gu/3/YrTnZdyb64GxcW5X/DB/E/ZcHOHN+B4t8e3hgviCmEZpPGCWQZETYVlKiJVzAp+99N63gw8LMOuaaZyEPGzrM+xiRkbWEa27NliyxI1Un5ohnzqqqVAKIvh5ynHUhr/2yiQIrmPGnDyLcDWENFF3Eo+izoUr0xgqYTqpilw3VynsxXKE5H/ru1A8JuOUnFhfcVhKcVhaXuCu41ZivjPhrnbWYFg5XIcRxs4euumGcDWETxdvBX8j1PwGySUPz8wuXTfJGEXXtDdYnJyaAcDO2sUVfETytXJNA9X/QxnoHmz8xNO7fprzaw3mRxhbPEsj1LDALRZq7zeMcZXOz5Fqep9mBaTDx9f4M76UWzdEIy/sVtzbp/HnlZfYCDuo2mD9yeKxUUM/+DYaBl+618JAo4nLKe84LAK0G6tEI+uYNRYwZTXxJq9k4yOAWAqTUtknfboUlV3AIJiIdND2mvE74l8vNGrOb9fM1Aq7k9TBn+cUKxna732/xsn+4S392sG4yXiLk8q/jBhFP1nssHMMNT0gFcaFjGqhImgSDotTCb3s+k2A6CU0N84y57G2ao8gOVsB3OpARKOX6sihkN37CkDTTOYym+hKsGVCPcSr7Fut6Gl0MCe7BMuHJBycZfuKy5OKNZD4g623uPt/vc40DpedZIiioVsNxdn3+Hm8lcgF17f6/2Ac33vYxmhOC/B7dWjXP7yPBPJ/QD0xJ7w7d0fcabrCkYNcZ5E+P3sj/j7wtdJeTuC8Tf7hB8eFIZydT2S/0GTzzyFsOyOzXG47RajbXeCsUpYyHRzY/F1ri/64lCartg8R9pv0VCjQ0k4zewwk8H5r8Va4VD8Nsd33ix9tAyfrRxhbOEkni6IKz2wFp3n/BqlA1O4VVesGAJ4IW55Qa2EfOOQ54l4GDV60TAUbtl8S32G6lxJzci3M1vPESq0byI5zTUg+cL/P/kDr6T98qq3X6Xdgl9Udc2k7EMEXG0Ucbc1ScldF+Q4rlZ4oQRRC54YuLq4o/LvfQooWjlXwNV+V+Jq4Wmmg6nkIFPJYaaSQ9VtY4j59K6A52hYstuY3hgsfzZk8+kuNr1YwFtzmplKDjK5hb/J5DAzG31kPbNovl61a4bf3dP85o5mNbT/myIpDrf/h77GJ1WLsQBrdis3l46xlkvpCmEkPsFI/D5mjT37ON3F+Po+lrIdAEQNm1ebH3Ko7R6mquyP3Kr9c/EEzzKdRee5bwwofjxqsLfdj7ZA3G/HNb++4xWJqzecHTT4yajBvpy4ssY5vMz1Zrpk0xXtXk/7G7xerTSQ/wuuJ2bTGQ190AAAAABJRU5ErkJggg==;" vertex="1" parent="1">
          <mxGeometry x="1222" y="598.75" width="55" height="49" as="geometry" />
        </mxCell>
        <mxCell id="eZbDl8tRPw6CptiUavj2-27" value="" style="image;aspect=fixed;html=1;points=[];align=center;fontSize=12;image=img/lib/azure2/management_governance/Log_Analytics_Workspaces.svg;" vertex="1" parent="1">
          <mxGeometry x="1228" y="541.75" width="43" height="43" as="geometry" />
        </mxCell>
        <mxCell id="eZbDl8tRPw6CptiUavj2-28" value="&lt;font style=&quot;font-size: 12px;&quot;&gt;Resource: linux vm&lt;br&gt;Collect:&amp;nbsp; Log_local7&lt;br&gt;&lt;/font&gt;" style="text;html=1;strokeColor=none;fillColor=none;align=center;verticalAlign=middle;whiteSpace=wrap;rounded=0;fontSize=13;movable=1;resizable=1;rotatable=1;deletable=1;editable=1;connectable=1;direction=east;container=0;" vertex="1" parent="1">
          <mxGeometry x="1253" y="435" width="120" height="44" as="geometry" />
        </mxCell>
        <mxCell id="eZbDl8tRPw6CptiUavj2-29" value="&lt;font style=&quot;font-size: 12px;&quot;&gt;Log Analytics Workspace&lt;/font&gt;" style="text;html=1;strokeColor=none;fillColor=none;align=center;verticalAlign=middle;whiteSpace=wrap;rounded=0;fontSize=13;movable=1;resizable=1;rotatable=1;deletable=1;editable=1;connectable=1;direction=east;container=0;" vertex="1" parent="1">
          <mxGeometry x="1280" y="545" width="120" height="39.25" as="geometry" />
        </mxCell>
        <mxCell id="eZbDl8tRPw6CptiUavj2-30" value="&lt;font style=&quot;font-size: 12px;&quot;&gt;CommonSecurityLog&lt;/font&gt;" style="text;html=1;strokeColor=none;fillColor=none;align=center;verticalAlign=middle;whiteSpace=wrap;rounded=0;fontSize=13;movable=1;resizable=1;rotatable=1;deletable=1;editable=1;connectable=1;direction=east;container=0;" vertex="1" parent="1">
          <mxGeometry x="1280" y="599.75" width="120" height="44" as="geometry" />
        </mxCell>
        <mxCell id="eZbDl8tRPw6CptiUavj2-32" value="" style="shape=image;aspect=fixed;image=data:image/svg+xml,PD94bWwgdmVyc2lvbj0iMS4wIiBlbmNvZGluZz0iVVRGLTgiPz48c3ZnIGlkPSJTZWN1cml0eV9OZXR3b3JraW5nIiB4bWxucz0iaHR0cDovL3d3dy53My5vcmcvMjAwMC9zdmciIHZpZXdCb3g9IjAgMCAxOTIgMTkyIj48ZGVmcz48c3R5bGU+LmNscy0xe2ZpbGw6IzQ2NDY0Njt9LmNscy0ye2ZpbGw6IzMwN2ZlMjt9PC9zdHlsZT48L2RlZnM+PHBhdGggY2xhc3M9ImNscy0xIiBkPSJtOTYsMTQ2LjIyYy0zLjQ5LDAtNi45OS0uMzYtMTAuNC0xLjA4LTIxLjUxLTQuNTMtMzcuNDYtMjIuMjYtMzkuNjctNDQuMTMtLjE3LTEuNjgtLjI2LTMuNDEtLjI2LTUuMTQsMC0xOS42NSwxMS41NC0zNy42MiwyOS40MS00NS43OSw2LjU5LTMuMDIsMTMuNjMtNC41NSwyMC45My00LjU1LDE1Ljk4LDAsMzEuMTUsNy42OSw0MC42LDIwLjU5LjA0LjA1LjA4LjA5LjExLjE0LDQuODYsNi42Nyw4LjAyLDE0LjUsOS4xNCwyMi42NC4zMiwyLjI5LjQ4LDQuNjMuNDgsNi45NiwwLDIxLjItMTMuNCw0MC4yNC0zMy4zNCw0Ny4zOS01LjQ1LDEuOTUtMTEuMTcsMi45NC0xNi45OSwyLjk0Wm0wLTk2LjY3Yy02LjcyLDAtMTMuMiwxLjQxLTE5LjI2LDQuMTgtMTYuNDUsNy41Mi0yNy4wOCwyNC4wNy0yNy4wOCw0Mi4xNSwwLDEuNTkuMDgsMy4xOC4yNCw0LjczLDIuMDQsMjAuMTMsMTYuNzEsMzYuNDUsMzYuNTEsNDAuNjIsMy4xNC42Niw2LjM2Ljk5LDkuNTguOTksNS4zNywwLDEwLjYzLS45MSwxNS42NS0yLjcxLDE4LjM2LTYuNTgsMzAuNjktMjQuMTIsMzAuNjktNDMuNjMsMC0yLjE0LS4xNS00LjMtLjQ0LTYuNDEsMCwwLDAsMCwwLDAtMS4wMi03LjQzLTMuODktMTQuNTgtOC4zMS0yMC43LS4wNC0uMDQtLjA4LS4wOS0uMTEtLjE0LTguNy0xMS45NS0yMi43MS0xOS4wOS0zNy40Ny0xOS4wOVoiLz48cGF0aCBjbGFzcz0iY2xzLTEiIGQ9Im0xMDYuNTQsMTc1Ljg5aC0yMS4xNWMtLjg0LDAtMS41OS0uNTMtMS44OC0xLjMyLS4yMS0uNTgtLjQtMS4xNC0uNTgtMS43bC0uOS0yLjY5Yy0yLjY1LTguMDItNC4yNS0xMi44Ny0xMC40My0xNS40LTYuMzYtMi42Ni0xMC45Ny0uNC0xOC42MiwzLjM1LTEuMy42NC0yLjY3LDEuMzEtNC4xMywxLjk5LS43Ni4zNi0xLjY3LjItMi4yNy0uNGwtMTQuODMtMTQuODNjLS42LS42LS43Ni0xLjUxLS4zOS0yLjI4LjcyLTEuNTEsMS40NC0yLjkzLDIuMTItNC4yNy45Mi0xLjgzLDEuOC0zLjU2LDIuNS01LjE2Ljk4LTIuMjEsMS41OC00LjAxLDEuODYtNS42Ni40Mi0yLjQ4LjExLTQuODMtLjk2LTcuMzUtMi40OC02LjAxLTcuMi03LjY0LTE1LjAxLTEwLjM1LS43NC0uMjYtMS41LS41Mi0yLjI4LS43OS0uODItLjI3LTEuNjgtLjU4LTIuNTktLjkzLS43Ny0uMy0xLjI4LTEuMDQtMS4yOC0xLjg3di0yMC45MmMwLS44NS41NC0xLjYxLDEuMzUtMS44OS4xNy0uMDYuMzMtLjEyLjQ5LS4xOC4xNi0uMDYuMzMtLjEyLjQ5LS4xOCwxLjMyLS40NiwyLjU3LS44OSwzLjc3LTEuMjksMy4yLTEuMDgsNS45Ni0yLjAxLDguMjItMy4xNS40LS4yLjc2LS40MSwxLjE0LS42NCwyLjgxLTEuNjQsNC41LTMuNTksNS42OS02LjU2LDIuNDktNS44OS43MS05Ljk1LTIuOTItMTcuMi0uODktMS43NS0xLjc2LTMuNTMtMi42LTUuMjgtLjM2LS43NS0uMjEtMS42NS4zNy0yLjI1Ljc0LS43NiwxLjQ2LTEuNDgsMi4xNC0yLjE3bDEuMzUtMS4zNGMuMTItLjEzLjI0LS4yNS4zNi0uMzZsLjY2LS42N2MuNjktLjY5LDEuMzMtMS4zNCwxLjk1LTEuOTJsLjg4LS45Yy4xNC0uMTQuMjgtLjI4LjQzLS40Mi4wNy0uMDcuMTQtLjE0LjIxLS4yMWwuMTUtLjE1cy4wNS0uMDUuMDgtLjA4bC40MS0uNGMuMjgtLjI2LjQ2LS40NC42LS42LjA1LS4wNi4xLS4xMS4xNS0uMTZsLjE1LS4xNWMuMTUtLjE0LjI4LS4yNy40LS40LjA1LS4wNi4xMS0uMTIuMTctLjE3LjMzLS4zLjYxLS41OC44Ny0uODRsLjIxLS4yMWMuMTMtLjE2LjI2LS4yNy4zMy0uMzRsLjE5LS4yMWMuMDYtLjA3LjEzLS4xMy4yLS4xOS4xLS4wOC4xNy0uMTUuMjQtLjIzLjAzLS4wMy4wNi0uMDYuMDktLjA5bDIuMTUtMi4xNmMuMTQtLjE0LjI0LS4yMy4zMS0uMy41NS0uNzIsMS42Ni0uOTksMi41LS41OGwuNTMuMjVjLjMuMTQuNi4yOS45LjQ0Ljg3LjQyLDEuNzUuODUsMi42LDEuMjcsMi4yNywxLjExLDQuMjIsMi4wNyw2LjA4LDIuODUsMi41NywxLjA3LDQuNTYsMS42LDYuNDcsMS43Mi40OC4wNC44OS4wNSwxLjQxLjAyaC4yYy4yMy0uMDIuNDUtLjAzLjY3LS4wNiwxLjMzLS4xNCwyLjU1LS40NiwzLjgzLS45OSw0LjU3LTEuOTcsNi41OC01LjA5LDguMzMtOS40OS4xOS0uNDkuMzctLjk2LjU1LTEuNDYuMTYtLjQ3LjM1LS45OC41Ni0xLjUxbC4wMi0uMDZjLjI2LS44Mi41NS0xLjY3Ljg1LTIuNTUuMDctLjI0LjE4LS41Ni4yNy0uODQuMDktLjI5LjE5LS41OC4yOS0uODcuMS0uMzIuMjEtLjY0LjMxLS45N2wuMTQtLjRjLjE5LS41NS4zOS0xLjExLjYtMS42Ni4zLS43NiwxLjA0LTEuMjcsMS44Ni0xLjI3aDIxLjE1Yy44MiwwLDEuNTYuNSwxLjg2LDEuMjcuMjcuNjguNSwxLjM2LjcyLDIuMDMuMDkuMjUuMTcuNTIuMjYuNzguMTEuMzQuMjIuNjguMzQsMS4wMS4wNy4xOS4xNC40LjIxLjYxbC4xMS4zNGMuMTkuNTcuMzcsMS4xMS41NCwxLjYzbC4zMi45NGMuMTcuNTMuMzUsMS4wMi41NCwxLjUxLjE5LjUzLjM2Ljk4LjU2LDEuNDUsMS43Nyw0LjQzLDMuNzcsNy41NSw4LjM1LDkuNTMsMS42MS42NSwzLjE0Ljk5LDQuNjIsMS4wNC40OS4wMy45Ni4wMiwxLjQzLS4wMiwzLjc5LS4yMyw3LjY5LTIuMTYsMTIuNjQtNC42LjgzLS40MSwxLjY5LS44NCwyLjU5LTEuMjcuMjUtLjEzLjU0LS4yNi44NC0uNC4xOS0uMDkuMzgtLjE4LjU3LS4yNy43NS0uMzcsMS43MS0uMjEsMi4zLjM4bDEuNTMsMS41M2MuMjguMjguNTYuNTYuODMuODQuMS4wOC4xOS4xNy4yOS4yNy4wNS4wNS4xLjExLjE1LjE3bC4wOC4wOGMuMDkuMDguMTguMTcuMjYuMjZsLjIuMnMuMDUuMDUuMDcuMDdjLjA5LjA4LjE4LjE3LjI2LjI1bC4yMy4yNGMuMy4yOC42NC42Mi45Ni45NmwuMTguMThjLjE2LjE2LjMyLjMyLjQ5LjQ5LjEzLjEyLjMyLjMxLjUuNWwuMTguMThjLjEyLjExLjI0LjIzLjM1LjM1bC41MS41MWMuMTIuMTIuMjIuMjIuMzQuMzIuMDguMDcuMTUuMTQuMjEuMjEuMDguMS4xOS4yLjI5LjI5LjIuMTguMzkuMzYuNTkuNiwxLjAxLjk5LDEuODUsMS44MywyLjU1LDIuNTNsLjgxLjgxYy4xMy4xMy4yNy4yNy40LjQxbDIuNTksMi41OGMuNi42Ljc2LDEuNTEuNCwyLjI3LS42MywxLjMzLTEuMjYsMi41OS0xLjg2LDMuNzlsLS43NCwxLjQ5Yy0zLjYzLDcuMjctNS40MSwxMS4zMy0yLjk0LDE3LjE3LDEuMiwzLjAyLDIuOSw0Ljk4LDUuNjksNi41OS4wNC4wMi4wNy4wNC4xMS4wNy4yNi4xNy41OS4zNiwxLjA0LjU5LDIuMjgsMS4xNSw1LjA5LDIuMSw4LjM0LDMuMTksMS4xNi4zOSwyLjM3LjgsMy42NSwxLjI0LDAsMCwuMDIsMCwuMDMsMGwuMjQuMDljLjI3LjEuNTQuMi44Mi4zMS43NS4zMSwxLjI1LDEuMDQsMS4yNSwxLjg1djIwLjkyYzAsLjgyLS41LDEuNTYtMS4yNywxLjg2LS44MS4zMi0xLjY3LjYzLTIuNjEuOTQtLjc0LjI2LTEuNS41Mi0yLjIzLjc3LTcuODMsMi43MS0xMi41Niw0LjM0LTE1LjAzLDEwLjM0LTIuNjUsNi4yNy0uMzcsMTAuNzcsMy40MSwxOC4yMi42OCwxLjMzLDEuMzksMi43NCwyLjExLDQuMjQuMzcuNzcuMjEsMS42OC0uMzksMi4yOWwtMTQuODUsMTQuODNjLS42LjYtMS41Ljc1LTIuMjcuMzktMS40NC0uNjgtMi43OS0xLjM0LTQuMDctMS45Ny03LjY3LTMuNzctMTIuMy02LjA0LTE4LjY2LTMuMzgtNi4yLDIuNTQtNy44LDcuNC0xMC40NSwxNS40NmwtLjYsMS44MmMtLjIzLjc1LS41MiwxLjYtLjg3LDIuNTQtLjI5Ljc4LTEuMDQsMS4zLTEuODcsMS4zWm0tMTkuNzItNGgxOC4zMmMuMTItLjM2LjIzLS43MS4zNC0xLjA1bC42MS0xLjg2YzIuOC04LjUyLDQuODMtMTQuNjcsMTIuNzItMTcuOSw4LjAyLTMuMzYsMTMuODctLjQ5LDIxLjk1LDMuNDkuODguNDMsMS43OS44OCwyLjc0LDEuMzRsMTIuODQtMTIuODNjLS41LTEtLjk4LTEuOTctMS40NS0yLjg5LTMuODUtNy42LTYuOS0xMy42MS0zLjUzLTIxLjU3LDMuMTUtNy42NSw5LjEzLTkuNzIsMTcuNDEtMTIuNTguNzItLjI1LDEuNDctLjUxLDIuMjQtLjc4LjQyLS4xNC44MS0uMjcsMS4xOC0uNDF2LTE4LjEzYy0xLjEzLS4zOS0yLjIyLS43Ni0zLjI1LTEuMTEtMy40LTEuMTQtNi4zMy0yLjEzLTguODgtMy40Mi0uNTctLjI5LTEuMDEtLjU0LTEuMzktLjc5LTMuNS0yLjA0LTUuODMtNC43NC03LjMzLTguNS0zLjMtNy43OC0uMzUtMTMuNjYsMy4wNS0yMC40N2wuNzUtMS41Yy4zOS0uNzkuOC0xLjYsMS4yMS0yLjQ0bC0xLjYzLTEuNjJzLS4wNi0uMDctLjEtLjFjLS4wOC0uMDktLjE3LS4xNy0uMjUtLjI1bC0uODMtLjgzYy0uNzEtLjcxLTEuNTYtMS41Ni0yLjYtMi41OC0uMDYtLjA2LS4xMi0uMTMtLjE4LS4yLS4wNi0uMDctLjEyLS4xMi0uMTktLjE4LS4yMy0uMjItLjQyLS40LS41Ny0uNTctLjE1LS4xMy0uMjgtLjI2LS40My0uNDJsLS41OS0uNnMtLjA4LS4wOS0uMTItLjEyYy0uMDItLjAyLS4wOS0uMDktLjEyLS4xMWwtLjI0LS4yNGMtLjE1LS4xNi0uMzItLjMyLS40OC0uNDgtLjItLjIxLS4zMy0uMzQtLjQ2LS40N2wtLjI1LS4yNWMtLjMtLjMyLS41Ny0uNTktLjg1LS44NmwtLjMzLS4zM3MtLjA1LS4wNS0uMDctLjA3Yy0uMDktLjA4LS4xOC0uMTYtLjI1LS4yNWwtLjM2LS4zNmMtLjExLS4xLS4yMS0uMi0uMy0uMzEtLjA5LS4wNy0uMi0uMTctLjI4LS4yNS0uMjctLjI5LS41NS0uNTctLjg0LS44NWwtLjUzLS41M3MtLjA2LjAzLS4wOS4wNWMtLjkzLjQ1LTEuNzguODctMi42LDEuMjgtNS4zNCwyLjY0LTkuNTcsNC43Mi0xNC4xMyw1LS42Mi4wNS0xLjI2LjA2LTEuODguMDItMS45LS4wNi0zLjg3LS41LTUuOTgtMS4zNC02LjIxLTIuNjgtOC43Mi03LjIxLTEwLjUyLTExLjcxLS4yMS0uNTItLjQyLTEuMDQtLjYxLTEuNTktLjE5LS41LS4zOS0xLjA1LS41OC0xLjYzbC0uMzEtLjkyYy0uMTgtLjU0LS4zNy0xLjA4LS41NS0xLjY0bC0uMTItLjM3Yy0uMDUtLjE2LS4xLS4zMS0uMTYtLjQ2LS4xNC0uMzgtLjI3LS43Ni0uMzktMS4xNS0uMDgtLjI0LS4xNi0uNDgtLjI0LS43My0uMDYtLjE5LS4xMy0uMzktLjItLjU4aC0xOC4zNWMtLjAzLjA4LS4wNi4xNi0uMDkuMjVsLS4xMi4zNWMtLjA5LjI5LS4yLjYzLS4zMi45Ny0uMDkuMjctLjE4LjU0LS4yNy44MS0uMTEuMzMtLjIxLjYyLS4yOS45LS4zMi45Mi0uNiwxLjc2LS44NiwyLjU3LS4wMS4wNC0uMDIuMDctLjA0LjExbC0uMDQuMTFjLS4xOS40OC0uMzYuOTQtLjUyLDEuNDEtLjIxLjU4LS40LDEuMDgtLjYsMS42LTEuNzksNC41LTQuMzEsOS4wMy0xMC40OSwxMS43LTEuNjQuNjgtMy4yNywxLjEtNC44NywxLjI3LS4yNi4wNC0uNjEuMDYtLjk3LjA4aC0uMThjLS43Mi4wNS0xLjMyLjA0LTEuOTUtLjAyLTIuMzEtLjE0LTQuNy0uNzctNy43LTIuMDItMS45Ny0uODMtNC4wNy0xLjg2LTYuMy0yLjk1LS44NC0uNDEtMS43Mi0uODQtMi42Mi0xLjI4LS4wNS0uMDItLjA5LS4wNS0uMTMtLjA3bC0uMDIuMDItMS41NywxLjU5Yy0uMTYuMTgtLjMzLjM1LS41NS41M2wtLjE1LjE2Yy0uMTEuMTEtLjE3LjE3LS4yMi4yMi0uMDQuMDQtLjA3LjA4LS4xMS4xMmwtLjI4LjI4Yy0uMjguMjgtLjU4LjU4LS45Mi45LS4xOC4yLS4zOC4zOS0uNTkuNTlsLS4wNy4wN2MtLjI1LjI5LS41Mi41NS0uODQuODRsLS4zNC4zM2MtLjA3LjA3LS4xNC4xNS0uMjIuMjJsLS4xNi4xNnMtLjA3LjA3LS4xLjFjLS4xMy4xMi0uMjYuMjUtLjM4LjM3bC0uODkuOTFjLS42Ni42My0xLjI4LDEuMjUtMS45MywxLjkxbC0uNzEuNzFzLS4wNy4wNy0uMS4xYy0uMDYuMDUtLjEuMS0uMTUuMTZsLTEuNDIsMS40MWMtLjM3LjM2LS43NC43NC0xLjEyLDEuMTIuNjQsMS4zMSwxLjI5LDIuNjQsMS45NiwzLjk1LDMuNDEsNi44Miw2LjM1LDEyLjY5LDMuMDQsMjAuNTItMS40OSwzLjczLTMuODMsNi40NC03LjM1LDguNDktLjQ0LjI3LS44OS41Mi0xLjM4Ljc3LTIuNSwxLjI3LTUuMzksMi4yNC04Ljc0LDMuMzctMS4wOC4zNi0yLjIuNzQtMy4zOCwxLjE1djE4LjEyYy4zOS4xNC43OC4yNywxLjE2LjQuODEuMjgsMS41Ni41NSwyLjI5LjgsNy45NSwyLjc2LDE0LjIzLDQuOTMsMTcuMzksMTIuNTksMS4zNywzLjI1LDEuNzYsNi4yOSwxLjIxLDkuNTctLjM1LDItMS4wMyw0LjEtMi4xNSw2LjYxLS43NSwxLjY5LTEuNjQsMy40Ny0yLjU5LDUuMzUtLjQ3Ljk0LS45NiwxLjkxLTEuNDYsMi45MmwxMi44MywxMi44M2MuOTctLjQ3LDEuOS0uOTIsMi44LTEuMzYsOC4wNy0zLjk1LDEzLjg5LTYuODEsMjEuOTEtMy40Niw3Ljg3LDMuMjIsOS44OSw5LjM1LDEyLjY5LDE3Ljg0bC44OSwyLjY4Yy4wMy4xLjA2LjE5LjEuMjlabTU5LjE2LTEzMy43N3MwLDAsMCwwYzAsMCwwLDAsMCwwWm0wLDBzMCwwLDAsMGMwLDAsMCwwLDAsMFptLTk5LjkzLS4xczAsMCwwLDBjMCwwLDAsMCwwLDBabTEwMi43OC0yLjY3czAsMCwwLDBjMCwwLDAsMCwwLDBabTAsMHMwLDAsMCwwYzAsMCwwLDAsMCwwWm0tMTAyLjY1LTIuODloMHMwLDAsMCwwWm0wLDBzMCwwLDAsMGMwLDAsMCwwLDAsMFptNDkuODMsMTEzLjc3Yy0zLjQ5LDAtNi45OS0uMzYtMTAuNC0xLjA4LTIxLjUxLTQuNTMtMzcuNDYtMjIuMjYtMzkuNjctNDQuMTMtLjE3LTEuNjgtLjI2LTMuNDEtLjI2LTUuMTQsMC0xOS42NSwxMS41NC0zNy42MiwyOS40MS00NS43OSw2LjU5LTMuMDIsMTMuNjMtNC41NSwyMC45My00LjU1LDE1Ljk4LDAsMzEuMTUsNy42OSw0MC42LDIwLjU5LjA0LjA1LjA4LjA5LjExLjE0LDQuODYsNi42OCw4LjAyLDE0LjUxLDkuMTQsMjIuNjQuMzIsMi4yOC40OCw0LjYzLjQ4LDYuOTYsMCwyMS4yLTEzLjQsNDAuMjQtMzMuMzQsNDcuMzksMCwwLDAsMCwwLDAtNS40NSwxLjk1LTExLjE3LDIuOTQtMTYuOTksMi45NFptMC05Ni42N2MtNi43MiwwLTEzLjIsMS40MS0xOS4yNiw0LjE4LTE2LjQ1LDcuNTItMjcuMDgsMjQuMDctMjcuMDgsNDIuMTUsMCwxLjU5LjA4LDMuMTguMjQsNC43MywyLjA0LDIwLjEzLDE2LjcxLDM2LjQ1LDM2LjUxLDQwLjYyLDMuMTQuNjYsNi4zNi45OSw5LjU4Ljk5LDUuMzcsMCwxMC42My0uOTEsMTUuNjUtMi43MSwxOC4zNi02LjU4LDMwLjY5LTI0LjEyLDMwLjY5LTQzLjYzLDAtMi4xNC0uMTUtNC4zLS40NC02LjQxLTEuMDItNy40My0zLjg5LTE0LjU5LTguMzEtMjAuNy0uMDQtLjA0LS4wOC0uMDktLjExLS4xNC04LjctMTEuOTUtMjIuNzEtMTkuMDktMzcuNDctMTkuMDlabTE2LjMyLDkxLjg1aDAsMFoiLz48ZyBpZD0iU3Ryb2tlIj48Y2lyY2xlIGNsYXNzPSJjbHMtMiIgY3g9IjY4LjY0IiBjeT0iODAuNSIgcj0iOS4xOSIvPjxwYXRoIGNsYXNzPSJjbHMtMSIgZD0ibTY4LjY0LDkxLjY5Yy02LjE3LDAtMTEuMTktNS4wMi0xMS4xOS0xMS4xOXM1LjAyLTExLjE5LDExLjE5LTExLjE5LDExLjE5LDUuMDIsMTEuMTksMTEuMTktNS4wMiwxMS4xOS0xMS4xOSwxMS4xOVptMC0xOC4zOWMtMy45NywwLTcuMTksMy4yMy03LjE5LDcuMTlzMy4yMyw3LjE5LDcuMTksNy4xOSw3LjE5LTMuMjMsNy4xOS03LjE5LTMuMjMtNy4xOS03LjE5LTcuMTlaIi8+PGNpcmNsZSBjbGFzcz0iY2xzLTIiIGN4PSIxMTcuNzUiIGN5PSI3NS4zNyIgcj0iOS4xOSIvPjxwYXRoIGNsYXNzPSJjbHMtMSIgZD0ibTExNy43NSw4Ni41N2MtNi4xNywwLTExLjE5LTUuMDItMTEuMTktMTEuMTlzNS4wMi0xMS4xOSwxMS4xOS0xMS4xOSwxMS4xOSw1LjAyLDExLjE5LDExLjE5LTUuMDIsMTEuMTktMTEuMTksMTEuMTlabTAtMTguMzljLTMuOTcsMC03LjE5LDMuMjMtNy4xOSw3LjE5czMuMjMsNy4xOSw3LjE5LDcuMTksNy4xOS0zLjIzLDcuMTktNy4xOS0zLjIzLTcuMTktNy4xOS03LjE5WiIvPjxjaXJjbGUgY2xhc3M9ImNscy0yIiBjeD0iODUuNDgiIGN5PSIxMjMuNjgiIHI9IjkuMTkiLz48cGF0aCBjbGFzcz0iY2xzLTEiIGQ9Im04NS40OCwxMzQuODdjLTYuMTcsMC0xMS4xOS01LjAyLTExLjE5LTExLjE5czUuMDItMTEuMTksMTEuMTktMTEuMTksMTEuMTksNS4wMiwxMS4xOSwxMS4xOS01LjAyLDExLjE5LTExLjE5LDExLjE5Wm0wLTE4LjM5Yy0zLjk3LDAtNy4xOSwzLjIzLTcuMTksNy4xOXMzLjIzLDcuMTksNy4xOSw3LjE5LDcuMTktMy4yMyw3LjE5LTcuMTktMy4yMy03LjE5LTcuMTktNy4xOVoiLz48cGF0aCBjbGFzcz0iY2xzLTEiIGQ9Im05NiwxNDYuMjJjLTMuNDksMC02Ljk5LS4zNi0xMC40LTEuMDgtMjEuNTEtNC41My0zNy40Ni0yMi4yNi0zOS42Ny00NC4xMy0uMTctMS42OC0uMjYtMy40MS0uMjYtNS4xNCwwLTE5LjY1LDExLjU0LTM3LjYyLDI5LjQxLTQ1Ljc5LDYuNTktMy4wMiwxMy42My00LjU1LDIwLjkzLTQuNTUsMTUuNywwLDMwLjYxLDcuNDIsNDAuMSwxOS45MWguMDFsLjYxLjgyYzQuODYsNi42OCw4LjAyLDE0LjUxLDkuMTQsMjIuNjQuMzIsMi4yOC40OCw0LjYzLjQ4LDYuOTYsMCwyMS4yLTEzLjQsNDAuMjQtMzMuMzQsNDcuMzktNS40NSwxLjk1LTExLjE3LDIuOTQtMTYuOTksMi45NFptMC05Ni42N2MtNi43MiwwLTEzLjIsMS40MS0xOS4yNiw0LjE4LTE2LjQ1LDcuNTItMjcuMDgsMjQuMDctMjcuMDgsNDIuMTUsMCwxLjU5LjA4LDMuMTguMjQsNC43MywyLjA0LDIwLjEzLDE2LjcxLDM2LjQ1LDM2LjUxLDQwLjYyLDMuMTQuNjYsNi4zNi45OSw5LjU4Ljk5LDUuMzcsMCwxMC42My0uOTEsMTUuNjUtMi43MSwxOC4zNi02LjU4LDMwLjY5LTI0LjEyLDMwLjY5LTQzLjYzLDAtMi4xNC0uMTUtNC4zLS40NC02LjQxLTEtNy4zLTMuNzktMTQuMzMtOC4wNy0yMC4zN2wtLjM1LS40N2MtOC43LTExLjk1LTIyLjcxLTE5LjA5LTM3LjQ3LTE5LjA5WiIvPjxwYXRoIGNsYXNzPSJjbHMtMSIgZD0ibTEyNS4xMiw3MS43MmwtMS4xNy0zLjgyYy4xMS0uMDMuMjItLjA3LjM0LS4xMSwzLjUtMS4xLDcuMDItMS44NywxMC41Ni0yLjMxbC41LDMuOTdjLTMuMzEuNDItNi42LDEuMTQtOS44LDIuMTQtLjEuMDQtLjI3LjA5LS40My4xNFoiLz48cGF0aCBjbGFzcz0iY2xzLTEiIGQ9Im04Ni42MSwxMTQuOTJsLTMuOTItLjc4YzMuMDgtMTUuNTEsMTEuOTYtMjkuMDcsMjUtMzguMThsMi4yOSwzLjI4Yy0xMi4xOSw4LjUxLTIwLjQ4LDIxLjE4LTIzLjM2LDM1LjY4WiIvPjxwYXRoIGNsYXNzPSJjbHMtMSIgZD0ibTg0LjEsMTQzLjc2Yy0xLjA2LTMuNTEtMS44LTcuMTUtMi4yMS0xMC44bDMuOTgtLjQ0Yy4zOCwzLjQyLDEuMDcsNi44MSwyLjA2LDEwLjA5bC0zLjgzLDEuMTVaIi8+PHBhdGggY2xhc3M9ImNscy0xIiBkPSJtNjkuODIsNzEuNzZsLTMuOTEtLjg0YzEuNTQtNy4xNiw0LjM0LTEzLjkyLDguMzEtMjAuMWwzLjM2LDIuMTZjLTMuNzEsNS43Ny02LjMzLDEyLjA5LTcuNzcsMTguNzhaIi8+PHBhdGggY2xhc3M9ImNscy0xIiBkPSJtNzYuMjUsMTE5Ljc4Yy02LjQ0LTguODItMTAuMzktMTkuMjItMTEuNDItMzAuMDhsMy45OC0uMzhjLjk3LDEwLjE0LDQuNjYsMTkuODYsMTAuNjcsMjguMWwtMy4yMywyLjM2WiIvPjxwYXRoIGNsYXNzPSJjbHMtMSIgZD0ibTExMS44OCwxNDMuMzRjLTguMTctMS44OC0xNS43NS01LjM3LTIyLjUyLTEwLjM3bDIuMzgtMy4yMmM2LjMzLDQuNjgsMTMuNDEsNy45NCwyMS4wNCw5LjY5bC0uOSwzLjlaIi8+PHBhdGggY2xhc3M9ImNscy0xIiBkPSJtMTQyLjQ4LDkwLjYzYy00Ljg3LTQuNzctMTAuNDUtOC42NC0xNi41OS0xMS41MWwxLjY5LTMuNjJjNi41NiwzLjA2LDEyLjUxLDcuMTksMTcuNywxMi4yN2wtMi44LDIuODZaIi8+PHBhdGggY2xhc3M9ImNscy0xIiBkPSJtNzcuNTYsNzguMDlsLTEuNTQtMy42OWM3Ljc4LTMuMjQsMTYuMDQtNC44OCwyNC41NC00Ljg4LDIuOTcsMCw1Ljk1LjIxLDguODcuNjFsLS41NSwzLjk2Yy0yLjc0LS4zOC01LjU0LS41Ny04LjMyLS41Ny03Ljk3LDAtMTUuNzEsMS41NC0yMyw0LjU3WiIvPjxwYXRoIGNsYXNzPSJjbHMtMSIgZD0ibTQ5LjYxLDEwMS44OGwtMy40LTIuMTFjMy42Ni01LjksOC4yNC0xMS4xNCwxMy41OS0xNS41N2wyLjU1LDMuMDhjLTUuMDIsNC4xNi05LjMxLDkuMDctMTIuNzUsMTQuNloiLz48L2c+PC9zdmc+;" vertex="1" parent="1">
          <mxGeometry x="310" y="480.5" width="150" height="150" as="geometry" />
        </mxCell>
      </root>
    </mxGraphModel>
  </diagram>
</mxfile>
